<svg width="36" height="36" viewBox="0 0 36 36" fill="none" xmlns="http://www.w3.org/2000/svg">
<g clip-path="url(#clip0_5902_14242)">
<path d="M14.6667 10.5729C14.6667 11.399 14.9928 12.1912 15.5733 12.7753C16.1538 13.3594 16.941 13.6875 17.762 13.6875C18.5829 13.6875 19.3701 13.3594 19.9506 12.7753C20.5311 12.1912 20.8572 11.399 20.8572 10.5729C20.858 10.3307 20.8292 10.0893 20.7715 9.85417H14.7524C14.6947 10.0893 14.6659 10.3307 14.6667 10.5729ZM15.1429 8.89583H20.381C20.6373 8.8918 20.8815 8.78559 21.0601 8.60052C21.2387 8.41546 21.3369 8.16666 21.3334 7.90875V7.48708C21.335 7.35901 21.3115 7.23187 21.2643 7.11293C21.2171 6.99399 21.147 6.88559 21.0581 6.79391C20.9692 6.70224 20.8633 6.62909 20.7463 6.57866C20.6293 6.52823 20.5035 6.5015 20.3762 6.5H20.3191L15.081 6.86417C14.8366 6.88416 14.6088 6.99663 14.4436 7.17892C14.2783 7.3612 14.1879 7.59974 14.1905 7.84646V7.90875C14.187 8.16666 14.2852 8.41546 14.4638 8.60052C14.6424 8.78559 14.8866 8.8918 15.1429 8.89583Z" fill="#344054"/>
<path d="M27.0286 20.7888C26.0958 18.8051 24.5302 17.1925 22.581 16.208L23.4334 14.7225C23.4961 14.6137 23.5369 14.4935 23.5534 14.3688C23.5699 14.2441 23.5617 14.1174 23.5294 13.9959C23.4971 13.8743 23.4413 13.7604 23.3652 13.6606C23.2891 13.5609 23.1941 13.4772 23.0858 13.4144L24.7524 10.5107L25.1096 9.88775C25.1417 9.83244 25.1507 9.76658 25.1346 9.70461C25.1186 9.64263 25.0787 9.5896 25.0239 9.55712L23.9905 8.95816C23.8812 8.89556 23.7517 8.87907 23.6304 8.9123C23.509 8.94552 23.4057 9.02576 23.3429 9.13545C23.3006 9.20821 23.2776 9.29073 23.2763 9.37504C23.2762 9.45941 23.2982 9.54232 23.34 9.61548C23.3817 9.68863 23.4419 9.74947 23.5143 9.79191L21.7858 12.8059C21.6187 12.8059 21.4546 12.8502 21.31 12.9343C21.1654 13.0184 21.0454 13.1394 20.962 13.285L19.8143 15.288C19.2159 15.1774 18.6085 15.1229 18.0001 15.125C16.7727 15.1204 15.5546 15.3396 14.4048 15.7719L14.4143 15.7863L14.6382 16.1792L15.8572 18.3019H15.862L15.8667 18.3211L16.9715 20.2425L17.3334 20.875L21.9715 28.9586C22.1749 28.7048 22.2859 28.3886 22.2858 28.0625V19.3752C23.4125 20.1973 24.263 21.3457 24.7239 22.6671C25.0043 23.4773 25.146 24.3296 25.1429 25.1875C25.1429 25.5688 25.2934 25.9344 25.5613 26.204C25.8293 26.4736 26.1926 26.625 26.5715 26.625C26.9504 26.625 27.3137 26.4736 27.5816 26.204C27.8496 25.9344 28.0001 25.5688 28.0001 25.1875C28.0054 23.6668 27.6735 22.1641 27.0286 20.7888ZM19.9048 20.3959C19.7165 20.3959 19.5323 20.3397 19.3757 20.2344C19.2191 20.1291 19.097 19.9794 19.0249 19.8043C18.9529 19.6292 18.934 19.4365 18.9707 19.2506C19.0075 19.0647 19.0982 18.8939 19.2314 18.7599C19.3646 18.6259 19.5343 18.5346 19.719 18.4976C19.9038 18.4606 20.0953 18.4796 20.2693 18.5522C20.4433 18.6247 20.5921 18.7475 20.6967 18.9051C20.8013 19.0627 20.8572 19.248 20.8572 19.4375C20.8565 19.6915 20.7559 19.9348 20.5774 20.1143C20.399 20.2939 20.1572 20.3951 19.9048 20.3959ZM14.5239 18.8482L13.7191 17.449L13.1096 16.3852L13.1048 16.3757C11.2995 17.3719 9.85289 18.9164 8.97149 20.7888C8.32661 22.1641 7.99474 23.6668 8.00006 25.1875C8.00006 25.5688 8.15057 25.9344 8.41848 26.204C8.68639 26.4736 9.04975 26.625 9.42863 26.625C9.80752 26.625 10.1709 26.4736 10.4388 26.204C10.7067 25.9344 10.8572 25.5688 10.8572 25.1875C10.8541 24.3296 10.9958 23.4773 11.2763 22.6671C11.7371 21.3457 12.5877 20.1973 13.7143 19.3752V28.0625C13.7141 28.2514 13.7509 28.4384 13.8226 28.6129C13.8943 28.7875 13.9995 28.946 14.1322 29.0796C14.2649 29.2131 14.4225 29.319 14.5959 29.3911C14.7694 29.4633 14.9552 29.5003 15.1429 29.5H20.6334L14.5286 18.8625L14.5239 18.8482Z" fill="#344054"/>
</g>
<defs>
<clipPath id="clip0_5902_14242">
<rect width="20" height="23" fill="white" transform="translate(8 6.5)"/>
</clipPath>
</defs>
</svg>
