<svg width="20" height="24" viewBox="0 0 20 24" fill="none" xmlns="http://www.w3.org/2000/svg">
<g clip-path="url(#clip0_5902_14119)">
<path d="M1.90476 9.12484C2.95673 9.12484 3.80952 8.26672 3.80952 7.20817C3.80952 6.14962 2.95673 5.2915 1.90476 5.2915C0.852791 5.2915 0 6.14962 0 7.20817C0 8.26672 0.852791 9.12484 1.90476 9.12484Z" fill="#344054"/>
<path d="M19.166 13.6474C17.9486 12.7066 16.4761 12.1599 14.9432 12.0794C13.4103 11.999 11.8893 12.3887 10.5813 13.197L6.54221 9.50264C7.28788 8.34763 7.66366 6.99032 7.61888 5.61372C7.52765 3.78207 6.74682 2.05407 5.43507 0.780849C5.34721 0.689319 5.24212 0.616311 5.12593 0.566085C5.00973 0.51586 4.88476 0.489423 4.75831 0.488317C4.63185 0.487212 4.50644 0.511459 4.3894 0.559645C4.27235 0.607831 4.16602 0.67899 4.0766 0.768971C3.98717 0.858951 3.91646 0.965951 3.86857 1.08373C3.82068 1.2015 3.79659 1.3277 3.79769 1.45494C3.79878 1.58219 3.82506 1.70794 3.87497 1.82486C3.92488 1.94178 3.99744 2.04753 4.0884 2.13593C5.04148 3.05107 5.62115 4.29095 5.71411 5.61324C5.71316 7.06177 5.33697 8.1442 4.56459 8.92189C4.55507 8.93147 4.54888 8.94249 4.54031 8.95208L3.50554 10.0527C2.84464 10.6759 2.31901 11.43 1.96171 12.2675C1.6044 13.1049 1.42315 14.0078 1.42935 14.9191C1.58262 16.6286 2.36037 18.2201 3.61221 19.3859C3.79183 19.5605 4.0324 19.6571 4.28212 19.6549C4.53183 19.6527 4.7707 19.5519 4.94728 19.3743C5.12385 19.1966 5.22402 18.9562 5.22619 18.7049C5.22836 18.4537 5.13236 18.2116 4.95888 18.0308C4.05015 17.1971 3.47228 16.0604 3.33221 14.831C3.31765 14.019 3.54143 13.2208 3.97554 12.5362L15.5451 23.2471C15.731 23.4193 15.9772 23.5101 16.2297 23.4996C16.4822 23.4891 16.7201 23.3781 16.8913 23.191C17.0624 23.0039 17.1527 22.7561 17.1422 22.5021C17.1318 22.248 17.0214 22.0086 16.8355 21.8364L10.3655 15.8468C12.0879 13.8971 15.4965 13.1491 17.9765 15.1448C18.1738 15.3036 18.4257 15.3769 18.6768 15.3487C18.9279 15.3206 19.1576 15.1932 19.3153 14.9946C19.473 14.796 19.5459 14.5426 19.5179 14.2899C19.4899 14.0373 19.3634 13.8062 19.166 13.6474ZM12.1427 5.29172C12.3321 5.29172 12.5138 5.216 12.6478 5.08121C12.7817 4.94642 12.857 4.7636 12.857 4.57297V1.21881C12.857 1.02818 12.7817 0.845366 12.6478 0.710574C12.5138 0.575783 12.3321 0.500057 12.1427 0.500057C11.9532 0.500057 11.7716 0.575783 11.6376 0.710574C11.5037 0.845366 11.4284 1.02818 11.4284 1.21881V4.57297C11.4284 4.7636 11.5037 4.94642 11.6376 5.08121C11.7716 5.216 11.9532 5.29172 12.1427 5.29172ZM19.2855 7.68756H15.9522C15.7628 7.68756 15.5811 7.76328 15.4471 7.89807C15.3132 8.03287 15.2379 8.21568 15.2379 8.40631C15.2379 8.59693 15.3132 8.77975 15.4471 8.91454C15.5811 9.04933 15.7628 9.12506 15.9522 9.12506H19.2855C19.475 9.12506 19.6567 9.04933 19.7906 8.91454C19.9246 8.77975 19.9998 8.59693 19.9998 8.40631C19.9998 8.21568 19.9246 8.03287 19.7906 7.89807C19.6567 7.76328 19.475 7.68756 19.2855 7.68756ZM15.5046 6.03922L17.8855 3.64339C18.0117 3.50714 18.0804 3.32693 18.0771 3.14072C18.0739 2.95452 17.9989 2.77686 17.868 2.64517C17.7372 2.51348 17.5606 2.43805 17.3756 2.43476C17.1905 2.43148 17.0114 2.5006 16.876 2.62756L14.4951 5.02339C14.4249 5.08919 14.3686 5.16854 14.3296 5.25671C14.2905 5.34487 14.2695 5.44005 14.2678 5.53656C14.2661 5.63306 14.2838 5.72892 14.3197 5.81842C14.3556 5.90792 14.4091 5.98922 14.4769 6.05747C14.5448 6.12572 14.6256 6.17953 14.7145 6.21567C14.8034 6.25182 14.8987 6.26958 14.9946 6.26787C15.0905 6.26617 15.1851 6.24505 15.2727 6.20576C15.3603 6.16648 15.4392 6.10984 15.5046 6.03922Z" fill="#344054"/>
</g>
<defs>
<clipPath id="clip0_5902_14119">
<rect width="20" height="23" fill="white" transform="translate(0 0.5)"/>
</clipPath>
</defs>
</svg>
