<svg width="25" height="24" viewBox="0 0 25 24" fill="none" xmlns="http://www.w3.org/2000/svg">
<path d="M12.3274 6.14222C13.4707 6.14222 14.3972 7.06871 14.3972 8.21203C14.3972 9.35536 13.4707 10.2818 12.3274 10.2818C11.1841 10.2818 10.2576 9.35536 10.2576 8.21203C10.2576 7.06871 11.1841 6.14222 12.3274 6.14222ZM12.3274 15.0128C15.2547 15.0128 18.3397 16.4519 18.3397 17.0827V18.1668H6.31507V17.0827C6.31507 16.4519 9.40008 15.0128 12.3274 15.0128ZM12.3274 4.26953C10.1492 4.26953 8.38488 6.0338 8.38488 8.21203C8.38488 10.3903 10.1492 12.1545 12.3274 12.1545C14.5056 12.1545 16.2699 10.3903 16.2699 8.21203C16.2699 6.0338 14.5056 4.26953 12.3274 4.26953ZM12.3274 13.1402C9.69576 13.1402 4.44238 14.4609 4.44238 17.0827V20.0395H20.2124V17.0827C20.2124 14.4609 14.959 13.1402 12.3274 13.1402Z" fill="#344054"/>
</svg>
