<svg width="24" height="24" viewBox="0 0 24 24" fill="none" xmlns="http://www.w3.org/2000/svg">
<g clip-path="url(#clip0_5902_14395)">
<path d="M17.2484 4.92822C13.5961 4.92822 10.8418 7.47114 10.8418 10.842C10.8418 11.1034 10.9456 11.3541 11.1305 11.5389C11.3153 11.7238 11.566 11.8276 11.8274 11.8276C12.0888 11.8276 12.3395 11.7238 12.5244 11.5389C12.7092 11.3541 12.813 11.1034 12.813 10.842C12.8153 10.1336 13.0157 9.44002 13.3917 8.83968C13.7677 8.23934 14.3042 7.75623 14.9405 7.44502L13.3128 16.6749C13.301 16.7455 13.3048 16.8177 13.3238 16.8867C13.3428 16.9557 13.3766 17.0197 13.4229 17.0743C13.4691 17.1288 13.5267 17.1727 13.5916 17.2028C13.6565 17.2329 13.7271 17.2485 13.7987 17.2485H14.7843V22.6695C14.7843 22.9309 14.8881 23.1816 15.073 23.3664C15.2578 23.5513 15.5085 23.6551 15.7699 23.6551C16.0313 23.6551 16.282 23.5513 16.4669 23.3664C16.6517 23.1816 16.7555 22.9309 16.7555 22.6695V17.2485H17.7412V22.6695C17.7412 22.9309 17.845 23.1816 18.0299 23.3664C18.2147 23.5513 18.4654 23.6551 18.7268 23.6551C18.9882 23.6551 19.2389 23.5513 19.4237 23.3664C19.6086 23.1816 19.7124 22.9309 19.7124 22.6695V17.2485H20.698C20.7696 17.2485 20.8403 17.2329 20.9052 17.2028C20.9701 17.1727 21.0276 17.1288 21.0739 17.0743C21.1201 17.0197 21.1539 16.9557 21.1729 16.8867C21.1919 16.8177 21.1957 16.7455 21.184 16.6749L19.602 7.46916C20.2265 7.78446 20.7515 8.26645 21.1189 8.86175C21.4863 9.45705 21.6818 10.1424 21.6837 10.842C21.6837 11.1034 21.7875 11.3541 21.9724 11.5389C22.1572 11.7238 22.4079 11.8276 22.6693 11.8276C22.9307 11.8276 23.1814 11.7238 23.3662 11.5389C23.5511 11.3541 23.6549 11.1034 23.6549 10.842C23.6549 7.47114 20.9006 4.92822 17.2484 4.92822Z" fill="black"/>
<path d="M17.2486 3.9425C18.3373 3.9425 19.2198 3.05994 19.2198 1.97125C19.2198 0.882559 18.3373 0 17.2486 0C16.1599 0 15.2773 0.882559 15.2773 1.97125C15.2773 3.05994 16.1599 3.9425 17.2486 3.9425Z" fill="black"/>
<path d="M6.15819 20.2046C5.96213 20.2046 5.77411 20.2825 5.63548 20.4211C5.49685 20.5597 5.41897 20.7478 5.41897 20.9438V22.9146C5.41897 23.1106 5.49685 23.2987 5.63548 23.4373C5.77411 23.5759 5.96213 23.6538 6.15819 23.6538C6.35424 23.6538 6.54226 23.5759 6.68089 23.4373C6.81952 23.2987 6.8974 23.1106 6.8974 22.9146V20.9433C6.8974 20.7473 6.81952 20.5593 6.68089 20.4206C6.54226 20.282 6.35424 20.2041 6.15819 20.2041V20.2046ZM11.5801 16.7564H9.60886C9.4128 16.7564 9.22478 16.8343 9.08615 16.9729C8.94752 17.1115 8.86964 17.2996 8.86964 17.4956C8.86964 17.6917 8.94752 17.8797 9.08615 18.0183C9.22478 18.157 9.4128 18.2348 9.60886 18.2348H11.5801C11.7762 18.2348 11.9642 18.157 12.1028 18.0183C12.2414 17.8797 12.3193 17.6917 12.3193 17.4956C12.3193 17.2996 12.2414 17.1115 12.1028 16.9729C11.9642 16.8343 11.7762 16.7564 11.5801 16.7564ZM6.16114 11.3345C5.96509 11.3345 5.77707 11.4124 5.63843 11.551C5.4998 11.6896 5.42192 11.8776 5.42192 12.0737V14.0444C5.42192 14.2405 5.4998 14.4285 5.63843 14.5672C5.77707 14.7058 5.96509 14.7837 6.16114 14.7837C6.35719 14.7837 6.54522 14.7058 6.68385 14.5672C6.82248 14.4285 6.90036 14.2405 6.90036 14.0444V12.0737C6.90036 11.8776 6.82248 11.6896 6.68385 11.551C6.54522 11.4124 6.35719 11.3345 6.16114 11.3345ZM3.44919 17.4927C3.44919 17.2966 3.37131 17.1086 3.23268 16.97C3.09405 16.8313 2.90603 16.7534 2.70998 16.7534H0.739219C0.543166 16.7534 0.355143 16.8313 0.216512 16.97C0.0778817 17.1086 0 17.2966 0 17.4927C0 17.6887 0.0778817 17.8767 0.216512 18.0154C0.355143 18.154 0.543166 18.2319 0.739219 18.2319H2.70998C2.90603 18.2319 3.09405 18.154 3.23268 18.0154C3.37131 17.8767 3.44919 17.6887 3.44919 17.4927ZM9.1466 19.4338C9.07797 19.3652 8.99648 19.3107 8.9068 19.2735C8.81711 19.2364 8.72098 19.2172 8.6239 19.2172C8.52682 19.2172 8.43068 19.2363 8.34098 19.2734C8.25127 19.3105 8.16976 19.365 8.1011 19.4336C8.03243 19.5022 7.97796 19.5837 7.94079 19.6734C7.90361 19.7631 7.88447 19.8592 7.88444 19.9563C7.88442 20.0534 7.90352 20.1495 7.94065 20.2392C7.97778 20.3289 8.03222 20.4104 8.10085 20.4791L9.58077 21.9595C9.71944 22.0982 9.90753 22.1761 10.1036 22.1761C10.2998 22.1761 10.4878 22.0982 10.6265 21.9595C10.7652 21.8208 10.8431 21.6328 10.8431 21.4366C10.8431 21.2405 10.7652 21.0524 10.6265 20.9138L9.1466 19.4338ZM9.14463 15.5544L10.625 14.0745C10.7637 13.9358 10.8416 13.7478 10.8416 13.5516C10.8416 13.3555 10.7637 13.1674 10.625 13.0288C10.4864 12.8901 10.2983 12.8122 10.1022 12.8122C9.90605 12.8122 9.71796 12.8901 9.57929 13.0288L8.09937 14.5087C7.9607 14.6473 7.88277 14.8353 7.88272 15.0314C7.88267 15.2274 7.96052 15.4155 8.09913 15.5542C8.23774 15.6929 8.42576 15.7708 8.62183 15.7708C8.8179 15.7709 9.00595 15.693 9.14463 15.5544ZM3.17421 15.5544C3.31288 15.6931 3.50096 15.771 3.69708 15.771C3.89319 15.771 4.08128 15.6931 4.21995 15.5544C4.35863 15.4158 4.43653 15.2277 4.43653 15.0316C4.43653 14.8354 4.35863 14.6474 4.21995 14.5087L2.74004 13.0288C2.67137 12.9601 2.58986 12.9056 2.50014 12.8685C2.41043 12.8313 2.31427 12.8122 2.21716 12.8122C2.12006 12.8122 2.0239 12.8313 1.93419 12.8685C1.84447 12.9056 1.76295 12.9601 1.69429 13.0288C1.62562 13.0974 1.57116 13.1789 1.534 13.2687C1.49683 13.3584 1.47771 13.4545 1.47771 13.5516C1.47771 13.6487 1.49683 13.7449 1.534 13.8346C1.57116 13.9243 1.62562 14.0058 1.69429 14.0745L3.17421 15.5544ZM3.17421 19.4338L1.69429 20.9138C1.55561 21.0524 1.47771 21.2405 1.47771 21.4366C1.47771 21.6328 1.55561 21.8208 1.69429 21.9595C1.83296 22.0982 2.02105 22.1761 2.21716 22.1761C2.41328 22.1761 2.60136 22.0982 2.74004 21.9595L4.21995 20.4791C4.29052 20.4109 4.3468 20.3293 4.3855 20.2391C4.4242 20.1489 4.44454 20.0519 4.44535 19.9537C4.44616 19.8556 4.42741 19.7582 4.39019 19.6674C4.35298 19.5766 4.29806 19.4941 4.22862 19.4247C4.15918 19.3553 4.07661 19.3005 3.98575 19.2633C3.89489 19.2262 3.79754 19.2075 3.69939 19.2084C3.60123 19.2093 3.50424 19.2298 3.41407 19.2686C3.3239 19.3074 3.24236 19.3637 3.17421 19.4343V19.4338Z" fill="black"/>
</g>
<defs>
<clipPath id="clip0_5902_14395">
<rect width="23.655" height="23.655" fill="white"/>
</clipPath>
</defs>
</svg>
