<svg width="20" height="20" viewBox="0 0 20 20" fill="none" xmlns="http://www.w3.org/2000/svg">
<g clip-path="url(#clip0_5902_14189)">
<path d="M15.0874 -0.00619065C15.1024 -0.00617165 15.1174 -0.00615265 15.1329 -0.00613315C15.1413 -0.0061909 15.1496 -0.00624852 15.1584 -0.00630815C15.1867 -0.00644065 15.2151 -0.00621552 15.2434 -0.00599315C15.2639 -0.0060149 15.2842 -0.00605865 15.3047 -0.00612315C15.3611 -0.00623527 15.4175 -0.0060344 15.4735 -0.0057844C15.5342 -0.0055694 15.5949 -0.0056419 15.656 -0.00567952C15.7612 -0.00570577 15.866 -0.00554827 15.9722 -0.00526702C16.1247 -0.00486077 16.276 -0.00473077 16.4285 -0.00466702C16.6747 -0.00455752 16.9222 -0.00422452 17.1685 -0.00375202C17.4085 -0.00329327 17.6485 -0.00293952 17.8885 -0.00272702C17.9032 -0.0027139 17.918 -0.00270077 17.9332 -0.00268727C18.0074 -0.00262202 18.082 -0.00255852 18.1557 -0.00249727C18.7707 -0.00197852 19.3857 -0.00109727 20.0057 1.52262e-05C20.0075 0.393765 20.0088 0.787515 20.0096 1.18127C20.0097 1.22777 20.0098 1.27427 20.0099 1.32127C20.0099 1.33052 20.0099 1.33977 20.0099 1.34927C20.0102 1.49927 20.0108 1.64927 20.0115 1.79927C20.0122 1.95302 20.0126 2.10677 20.0128 2.26052C20.0129 2.35539 20.0132 2.45052 20.0138 2.54552C20.0143 2.61827 20.0143 2.69052 20.0142 2.76427C20.0142 2.79414 20.0144 2.82402 20.0147 2.85389C20.0151 2.89464 20.015 2.93527 20.0148 2.97602C20.015 2.98789 20.0152 2.99977 20.0154 3.01202C20.0144 3.09052 20.0144 3.09052 19.9894 3.12152C19.9694 3.13802 19.9694 3.13802 19.9308 3.16377C19.9038 3.20027 19.9038 3.20027 19.88 3.24114C19.8359 3.31264 19.7889 3.38114 19.74 3.44864C19.726 3.46789 19.712 3.48702 19.698 3.50627C19.6911 3.51578 19.6842 3.52527 19.677 3.53514C19.6255 3.60614 19.5754 3.67764 19.5245 3.75014C19.5061 3.77627 19.4876 3.80252 19.4691 3.82864C19.4037 3.92077 19.3391 4.01364 19.2753 4.10739C19.2158 4.19477 19.1548 4.28114 19.0928 4.36614C19.0347 4.44614 18.9781 4.52739 18.9216 4.60864C18.8649 4.68977 18.8073 4.76989 18.7491 4.84989C18.7172 4.89364 18.6862 4.93777 18.6564 4.98239C18.6189 5.03914 18.5792 5.09427 18.5389 5.14864C18.4843 5.22377 18.4314 5.29989 18.3802 5.37739C18.3429 5.43302 18.3038 5.48727 18.2647 5.54114C18.2281 5.59202 18.1919 5.64327 18.1559 5.69489C18.1103 5.75964 18.0646 5.82364 18.0184 5.88864C17.9536 5.97927 17.8897 6.06989 17.8247 6.16114C17.7933 6.20564 17.7619 6.25014 17.7305 6.29489C17.7181 6.31264 17.7055 6.33027 17.6931 6.34802C17.618 6.45427 17.618 6.45427 17.5993 6.48052C17.5868 6.49814 17.5744 6.51577 17.5619 6.53352C17.5301 6.57877 17.4979 6.62402 17.4658 6.66852C17.2883 6.91852 17.1433 7.18102 17.007 7.45602C17.0011 7.46802 16.9951 7.48002 16.9889 7.49239C16.9176 7.63614 16.8464 7.77989 16.7814 7.92614C16.7761 7.938 16.7707 7.94989 16.7652 7.96214C16.6763 8.16589 16.6127 8.37964 16.5452 8.59089C16.5371 8.61614 16.5292 8.64139 16.521 8.66664C16.4994 8.73464 16.4779 8.80289 16.4564 8.87039C16.4426 8.91439 16.4285 8.95827 16.4147 9.00164C16.3175 9.30789 16.2209 9.61414 16.1272 9.92164C16.085 10.0591 16.0419 10.1966 15.9972 10.3329C15.956 10.4604 15.9158 10.5879 15.8758 10.7154C15.8698 10.7345 15.8638 10.7536 15.8578 10.7728C15.8547 10.7827 15.8516 10.7925 15.8484 10.8028C15.8222 10.8865 15.7958 10.9703 15.7693 11.054C15.6765 11.3478 15.5843 11.6428 15.493 11.9365C15.435 12.124 15.3768 12.3128 15.3155 12.499C15.2623 12.6628 15.2108 12.8265 15.1593 12.9903C15.1548 13.0044 15.1504 13.0185 15.1458 13.0331C15.0709 13.2706 14.997 13.5081 14.9245 13.7469C14.9206 13.7599 14.9167 13.7729 14.9127 13.7863C14.9051 13.8115 14.8976 13.8369 14.8902 13.8621C14.8356 14.0421 14.7577 14.2071 14.6164 14.3359C14.6064 14.3462 14.5963 14.3565 14.5859 14.3671C14.3909 14.5571 14.1347 14.6684 13.8597 14.6671C13.8456 14.6671 13.8313 14.667 13.8167 14.6669C13.5529 14.6612 13.3204 14.5635 13.1154 14.3981C13.1008 14.3869 13.1008 14.3869 13.0859 14.3754C12.9009 14.2241 12.7797 13.9716 12.7534 13.7354C12.7497 13.6811 12.7484 13.6271 12.748 13.5729C12.7478 13.56 12.7477 13.5471 12.7476 13.5339C12.7484 13.4583 12.7562 13.3851 12.7696 13.3114C12.7712 13.3021 12.7729 13.2929 12.7746 13.2833C12.7902 13.1984 12.8099 13.1145 12.8312 13.0308C12.838 13.0044 12.8446 12.9781 12.8512 12.9518C12.8608 12.9136 12.8704 12.8756 12.88 12.8376C13.2425 11.5989 13.2425 11.5989 13.2412 10.3376C13.2395 10.329 13.2378 10.3203 13.236 10.3113C13.1833 10.055 13.0635 9.84752 12.891 9.65002C12.8837 9.64173 12.8766 9.6334 12.8691 9.6249C12.4303 9.1574 11.6866 8.99615 11.0691 8.97365C9.86784 8.93827 8.76909 9.3174 7.39409 10.1374C7.38594 10.1427 7.37784 10.1479 7.36934 10.1534C7.09559 10.3309 6.83309 10.5296 6.58059 10.7371C6.57146 10.7447 6.56234 10.7523 6.55296 10.76C6.54379 10.7676 6.53459 10.7751 6.52521 10.783C6.46859 10.8296 6.41159 10.8758 6.35396 10.9205C6.3469 10.9261 6.33984 10.9316 6.33259 10.9373C6.29684 10.9653 6.26084 10.993 6.22484 11.0206C6.14296 11.0838 6.06484 11.1494 5.98984 11.2206C5.94871 11.2593 5.90659 11.2958 5.86234 11.3311C5.79684 11.3838 5.73484 11.4401 5.67359 11.4974C5.64046 11.5284 5.60659 11.5586 5.57271 11.5888C5.50384 11.6506 5.43771 11.715 5.37271 11.7813C5.35309 11.8009 5.33346 11.8205 5.31371 11.8401C5.25246 11.9014 5.19234 11.963 5.13621 12.0289C5.11059 12.0588 5.08384 12.0875 5.05721 12.1164C5.01609 12.1614 4.97659 12.2071 4.93846 12.2551C4.89646 12.3073 4.85234 12.3564 4.80596 12.4051C4.73884 12.4766 4.67846 12.5514 4.61971 12.6301C4.59971 12.6568 4.57946 12.683 4.55909 12.7093C4.44446 12.8568 4.33159 13.0055 4.22909 13.163C4.15359 13.2785 4.07659 13.3918 3.99159 13.5005L3.96996 13.528C3.81621 13.713 3.59746 13.8293 3.35871 13.8543C3.08996 13.8718 2.87246 13.7931 2.65371 13.638C2.64402 13.6313 2.63434 13.6246 2.62434 13.6178C2.61752 13.6121 2.61071 13.6064 2.60371 13.6005V13.5755C2.59661 13.5728 2.58946 13.5701 2.58221 13.5673C2.45471 13.4921 2.38721 13.306 2.34971 13.171C2.27921 12.8885 2.35001 12.6323 2.49346 12.3873C2.52884 12.3284 2.56584 12.2706 2.60334 12.2135C2.61126 12.2011 2.61921 12.1888 2.62734 12.176C2.69896 12.0659 2.77734 11.961 2.85609 11.856C2.87659 11.8285 2.89709 11.8009 2.91746 11.7734C2.99659 11.6669 3.07871 11.5621 3.16121 11.4596C3.18359 11.4319 3.20559 11.404 3.22759 11.376C3.27409 11.3178 3.32271 11.2613 3.37134 11.2048C3.40959 11.1604 3.44696 11.1154 3.48371 11.0698C3.53809 11.0028 3.59621 10.9398 3.65496 10.8773C3.70384 10.8249 3.75084 10.771 3.79746 10.716C3.80384 10.7085 3.81021 10.701 3.81684 10.6933C3.82229 10.6868 3.82772 10.6803 3.83334 10.6736C3.85371 10.6509 3.87509 10.6295 3.89659 10.608C3.91659 10.5881 3.93646 10.5681 3.95634 10.5481C3.99759 10.5068 4.03884 10.4653 4.08009 10.4239C4.09784 10.4061 4.11546 10.3884 4.13309 10.3706C4.15884 10.3448 4.18459 10.3189 4.21046 10.293C4.21822 10.2852 4.22596 10.2774 4.23396 10.2693C4.28109 10.2221 4.32971 10.1774 4.38021 10.1343C4.41496 10.1041 4.44821 10.0726 4.48171 10.0413C4.54184 9.98527 4.60371 9.93277 4.66796 9.88127C4.70734 9.8484 4.74459 9.81377 4.78184 9.77865C4.85646 9.70877 4.93434 9.6449 5.01559 9.58365C5.05196 9.55565 5.08809 9.52752 5.12421 9.49927C5.16246 9.4694 5.20084 9.43965 5.23909 9.41002C5.25509 9.39762 5.27109 9.38515 5.28696 9.37277C6.36071 8.53777 6.36071 8.53777 6.72446 8.41527C6.71621 8.39052 6.70796 8.36577 6.69946 8.34027C6.62084 8.34693 6.55571 8.3659 6.48196 8.39502C6.46509 8.4016 6.46509 8.4016 6.44784 8.40827C6.30159 8.4659 6.15659 8.5279 6.01159 8.59077C5.99884 8.59623 5.98621 8.6017 5.97309 8.60727C5.80684 8.67927 5.64184 8.75477 5.47684 8.83227C5.35984 8.88765 5.24184 8.94002 5.12309 8.98977C4.89309 9.08752 4.67059 9.19977 4.44559 9.31102C4.35971 9.35352 4.27309 9.39502 4.18684 9.43602C4.01434 9.51865 3.84184 9.60477 3.67059 9.68977C3.62684 9.71177 3.58296 9.73365 3.53934 9.75552C3.36309 9.84377 3.18559 9.93302 3.01184 10.0255C2.97621 10.0445 2.94046 10.0633 2.90471 10.0819C2.65596 10.2119 2.65596 10.2119 2.41096 10.3506C2.28096 10.427 2.14721 10.4969 2.01471 10.5669C1.97784 10.5865 1.94121 10.6065 1.90471 10.6268C1.79234 10.6884 1.68721 10.7376 1.56096 10.7643C1.55211 10.7661 1.54321 10.768 1.53421 10.7699C1.50959 10.7739 1.48596 10.7757 1.46096 10.7768C1.44846 10.7774 1.43596 10.7781 1.42309 10.7787C1.12934 10.7867 0.905585 10.6803 0.691835 10.485C0.535585 10.325 0.453086 10.0862 0.444336 9.86622C0.451061 9.60372 0.559461 9.36247 0.745586 9.17997C0.976836 8.96872 1.27809 8.83122 1.55059 8.68372C1.58446 8.66522 1.61834 8.64672 1.65221 8.62822C1.83721 8.52672 2.02471 8.42697 2.21096 8.32697C2.22185 8.32115 2.23271 8.31532 2.24396 8.30935C2.25367 8.30415 2.26334 8.29896 2.27346 8.2936C2.28152 8.28928 2.28959 8.28497 2.29784 8.28047C2.36984 8.24222 2.44159 8.20472 2.51534 8.16847C2.53296 8.15967 2.55059 8.15085 2.56834 8.1421C2.57744 8.13756 2.58659 8.13302 2.59596 8.12835C2.64221 8.10535 2.68834 8.0821 2.73471 8.05897C2.82959 8.01147 2.92471 7.96397 3.01971 7.91647C3.07659 7.88797 3.13346 7.8596 3.18971 7.8311C3.24546 7.8031 3.30121 7.77522 3.35721 7.74735C3.37809 7.73687 3.39909 7.72635 3.41996 7.71597C3.55746 7.64685 3.69621 7.57972 3.83621 7.51472C3.86096 7.50307 3.88571 7.49135 3.91046 7.4796C4.02171 7.42697 4.13421 7.37747 4.24671 7.32835C4.32434 7.2946 4.40046 7.25847 4.47546 7.22022C4.52896 7.19335 4.58334 7.16835 4.63796 7.14372C4.64965 7.13842 4.66134 7.13311 4.67334 7.1276C4.76221 7.08747 4.85209 7.04935 4.94209 7.0116C5.06134 6.9616 5.17959 6.9101 5.29834 6.8566C5.31584 6.84875 5.33321 6.84097 5.35071 6.8331C5.37509 6.82218 5.39946 6.81122 5.42384 6.80022C5.43784 6.7939 5.45196 6.7876 5.46634 6.7811C5.50046 6.7661 5.50046 6.7661 5.52459 6.73935C5.52667 6.70085 5.52667 6.70085 5.52459 6.66435C5.30209 6.6891 5.08084 6.72047 4.85959 6.75735C4.58709 6.8026 4.31459 6.84535 4.04209 6.88735C3.94009 6.9031 3.83834 6.91885 3.73584 6.9346C3.72451 6.93635 3.71321 6.9381 3.70146 6.9399C3.45896 6.97727 3.21771 7.01527 2.97521 7.05352C2.94571 7.05818 2.91621 7.06285 2.88671 7.06752C2.84021 7.07486 2.79371 7.08227 2.74671 7.08952C2.71996 7.09375 2.69334 7.09795 2.66659 7.10215C2.57946 7.1159 2.49284 7.13002 2.40534 7.1449C2.24034 7.1729 2.08034 7.19977 1.91284 7.19565C1.89721 7.19568 1.88146 7.19571 1.86534 7.19574C1.73409 7.19436 1.62659 7.16512 1.51034 7.10574L1.48434 7.09262C1.41046 7.05399 1.34684 7.00824 1.28559 6.95137C1.27691 6.94384 1.26821 6.93637 1.25934 6.92862C1.09684 6.77862 1.00684 6.55737 0.995586 6.33987C0.987273 6.06362 1.07959 5.82362 1.26684 5.61862C1.33471 5.54862 1.41434 5.49974 1.49809 5.45112L1.52534 5.43487C1.67284 5.35312 1.85534 5.33437 2.01909 5.30737C2.04434 5.30314 2.06959 5.29892 2.09484 5.29474C2.47609 5.23124 2.85734 5.17124 3.23734 5.11099C3.84859 5.01387 3.84859 5.01387 4.46109 4.91599C4.48571 4.91201 4.51021 4.90803 4.53484 4.90407C4.71234 4.87544 4.88984 4.84344 5.06734 4.81019C5.11009 4.80216 5.15284 4.79419 5.19609 4.78619C5.61484 4.70794 6.03234 4.62744 6.44609 4.53994C6.46171 4.53663 6.46171 4.53663 6.47771 4.53326C7.06146 4.40951 7.64146 4.26201 8.21521 4.09826C8.24784 4.08897 8.28034 4.07976 8.31296 4.07051C8.80671 3.93051 9.29671 3.77926 9.78796 3.61426C9.80659 3.60796 9.82509 3.60163 9.84371 3.59538C9.96246 3.55501 10.0812 3.51438 10.2 3.47326C10.2253 3.46448 10.2506 3.45576 10.276 3.44701C10.506 3.36763 10.7322 3.28201 10.9572 3.19201C11.0028 3.17376 11.0487 3.15563 11.0947 3.13776C11.6447 2.92401 12.1872 2.65526 12.6697 2.30651C12.6922 2.29013 12.715 2.27401 12.7377 2.25801C12.8371 2.18813 12.934 2.11551 13.0302 2.04051C13.0861 1.99751 13.1427 1.95563 13.2002 1.91426C13.2342 1.88726 13.2636 1.85751 13.2942 1.82676C13.3196 1.80488 13.345 1.78326 13.3707 1.76188C13.4362 1.70701 13.4995 1.65063 13.5632 1.59313C13.6191 1.54213 13.6758 1.49226 13.7345 1.44438C13.7691 1.41513 13.8002 1.38438 13.8321 1.35213C13.8496 1.33476 13.8671 1.31738 13.8846 1.30001C13.9116 1.27313 13.9386 1.24626 13.9656 1.21938C13.9797 1.20538 13.9938 1.19126 14.008 1.17726C14.079 1.10676 14.1492 1.03601 14.2142 0.959757C14.2395 0.930632 14.2671 0.903757 14.2946 0.876757C14.3171 0.852632 14.3396 0.828507 14.3618 0.804132C14.3679 0.797519 14.3739 0.790882 14.3802 0.784132C14.4195 0.741007 14.4581 0.697507 14.4962 0.652882C14.5323 0.611882 14.5696 0.571757 14.6066 0.531632C14.6456 0.489257 14.6837 0.446257 14.7215 0.402882C14.7448 0.376507 14.7687 0.350882 14.7928 0.325132C14.9253 0.183882 14.9253 0.183882 15.0353 0.0251316C15.0575 0.0021316 15.0575 0.0021316 15.0938 -0.0041184L15.0874 -0.00619065Z" fill="#344054"/>
<path d="M8.42503 15.0376C8.48503 15.0377 8.54515 15.0377 8.60503 15.0376C8.76503 15.0375 8.92378 15.0376 9.08378 15.0386C9.1489 15.039 9.21378 15.0393 9.27878 15.0392C9.33653 15.0391 9.39428 15.0393 9.45253 15.0399C9.47328 15.0401 9.4939 15.0401 9.51465 15.0399C9.68715 15.0387 9.68715 15.0387 9.7509 15.0937C9.76453 15.1085 9.77778 15.1237 9.79065 15.1392C9.80465 15.1528 9.8189 15.1663 9.83328 15.1797C9.84615 15.1924 9.85915 15.2053 9.8719 15.218C9.88195 15.2279 9.88195 15.2279 9.89215 15.2379C9.90878 15.2545 9.92478 15.2718 9.94065 15.2892V15.3142C9.94864 15.3175 9.95665 15.3209 9.9649 15.3243C9.99065 15.3392 9.99065 15.3392 10.0032 15.3767C10.0197 15.3855 10.0363 15.3937 10.0532 15.4017C10.0755 15.4208 10.0755 15.4208 10.0985 15.4436C10.1073 15.4522 10.116 15.4608 10.1252 15.4698C10.1394 15.4841 10.1394 15.4841 10.1539 15.4986C10.164 15.5086 10.1742 15.5186 10.1845 15.5288C10.2179 15.5619 10.2513 15.5952 10.2845 15.6283C10.3077 15.6513 10.3309 15.6744 10.354 15.6974C10.4025 15.7458 10.451 15.7942 10.499 15.8424C10.555 15.8983 10.6112 15.9542 10.6678 16.0099C10.7219 16.0636 10.7758 16.1173 10.8303 16.1712C10.8532 16.1941 10.8762 16.2169 10.8993 16.2397C10.9314 16.2716 10.9634 16.3036 10.9954 16.3357C11.0098 16.3498 11.0098 16.3498 11.0244 16.3642C11.0624 16.4027 11.0879 16.4289 11.1049 16.4809C11.1032 16.5294 11.0823 16.5459 11.0483 16.5797C11.0365 16.5918 11.0248 16.6038 11.0132 16.6159C11.0018 16.6277 10.9904 16.6394 10.9788 16.6516C10.933 16.7057 10.89 16.7619 10.8463 16.8178C10.7848 16.8974 10.7217 16.9741 10.6525 17.0478C10.5829 17.1226 10.5188 17.2016 10.4563 17.2828C10.3957 17.3608 10.3342 17.4366 10.2675 17.5091C10.228 17.5529 10.1912 17.5989 10.154 17.6453C10.1318 17.6726 10.1089 17.6989 10.0855 17.7252C10.0467 17.7691 10.0105 17.8148 9.97453 17.8614C9.8899 17.9701 9.80203 18.0752 9.70953 18.1764C9.65965 18.2313 9.61415 18.2887 9.56828 18.3477C9.4874 18.4516 9.40078 18.5514 9.31453 18.6502C9.19528 18.7852 9.19528 18.7852 9.08453 18.9277C9.0079 19.0317 8.92203 19.1277 8.83703 19.2252C8.76153 19.3114 8.68828 19.3989 8.61953 19.4902C8.57765 19.5453 8.53428 19.5992 8.49078 19.6527C8.4304 19.6473 8.4079 19.6242 8.3689 19.5792C8.36353 19.5731 8.35814 19.5669 8.35265 19.5606C8.30665 19.5077 8.2624 19.4531 8.2189 19.3981C8.1924 19.3659 8.16478 19.3352 8.13665 19.3046C8.0864 19.2494 8.04065 19.1918 7.9954 19.1333C7.9474 19.0716 7.89703 19.0122 7.8454 18.9533C7.8079 18.9099 7.77103 18.8661 7.7349 18.8221C7.69203 18.7692 7.64803 18.7173 7.60365 18.6658C7.54965 18.6031 7.49678 18.5396 7.4449 18.4758C7.4134 18.4374 7.38153 18.3994 7.3494 18.3616C7.34366 18.3548 7.33791 18.3481 7.33203 18.3411C7.3084 18.3133 7.2849 18.2856 7.26115 18.2577C7.19553 18.1806 7.13115 18.1027 7.0674 18.0239C7.0309 17.9787 6.99315 17.9344 6.95553 17.8902C6.91903 17.8473 6.88315 17.8041 6.84753 17.7602C6.80065 17.7026 6.7529 17.6459 6.70503 17.5889C6.66928 17.5468 6.63415 17.5043 6.59928 17.4614C6.55465 17.4064 6.5084 17.3531 6.46178 17.3002C6.4034 17.2334 6.34778 17.1652 6.29303 17.0952C6.24328 17.0312 6.19053 16.9702 6.13678 16.9089C6.0884 16.8537 6.04178 16.7974 5.99553 16.7402C5.97165 16.7114 5.94753 16.6832 5.9229 16.6551C5.91178 16.6423 5.91178 16.6423 5.9004 16.6294C5.88565 16.6127 5.8709 16.5961 5.85615 16.5794C5.84944 16.5718 5.84278 16.5642 5.83578 16.5563C5.82674 16.5461 5.82674 16.5461 5.81753 16.5358C5.80303 16.5166 5.80303 16.5166 5.79053 16.4791C5.80353 16.4584 5.80353 16.4584 5.82328 16.4368C5.82963 16.4298 5.83603 16.4227 5.84253 16.4154C5.87053 16.3862 5.89928 16.3577 5.92803 16.3291C5.94 16.3171 5.95203 16.3051 5.96403 16.2931C6.21778 16.0393 6.21778 16.0393 6.23528 16.0218C6.25178 16.0053 6.26815 15.9887 6.28465 15.9721C6.31603 15.9411 6.34853 15.9116 6.3814 15.8819C6.51265 15.7616 6.63765 15.6332 6.7639 15.5069C6.7984 15.4723 6.8329 15.4378 6.8674 15.4032C6.92803 15.3424 6.98853 15.2818 7.04865 15.2207C7.05829 15.211 7.0679 15.2013 7.0779 15.1914C7.089 15.1803 7.10015 15.1692 7.11153 15.1577C7.18778 15.0819 7.23553 15.0522 7.34403 15.0501C7.35484 15.0498 7.36565 15.0496 7.37678 15.0493C7.41315 15.0485 7.4494 15.0477 7.48578 15.047C7.50478 15.0466 7.50478 15.0466 7.52415 15.0462C7.82415 15.0401 8.12415 15.0396 8.4254 15.0398L8.42503 15.0376Z" fill="#344054"/>
<path d="M8.36261 12.3251C8.37798 12.3252 8.37798 12.3252 8.39373 12.3252C8.40487 12.3253 8.41598 12.3253 8.42748 12.3253C8.43915 12.3255 8.45086 12.3256 8.46286 12.3258C8.48036 12.3258 8.48036 12.3258 8.49836 12.3258C8.58536 12.3264 8.58536 12.3264 8.59961 12.3407C8.60086 12.3724 8.60131 12.4038 8.60122 12.4354C8.60124 12.4454 8.60127 12.4553 8.60129 12.4656C8.60134 12.4987 8.60131 12.5319 8.60126 12.5651C8.60127 12.5882 8.60129 12.6114 8.6013 12.6346C8.60132 12.6834 8.60129 12.7323 8.60123 12.7808C8.60116 12.8427 8.6012 12.9044 8.60128 12.9658C8.60132 13.0138 8.60131 13.0619 8.60128 13.1096C8.60127 13.1323 8.60128 13.1551 8.60131 13.1778C8.60147 13.3403 8.59608 13.5016 8.58706 13.6641C8.55143 13.6734 8.52031 13.6782 8.48343 13.6782C8.4735 13.6782 8.46356 13.6782 8.45331 13.6782C8.44306 13.6782 8.43281 13.6781 8.42218 13.6781C8.40656 13.6782 8.40656 13.6782 8.39068 13.6782C8.31368 13.6781 8.31368 13.6781 8.29956 13.664C8.29831 13.6322 8.29786 13.6007 8.29795 13.569C8.29792 13.559 8.2979 13.5491 8.29788 13.5387C8.29782 13.5055 8.29786 13.4722 8.2979 13.4391C8.29789 13.4159 8.29788 13.3927 8.29787 13.3695C8.29785 13.3206 8.29788 13.2717 8.29793 13.2232C8.298 13.1612 8.29796 13.0994 8.29789 13.037C8.29784 12.9889 8.29786 12.9407 8.29789 12.8932C8.2979 12.8705 8.29789 12.8476 8.29786 12.8249C8.29774 12.704 8.29927 12.5836 8.30436 12.4624C8.30474 12.4516 8.30512 12.4409 8.30551 12.4299C8.31032 12.33 8.31032 12.33 8.36263 12.3237L8.36261 12.3251Z" fill="#344054"/>
<path d="M4.83726 13.2875C4.87763 13.3006 4.89551 13.3179 4.92488 13.3483C4.93495 13.3585 4.94501 13.3688 4.95538 13.3794C4.96573 13.3902 4.97613 13.401 4.98676 13.4121C5.05138 13.4789 5.11551 13.5446 5.18676 13.6046C5.20751 13.6226 5.22726 13.6401 5.24551 13.6606V13.6856H5.27051V13.7106H5.29551V13.7356C5.30266 13.7387 5.30976 13.7418 5.31713 13.745C5.34988 13.763 5.37226 13.7841 5.39863 13.8106C5.41188 13.8238 5.41188 13.8238 5.42538 13.8371C5.44551 13.8606 5.44551 13.8606 5.44551 13.8856H5.47051V13.9106C5.48162 13.9154 5.48162 13.9154 5.49301 13.9203C5.52338 13.9372 5.53926 13.9542 5.56113 13.9809C5.59238 14.0181 5.62463 14.0527 5.65963 14.0864C5.70301 14.1296 5.73963 14.1702 5.77063 14.2227C5.7691 14.2657 5.75991 14.2831 5.73226 14.3163C5.71613 14.3311 5.71613 14.3311 5.69963 14.3461C5.68902 14.3561 5.67838 14.3661 5.66751 14.3764C5.63326 14.3977 5.63326 14.3977 5.59601 14.3979C5.55113 14.3827 5.52388 14.3621 5.48801 14.3312C5.47651 14.3214 5.46501 14.3117 5.45313 14.3017C5.39588 14.2502 5.39588 14.2502 5.37076 14.2227V14.1977H5.34576V14.1727C5.33416 14.168 5.33416 14.168 5.32226 14.1633C5.29126 14.1451 5.28376 14.1304 5.27076 14.0977H5.24576V14.0727C5.23863 14.0696 5.23151 14.0666 5.22413 14.0634C5.19076 14.0449 5.16801 14.0233 5.14088 13.9963C5.13017 13.9857 5.11951 13.975 5.10838 13.9641C5.09692 13.9527 5.08551 13.9411 5.07363 13.9294C5.06168 13.9175 5.04976 13.9056 5.03776 13.8938C5.01276 13.8689 4.98776 13.8439 4.96288 13.8189C4.93101 13.7869 4.89888 13.755 4.86676 13.7233C4.84201 13.6988 4.81751 13.6741 4.79288 13.6495C4.77538 13.632 4.75776 13.6146 4.74013 13.5971C4.72953 13.5865 4.71888 13.5758 4.70801 13.5648C4.69863 13.5554 4.68926 13.546 4.67963 13.5364C4.65776 13.5098 4.64788 13.4945 4.64551 13.4601C4.66976 13.4328 4.66976 13.4328 4.68726 13.4173C4.72263 13.3838 4.75188 13.3444 4.78226 13.3063C4.80801 13.285 4.80801 13.285 4.83751 13.2869L4.83726 13.2875Z" fill="#344054"/>
<path d="M12.05 13.2876C12.095 13.3107 12.1334 13.3401 12.1719 13.3727C12.1865 13.3848 12.1865 13.3848 12.2014 13.3972C12.2325 13.4338 12.2378 13.4518 12.2375 13.5001C12.2158 13.5352 12.1869 13.5626 12.1575 13.5915C12.1489 13.6003 12.1403 13.6091 12.1313 13.6182C12.1025 13.6473 12.0735 13.6761 12.0445 13.7048C12.0245 13.725 12.0045 13.7451 11.9845 13.7651C11.9425 13.8072 11.9004 13.8492 11.8583 13.8913C11.804 13.9451 11.7503 13.9991 11.697 14.0538C11.6558 14.0955 11.6143 14.1368 11.5728 14.1781C11.5529 14.198 11.533 14.2178 11.5132 14.2378C11.4855 14.2657 11.4575 14.2933 11.4295 14.3208C11.4214 14.3292 11.4132 14.3375 11.4048 14.3461C11.3483 14.4008 11.3483 14.4008 11.2969 14.401C11.2575 14.3862 11.2348 14.3682 11.2047 14.3391C11.1747 14.3105 11.1479 14.2865 11.1133 14.2633C11.1161 14.1928 11.162 14.1577 11.2094 14.1108C11.2181 14.1021 11.2269 14.0933 11.2359 14.0842C11.2648 14.0552 11.2939 14.0265 11.323 13.9977C11.3432 13.9777 11.3633 13.9576 11.3833 13.9376C11.4254 13.8956 11.4675 13.8536 11.5095 13.8113C11.5638 13.7576 11.6179 13.7037 11.672 13.6501C11.7235 13.5987 11.775 13.5475 11.827 13.4963C11.8369 13.4865 11.8468 13.4767 11.857 13.4666C11.8849 13.4388 11.9128 13.4112 11.9407 13.3836C11.9531 13.3712 11.9531 13.3712 11.9658 13.3585C11.9734 13.351 11.9809 13.3435 11.9888 13.3357C11.9954 13.3292 12.002 13.3226 12.0088 13.3158C12.0259 13.3005 12.0259 13.3005 12.0509 13.288L12.05 13.2876Z" fill="#344054"/>
</g>
<defs>
<clipPath id="clip0_5902_14189">
<rect width="20" height="20" fill="white"/>
</clipPath>
</defs>
</svg>
