<svg width="25" height="25" viewBox="0 0 25 25" fill="none" xmlns="http://www.w3.org/2000/svg">
<path d="M13.3133 6.95547V3.93945H11.342V6.95547C6.90672 7.44828 3.45703 11.2035 3.45703 15.7571C3.45703 16.8511 4.34409 17.7382 5.43814 17.7382H8.38516C8.38516 19.9164 10.1494 21.6807 12.3277 21.6807C14.5059 21.6807 16.2702 19.9164 16.2702 17.7382H19.2172C20.3112 17.7382 21.1983 16.8511 21.1983 15.7571C21.1983 11.2035 17.7486 7.44828 13.3133 6.95547ZM12.3277 19.7095C11.2435 19.7095 10.3564 18.8224 10.3564 17.7382H14.2989C14.2989 18.8224 13.4118 19.7095 12.3277 19.7095ZM5.42828 15.767C5.42828 11.9624 8.52314 8.86758 12.3277 8.86758C16.1322 8.86758 19.227 11.9624 19.227 15.767H5.42828Z" fill="#344054"/>
</svg>
