<svg width="20" height="20" viewBox="0 0 20 20" fill="none" xmlns="http://www.w3.org/2000/svg">
<path d="M9.0249 2.0498H9.1499V2.0748H9.2249V2.0998H9.2749V2.1248H9.2999V2.1498H9.3249V2.1998H9.3499V2.2498H9.3749V2.2998H9.3999V2.3998H9.4249V2.4998H9.4499V2.5998H9.4749V2.6998H9.4999V2.7998H9.5249V2.8998H9.5499V2.9998H9.5749V3.1248H9.5999V3.2248H9.6249V3.3248H9.6499V3.4248H9.6749V3.5248H9.6999V3.6248H9.7249V3.7248H9.7499V3.8248H9.7749V3.9248H9.7999V4.0498H9.8249V4.1248H9.8499V4.2498H9.8749V4.3498H9.8999V4.4498H9.9249V4.5498H9.9499V4.6498H9.9749V4.7498H9.9999V4.8498H10.0249V4.9498H10.0499V5.0498H10.0749V5.1498H10.0999V5.2498H10.1249V5.3498H10.1499V5.4498H10.1749V5.5748H10.1999V5.6748H10.2249V5.7498H10.2499V5.8748H10.2749V5.9748H10.2999V6.0748H10.3249V6.1998H10.3499V6.2748H10.3749V6.2998H10.4249V6.3248H10.4749V6.3498H10.5249V6.3748H10.5749V6.3998H10.5999V6.4248H10.6249V6.4498H10.6749V6.4748H10.6999V6.4998H10.7249V6.5498H10.7499V6.5748H10.7749V6.5998H10.7999V6.6498H10.8249V6.6998H10.8499V6.7748H10.8749V6.8498H10.8999V7.1248H10.8749V7.2248H10.8499V7.2748H10.8249V7.3248H10.7999V7.3748H10.7749V7.3998H10.7499V7.4498H10.7249V7.4748H10.6999V7.4998H10.6749V7.5998H10.6999V7.6998H10.7249V7.7748H10.7499V7.8748H10.7749V7.9998H10.7999V8.1248H10.7749V8.1998H10.7499V8.2498H10.7249V8.2748H10.6999V8.2998H10.6749V8.3248H10.6249V8.3498H10.5999V8.3748H10.4499V8.3498H10.3499V8.3248H10.3249V8.2998H10.2749V8.2748H10.2499V8.2248H10.2249V8.1998H10.1999V8.1498H10.1749V8.0498H10.1499V7.9498H10.1249V7.9248H10.0749V7.9498H10.0499V7.9748H9.9999V7.9998H9.9749V8.0248H9.9249V8.0498H9.8999V8.0748H9.8499V8.0998H9.8249V8.1248H9.7749V8.1498H9.7499V8.1748H9.6999V8.1998H9.6749V8.2248H9.6499V8.2498H9.5999V8.2748H9.5499V8.2998H9.5249V8.3248H9.4749V8.3498H9.4499V8.3748H9.3999V8.3998H9.3749V8.4248H9.3249V8.4498H9.2749V8.4748H9.2249V8.4998H9.1749V8.5248H9.1499V8.5498H9.0999V8.5748H9.0249V8.5998H8.9749V8.6248H8.9249V8.6498H8.8749V8.6748H8.7999V8.6998H8.7249V8.7248H8.6499V8.7498H8.5749V8.7748H8.4749V8.7998H8.3749V8.8248H8.2749V8.8498H8.1249V8.8748H7.9499V8.8998H7.0749V8.8748H6.8499V8.8498H6.7749V8.8748H6.7499V8.8998H6.7249V8.9748H6.6999V8.9998H6.6749V9.0498H6.6499V9.0998H6.6249V9.1498H6.5999V9.1998H6.5749V9.2498H6.5499V9.2998H6.5249V9.3498H6.4999V9.3998H6.4749V9.4498H6.4499V9.4748H6.4249V9.5248H6.3999V9.5748H6.3749V9.6248H6.3499V9.6748H6.3249V9.7248H6.2999V9.7498H6.2749V9.7998H6.2499V9.8498H6.2249V9.8998H6.1999V9.9498H6.1749V9.9998H6.1499V10.0498H6.1249V10.0998H6.0999V10.1248H6.0749V10.1748H6.0499V10.2248H6.0249V10.2748H5.9999V10.3248H5.9749V10.3748H5.9499V10.4248H5.9249V10.4748H5.8999V10.4998H5.8749V10.5498H5.8499V10.5998H5.8249V10.6498H5.7999V10.6998H5.7749V10.7498H5.7499V10.7998H5.7249V10.8498H5.6999V10.8998H5.6749V10.9498H5.6499V10.9748H5.6249V11.0248H5.5999V11.0748H5.5749V11.1248H5.5499V11.1748H5.5249V11.2248H5.4999V11.2498H5.4749V11.2998H5.4499V11.3498H5.4249V11.3998H5.3999V11.4498H5.3749V11.4998H5.3499V11.5498H5.3249V11.5998H5.2999V11.6248H5.2749V11.6748H5.2499V11.7248H5.2249V11.7748H5.1999V11.8248H5.1749V11.8748H5.1499V11.9248H5.1249V11.9748H5.0999V11.9998H5.0749V12.0748H5.0499V12.0998H5.0249V12.1498H4.9999V12.2248H5.0249V12.2498H5.0499V12.2748H5.0749V12.3248H5.0999V12.3498H5.1249V12.3748H5.1499V12.3998H5.1749V12.4248H5.1999V12.4748H5.2249V12.4998H5.2499V12.5248H5.2749V12.5498H5.2999V12.5748H5.3249V12.6248H5.3499V12.6498H5.3749V12.6748H5.3999V12.6998H5.4249V12.7248H5.4499V12.7748H5.4749V12.7998H5.4999V12.8248H5.5249V12.8498H5.5499V12.8748H5.5749V12.9248H5.5999V12.9498H5.6249V12.9748H5.6499V12.9998H5.6749V13.0248H5.6999V13.0748H5.7249V13.0998H5.7499V13.1248H5.7749V13.1748H5.7999V13.1998H5.8249V13.2498H5.8499V13.2748H5.8749V13.2998H5.8999V13.3498H5.9249V13.3748H5.9499V13.4248H5.9749V13.4748H5.9999V13.5248H6.0249V13.5498H6.0499V13.5998H6.0749V13.6498H6.0999V13.6998H6.1249V13.7498H6.1499V13.7998H6.1749V13.8498H6.1999V13.8998H6.2249V13.9748H6.2499V14.0248H6.2749V14.0998H6.2999V14.1748H6.3249V14.2498H6.3499V14.3248H6.3749V14.4248H6.3999V14.5248H6.4249V14.6498H6.4499V14.7748H6.4749V14.9248H6.4999V15.1248H6.5249V15.2748H6.5499V15.4498H6.5749V15.6498H6.5999V15.8498H6.6249V15.9998H6.6499V16.1748H6.6749V16.3998H6.6999V16.5498H6.7249V16.6998H6.7499V17.0998H6.7249V17.1998H6.6999V17.2498H6.6749V17.2998H6.6499V17.3498H6.6249V17.3748H6.5999V17.4248H6.5749V17.4498H6.5499V17.4748H6.5249V17.4998H6.4999V17.5248H6.4749V17.5498H6.4499V17.5748H6.4249V17.5998H6.3749V17.6248H6.3249V17.6498H6.2749V17.6748H6.1999V17.6998H6.0999V17.7248H5.7749V17.6998H5.6749V17.6748H5.5999V17.6498H5.5499V17.6248H5.4999V17.5998H5.4749V17.5748H5.4499V17.5498H5.3999V17.5248H5.3749V17.4998H5.3499V17.4748H5.3249V17.4498H5.2999V17.3998H5.2749V17.3748H5.2499V17.3248H5.2249V17.2998H5.1999V17.2248H5.1749V17.1748H5.1499V17.0748H5.1249V16.9248H5.0999V16.7498H5.0749V16.5748H5.0499V16.3998H5.0249V16.1998H4.9999V16.0248H4.9749V15.8498H4.9499V15.6498H4.9249V15.4748H4.8999V15.2748H4.8749V15.1248H4.8499V14.9748H4.8249V14.8748H4.7999V14.7748H4.7749V14.6998H4.7499V14.6498H4.7249V14.5748H4.6999V14.5248H4.6749V14.4498H4.6499V14.3998H4.6249V14.3748H4.5999V14.2998H4.5749V14.2748H4.5499V14.2248H4.5249V14.1748H4.4999V14.1498H4.4749V14.0998H4.4249V14.1498H4.3999V14.2498H4.3749V14.3248H4.3499V14.3998H4.3249V14.4748H4.2999V14.5498H4.2749V14.5998H4.2499V14.6748H4.2249V14.7498H4.1999V14.7998H4.1749V14.8498H4.1499V14.8998H4.1249V14.9498H4.0999V14.9998H4.0749V15.0498H4.0499V15.0998H4.0249V15.1498H3.9999V15.1748H3.9749V15.2248H3.9499V15.2748H3.9249V15.2998H3.8999V15.3498H3.8749V15.3748H3.8499V15.4248H3.8249V15.4498H3.7999V15.4748H3.7749V15.5248H3.7499V15.5498H3.7249V15.5998H3.6999V15.6248H3.6749V15.6498H3.6499V15.6748H3.6249V15.7248H3.5999V15.7498H3.5749V15.7748H3.5499V15.7998H3.5249V15.8498H3.4999V15.8748H3.4749V15.8998H3.4499V15.9248H3.4249V15.9748H3.3999V15.9998H3.3749V16.0248H3.3499V16.0498H3.3249V16.0998H3.2999V16.1248H3.2749V16.1498H3.2499V16.1998H3.2249V16.2248H3.1999V16.2498H3.1749V16.2748H3.1499V16.3248H3.1249V16.3498H3.0999V16.3748H3.0749V16.4248H3.0499V16.4498H3.0249V16.4748H2.9999V16.4998H2.9749V16.5498H2.9499V16.5748H2.9249V16.5998H2.8999V16.6248H2.8749V16.6748H2.8499V16.6998H2.8249V16.7248H2.7999V16.7498H2.7749V16.7998H2.7499V16.8248H2.7249V16.8498H2.6999V16.8748H2.6749V16.9248H2.6499V16.9498H2.6249V16.9748H2.5999V17.0248H2.5749V17.0498H2.5499V17.0748H2.5249V17.0998H2.4999V17.1498H2.4749V17.1748H2.4499V17.1998H2.4249V17.2248H2.3999V17.2748H2.3749V17.2998H2.3499V17.3248H2.3249V17.3498H2.2999V17.3998H2.2749V17.4248H2.2499V17.4498H2.2249V17.4748H2.1999V17.4998H2.1749V17.5248H2.1499V17.5498H2.1249V17.5748H2.0999V17.5998H2.0499V17.6248H1.9999V17.6498H1.9499V17.6748H1.8749V17.6998H1.7499V17.7248H1.4749V17.6998H1.3749V17.6748H1.2999V17.6498H1.2499V17.6248H1.1999V17.5998H1.1749V17.5748H1.1249V17.5498H1.0999V17.5248H1.0749V17.4998H1.0499V17.4748H1.0249V17.4498H0.999902V17.4248H0.974902V17.3748H0.949902V17.3498H0.924902V17.2998H0.899902V17.2498H0.874902V17.1998H0.849902V17.1248H0.824902V16.9998H0.799902V16.8498H0.824902V16.6998H0.849902V16.6248H0.874902V16.5748H0.899902V16.4998H0.924902V16.4748H0.949902V16.4248H0.974902V16.3998H0.999902V16.3748H1.0249V16.3248H1.0499V16.2998H1.0749V16.2748H1.0999V16.2498H1.1249V16.1998H1.1499V16.1748H1.1749V16.1498H1.1999V16.0998H1.2249V16.0748H1.2499V16.0498H1.2749V16.0248H1.2999V15.9748H1.3249V15.9498H1.3499V15.9248H1.3749V15.8998H1.3999V15.8498H1.4249V15.8248H1.4499V15.7998H1.4749V15.7748H1.4999V15.7248H1.5249V15.6998H1.5499V15.6748H1.5749V15.6248H1.5999V15.5998H1.6249V15.5748H1.6499V15.5498H1.6749V15.4998H1.6999V15.4748H1.7249V15.4498H1.7499V15.4248H1.7749V15.3748H1.7999V15.3498H1.8249V15.3248H1.8499V15.2748H1.8749V15.2498H1.8999V15.2248H1.9249V15.1998H1.9499V15.1498H1.9749V15.1248H1.9999V15.0998H2.0249V15.0748H2.0499V15.0248H2.0749V14.9998H2.0999V14.9748H2.1249V14.9498H2.1499V14.8998H2.1749V14.8748H2.1999V14.8498H2.2249V14.8248H2.2499V14.7748H2.2749V14.7498H2.2999V14.7248H2.3249V14.6998H2.3499V14.6498H2.3749V14.6248H2.3999V14.5998H2.4249V14.5498H2.4499V14.5248H2.4749V14.4748H2.4999V14.4498H2.5249V14.3998H2.5499V14.3748H2.5749V14.3248H2.5999V14.2748H2.6249V14.2498H2.6499V14.1998H2.6749V14.1498H2.6999V14.0748H2.7249V14.0248H2.7499V13.9748H2.7749V13.8998H2.7999V13.8248H2.8249V13.7248H2.8499V13.6248H2.8749V13.5248H2.8999V13.4248H2.9249V13.3248H2.9499V13.1998H2.9749V13.0998H2.9999V12.9998H3.0249V12.8998H3.0499V12.7748H3.0749V12.6748H3.0999V12.5498H3.1249V12.4998H3.0999V12.4498H3.0749V12.4248H3.0499V12.3998H3.0249V12.3748H2.9999V12.3498H2.9749V12.3248H2.9499V12.2748H2.9249V12.2498H2.8999V12.2248H2.8749V12.1998H2.8499V12.1748H2.8249V12.1248H2.7999V12.0998H2.7749V12.0498H2.7499V12.0248H2.7249V11.9748H2.6999V11.9248H2.6749V11.8748H2.6499V11.8248H2.6249V11.7748H2.5999V11.6998H2.5749V11.5998H2.5499V11.4498H2.5249V11.2248H2.5499V11.0498H2.5749V10.9748H2.5999V10.8748H2.6249V10.8248H2.6499V10.7498H2.6749V10.6998H2.6999V10.6248H2.7249V10.5748H2.7499V10.5248H2.7749V10.4748H2.7999V10.3998H2.8249V10.3498H2.8499V10.2748H2.8749V10.2248H2.8999V10.1498H2.9249V10.0998H2.9499V10.0498H2.9749V9.9998H2.9999V9.9248H3.0249V9.8748H3.0499V9.7998H3.0749V9.7498H3.0999V9.6748H3.1249V9.6248H3.1499V9.5748H3.1749V9.4998H3.1999V9.4498H3.2249V9.3748H3.2499V9.3248H3.2749V9.2748H3.2999V9.1998H3.3249V9.1498H3.3499V9.0748H3.3749V9.0248H3.3999V8.9748H3.4249V8.8998H3.4499V8.8498H3.4749V8.7998H3.4999V8.7248H3.5249V8.6748H3.5499V8.5998H3.5749V8.5498H3.5999V8.5248H3.5749V8.4998H3.5249V8.5248H3.4499V8.5498H3.3499V8.5748H3.2499V8.5998H3.1749V8.6248H3.1249V8.6498H3.0749V8.6748H3.0249V8.6998H2.9749V8.7248H2.9499V8.7498H2.9249V8.7748H2.8999V8.7998H2.8749V8.8248H2.8499V8.8498H2.8249V8.8748H2.7999V8.8998H2.7749V8.9248H2.7499V8.9498H2.7249V8.9748H2.6999V8.9998H2.6749V9.0248H2.6499V9.0748H2.6249V9.0998H2.5999V9.1248H2.5749V9.1498H2.5499V9.1748H2.5249V9.1998H2.4999V9.2248H2.4749V9.2498H2.4499V9.2748H2.4249V9.2998H2.3999V9.3248H2.3749V9.3748H2.3499V9.3998H2.3249V9.4248H2.2999V9.4498H2.2749V9.4748H2.2499V9.4998H2.2249V9.5248H2.1999V9.5498H2.1749V9.5748H2.1499V9.5998H2.1249V9.6498H2.0999V9.6748H2.0749V9.6998H2.0499V9.7248H2.0249V9.7498H1.9999V9.7748H1.9749V9.7998H1.9499V9.8248H1.9249V9.8498H1.8999V9.8748H1.8749V9.8998H1.8499V9.9248H1.8249V9.9748H1.7999V9.9998H1.7749V10.0248H1.7499V10.0498H1.7249V10.0748H1.6999V10.0998H1.6749V10.1248H1.6249V10.1498H1.5999V10.1748H1.5749V10.1998H1.5249V10.2248H1.4499V10.2498H1.3749V10.2748H1.0499V10.2498H0.949902V10.2248H0.899902V10.1998H0.849902V10.1748H0.799902V10.1498H0.774902V10.1248H0.749902V10.0998H0.724902V10.0748H0.699902V10.0498H0.674902V9.9998H0.649902V9.9748H0.624902V9.9248H0.599902V9.8748H0.574902V9.8248H0.549902V9.7248H0.524902V9.4248H0.549902V9.3498H0.574902V9.2998H0.599902V9.2248H0.624902V9.1998H0.649902V9.1498H0.674902V9.1248H0.699902V9.0748H0.724902V9.0498H0.749902V9.0248H0.774902V8.9998H0.799902V8.9748H0.824902V8.9498H0.849902V8.9248H0.874902V8.8998H0.899902V8.8748H0.924902V8.8498H0.949902V8.8248H0.974902V8.7998H0.999902V8.7748H1.0249V8.7248H1.0499V8.6998H1.0749V8.6748H1.0999V8.6498H1.1249V8.6248H1.1499V8.5998H1.1749V8.5748H1.1999V8.5498H1.2249V8.5248H1.2499V8.4998H1.2749V8.4748H1.2999V8.4248H1.3249V8.3998H1.3499V8.3748H1.3749V8.3498H1.3999V8.3248H1.4249V8.2998H1.4499V8.2748H1.4749V8.2498H1.4999V8.2248H1.5249V8.1998H1.5499V8.1748H1.5749V8.1248H1.5999V8.0998H1.6249V8.0748H1.6499V8.0498H1.6749V8.0248H1.6999V7.9998H1.7249V7.9748H1.7499V7.9498H1.7749V7.9248H1.7999V7.8748H1.8249V7.8498H1.8499V7.8248H1.8749V7.7998H1.8999V7.7748H1.9249V7.7498H1.9499V7.7248H1.9999V7.6998H2.0249V7.6748H2.0499V7.6498H2.0749V7.6248H2.1249V7.5998H2.1499V7.5748H2.1749V7.5498H2.2249V7.5248H2.2499V7.4998H2.2999V7.4748H2.3249V7.4498H2.3749V7.4248H2.4249V7.3998H2.4749V7.3748H2.5249V7.3498H2.5749V7.3248H2.6249V7.2998H2.6999V7.2748H2.7749V7.2498H2.8499V7.2248H2.9499V7.1998H3.0499V7.1748H3.1499V7.1498H3.2499V7.1248H3.3499V7.0998H3.4499V7.0748H3.5499V7.0498H3.6499V7.0248H3.7499V6.9998H3.8499V6.9748H3.9499V6.9498H4.0749V6.9248H4.1999V6.8998H4.3249V6.8748H4.4499V6.8498H4.5999V6.8248H4.8249V6.7998H5.1499V6.8248H5.2749V6.8498H5.3749V6.8748H5.4499V6.8998H5.4999V6.9248H5.5749V6.9498H5.6249V6.9748H5.6999V6.9998H5.7499V7.0248H5.8249V7.0498H5.8749V7.0748H5.9499V7.0998H5.9999V7.1248H6.0499V7.1498H6.1249V7.1748H6.1749V7.1998H6.2249V7.2248H6.2999V7.2498H6.3499V7.2748H6.4249V7.2998H6.4999V7.3248H6.5749V7.3498H6.6749V7.3748H6.7999V7.3998H6.9499V7.4248H7.1499V7.4498H7.4249V7.4748H7.7249V7.4498H7.9249V7.4248H8.0249V7.3998H8.1249V7.3748H8.1999V7.3498H8.2749V7.3248H8.3249V7.2998H8.3749V7.2748H8.4249V7.2498H8.4749V7.2248H8.5249V7.1998H8.5749V7.1748H8.6249V7.1498H8.6499V7.1248H8.6999V7.0998H8.7499V7.0748H8.7749V7.0498H8.7999V7.0248H8.8499V6.9998H8.8749V6.9748H8.9249V6.9498H8.9499V6.9248H8.9999V6.8998H9.0249V6.8748H9.0749V6.8498H9.0999V6.8248H9.1499V6.7998H9.1749V6.7748H9.1999V6.7498H9.2499V6.7248H9.2749V6.6998H9.3249V6.6748H9.3499V6.6498H9.3999V6.6248H9.4249V6.5998H9.4749V6.5748H9.4999V6.5498H9.5499V6.5248H9.5749V6.4998H9.6249V6.4748H9.6499V6.4498H9.6999V6.4248H9.7249V6.2998H9.6999V6.1748H9.6749V6.0498H9.6499V5.9498H9.6249V5.8498H9.5999V5.7498H9.5749V5.6498H9.5499V5.5498H9.5249V5.4498H9.4999V5.3248H9.4749V5.2498H9.4499V5.1248H9.4249V5.0248H9.3999V4.9248H9.3749V4.8248H9.3499V4.7248H9.3249V4.6248H9.2999V4.4998H9.2749V4.3998H9.2499V4.2998H9.2249V4.1998H9.1999V4.0998H9.1749V3.9998H9.1499V3.8998H9.1249V3.7998H9.0999V3.6748H9.0749V3.5748H9.0499V3.4748H9.0249V3.3748H8.9999V3.2748H8.9749V3.1748H8.9499V3.0748H8.9249V2.9748H8.8999V2.8748H8.8749V2.7748H8.8499V2.6748H8.8249V2.5748H8.7999V2.4498H8.7749V2.2748H8.7999V2.2248H8.8249V2.1748H8.8499V2.1498H8.8749V2.1248H8.9249V2.0998H8.9499V2.0748H9.0249V2.0498Z" fill="#344054"/>
<path d="M12.5998 4.75H12.9498V4.775H13.0248V4.8H13.0998V4.825H13.1498V4.85H13.1748V4.875H13.2248V4.9H13.2498V4.925H13.2748V4.95H13.2998V4.975H13.3248V5.025H13.3498V5.05H13.3748V5.1H13.3998V5.15H13.4248V5.2H13.4498V5.275H13.4748V6.175H13.4498V7.45H13.4748V7.55H13.4998V7.575H13.5248V7.6H13.5498V7.625H13.5998V7.65H13.6248V7.675H13.6498V7.7H13.6748V7.725H13.6998V7.75H13.7248V7.775H13.7748V7.8H13.7998V7.825H13.8248V7.85H13.8498V7.875H13.8998V7.9H13.9248V7.925H13.9748V7.95H13.9998V7.975H14.0498V8H14.0748V8.025H14.0998V8.05H14.1498V8.075H14.1748V8.1H14.2248V8.125H14.2498V8.15H14.2998V8.175H14.3498V8.2H14.3748V8.225H14.4248V8.25H14.4748V8.275H14.5248V8.3H14.5498V8.325H14.5998V8.35H14.6498V8.375H14.6998V8.4H14.7498V8.425H14.8248V8.45H17.0248V8.475H17.1498V8.5H17.2248V8.525H17.2998V8.55H17.3498V8.575H17.4248V8.6H17.4498V8.625H17.5248V8.65H17.5748V8.675H17.6248V8.7H17.6498V8.725H17.6998V8.75H17.7498V8.775H17.7998V8.8H17.8248V8.825H17.8748V8.85H17.8998V8.875H17.9498V8.9H17.9998V8.925H18.0248V8.95H18.0748V8.975H18.0998V9H18.1498V9.025H18.1748V9.05H18.1998V9.075H18.2498V9.1H18.2748V9.125H18.2998V9.15H18.3498V9.175H18.3748V9.2H18.3998V9.225H18.4498V9.25H18.4748V9.275H18.4998V9.3H18.5248V9.325H18.5748V9.35H18.5998V9.375H18.6248V9.4H18.6498V9.425H18.6748V9.45H18.6998V9.475H18.7498V9.5H18.7748V9.525H18.7998V9.55H18.8248V9.575H18.8498V9.6H18.8748V9.625H18.8998V9.65H18.9248V9.675H18.9498V9.7H18.9748V9.725H18.9998V9.75H19.0248V9.775H19.0498V9.8H19.0748V9.825H19.0998V9.875H19.1248V9.9H19.1498V9.925H19.1748V9.975H19.1998V10H19.2248V10.05H19.2498V10.075H19.2748V10.125H19.2998V10.175H19.3248V10.25H19.3498V10.3H19.3748V10.4H19.3998V10.525H19.4248V10.675H19.4498V10.975H19.4748V12.1H19.4498V12.375H19.4248V12.5H19.3998V12.55H19.3748V12.6H19.3498V12.65H19.3248V12.7H19.2998V12.725H19.2748V12.75H19.2498V12.775H19.2248V12.8H19.1998V12.825H19.1748V12.85H19.1498V12.875H19.0998V12.9H19.0498V12.925H18.9748V12.95H18.8998V12.975H18.5748V12.95H18.4998V12.925H18.4248V12.9H18.3748V12.875H18.3498V12.85H18.3248V12.825H18.2748V12.8H18.2498V12.775H18.2248V12.75H18.1998V12.7H18.1748V12.675H18.1498V12.625H18.1248V12.6H18.0998V12.525H18.0748V12.45H18.0498V11H18.0248V10.8H17.9998V10.725H17.9748V10.7H17.9498V10.675H17.9248V10.65H17.8998V10.625H17.8748V10.6H17.8498V10.575H17.7998V10.55H17.7748V10.525H17.7498V10.5H17.7248V10.475H17.6748V10.45H17.6498V10.425H17.6248V10.4H17.5748V10.375H17.5498V10.35H17.5248V10.325H17.4998V10.3H17.4498V10.275H17.4248V10.25H17.3998V10.225H17.3748V10.2H17.2998V10.375H17.2748V10.575H17.2498V10.8H17.2248V11H17.1998V11.175H17.1748V11.375H17.1498V11.6H17.1248V11.8H17.0998V11.95H17.0748V12.15H17.0498V12.325H17.0248V12.45H16.9998V12.6H16.9748V12.75H16.9498V12.875H16.9248V13H16.8998V13.075H16.8748V13.175H16.8498V13.225H16.8248V13.3H16.7998V13.35H16.7748V13.4H16.7498V13.45H16.7248V13.5H16.6998V13.55H16.6748V13.575H16.6498V13.625H16.6248V13.675H16.5998V13.7H16.5748V13.75H16.5498V13.775H16.5248V13.8H16.4998V13.85H16.4748V13.875H16.4498V13.9H16.4248V13.95H16.3998V13.975H16.3748V14H16.3498V14.025H16.3248V14.075H16.2998V14.1H16.2748V14.125H16.2498V14.15H16.2248V14.175H16.1998V14.225H16.1748V14.25H16.1498V14.275H16.1248V14.3H16.0998V14.325H16.0748V14.35H16.0498V14.4H16.0248V14.425H15.9998V14.45H15.9748V14.475H15.9498V14.5H15.9248V14.525H15.8998V14.55H15.8748V14.575H15.8498V14.6H15.8248V14.625H15.7998V14.675H15.7748V14.7H15.7498V14.725H15.7248V14.75H15.6998V14.775H15.6748V14.8H15.6498V14.825H15.6248V14.85H15.5998V14.875H15.5748V14.9H15.5498V14.925H15.5248V14.975H15.4998V15H15.4748V15.025H15.4498V15.075H15.4248V15.1H15.3998V15.125H15.3748V15.175H15.3498V15.2H15.3248V15.225H15.2998V15.325H15.3248V15.35H15.3498V15.375H15.3748V15.425H15.3998V15.45H15.4248V15.475H15.4498V15.525H15.4748V15.55H15.4998V15.575H15.5248V15.625H15.5498V15.65H15.5748V15.675H15.5998V15.7H15.6248V15.75H15.6498V15.775H15.6748V15.8H15.6998V15.825H15.7248V15.85H15.7498V15.875H15.7748V15.925H15.7998V15.95H15.8248V15.975H15.8498V16H15.8748V16.025H15.8998V16.05H15.9248V16.075H15.9498V16.1H15.9748V16.125H15.9998V16.15H16.0248V16.175H16.0498V16.2H16.0748V16.225H16.0998V16.275H16.1498V16.325H16.1748V16.35H16.1998V16.375H16.2498V16.425H16.2748V16.45H16.2998V16.475H16.3498V16.5H16.3748V16.55H16.3998V16.575H16.4248V16.6H16.4498V16.625H16.4748V16.65H16.4998V16.7H16.5248V16.75H16.5498V16.775H16.5748V16.85H16.5998V16.925H16.6248V17.05H16.6498V17.2H16.6248V17.3H16.5998V17.375H16.5748V17.45H16.5498V17.5H16.5248V17.525H16.4998V17.575H16.4748V17.6H16.4498V17.625H16.4248V17.675H16.3998V17.7H16.3748V17.725H16.3498V17.75H16.2998V17.775H16.2748V17.8H16.2248V17.825H16.1998V17.85H16.1498V17.875H16.0498V17.9H15.9498V17.925H15.6748V17.9H15.5748V17.875H15.4998V17.85H15.4498V17.825H15.3998V17.8H15.3748V17.775H15.3248V17.75H15.2998V17.725H15.2748V17.7H15.2498V17.675H15.1998V17.65H15.1748V17.625H15.1498V17.6H15.1248V17.575H15.0998V17.55H15.0748V17.525H15.0498V17.5H15.0248V17.475H14.9998V17.45H14.9748V17.425H14.9498V17.4H14.9248V17.375H14.8998V17.35H14.8748V17.325H14.8498V17.3H14.8248V17.275H14.7998V17.225H14.7748V17.2H14.7498V17.175H14.7248V17.15H14.6998V17.125H14.6748V17.1H14.6498V17.075H14.6248V17.05H14.5998V17.025H14.5748V17H14.5498V16.975H14.5248V16.925H14.4998V16.9H14.4748V16.875H14.4498V16.85H14.4248V16.825H14.3998V16.8H14.3748V16.75H14.3498V16.725H14.3248V16.7H14.2998V16.675H14.2748V16.625H14.2498V16.6H14.2248V16.575H14.1998V16.525H14.1748V16.5H14.1498V16.475H14.1248V16.425H14.0998V16.4H14.0748V16.35H14.0498V16.325H14.0248V16.3H13.9998V16.25H13.9748V16.2H13.9498V16.175H13.9248V16.125H13.8998V16.075H13.8748V16.05H13.8498V16H13.8248V15.95H13.7998V15.9H13.7748V15.85H13.7498V15.8H13.7248V15.725H13.6998V15.65H13.6748V15.575H13.6498V15.475H13.6248V15.05H13.6498V14.925H13.6748V14.875H13.6998V14.775H13.7248V14.725H13.7498V14.675H13.7748V14.625H13.7998V14.575H13.8248V14.525H13.8498V14.475H13.8748V14.45H13.8998V14.4H13.9248V14.375H13.9498V14.325H13.9748V14.3H13.9998V14.25H14.0248V14.225H14.0498V14.175H14.0748V14.15H14.0998V14.125H14.1248V14.075H14.1498V14.05H14.1748V14H14.0498V14.025H13.8748V14.05H13.7248V14.075H13.5748V14.1H13.4248V14.125H13.2748V14.15H13.1248V14.175H12.9748V14.2H12.8748V14.225H12.8498V14.25H12.8248V14.325H12.7998V14.375H12.7748V14.45H12.7498V14.5H12.7248V14.55H12.6998V14.6H12.6748V14.675H12.6498V14.725H12.6248V14.8H12.5998V14.875H12.5748V14.95H12.5498V15.025H12.5248V15.075H12.4998V15.15H12.4748V15.225H12.4498V15.3H12.4248V15.375H12.3998V15.45H12.3748V15.55H12.3498V15.625H12.3248V15.725H12.2998V15.8H12.2748V15.875H12.2498V15.975H12.2248V16.05H12.1998V16.15H12.1748V16.25H12.1498V16.35H12.1248V16.425H12.0998V16.525H12.0748V16.625H12.0498V16.725H12.0248V16.825H11.9998V16.925H11.9748V17.075H11.9498V17.175H11.9248V17.275H11.8998V17.35H11.8748V17.425H11.8498V17.475H11.8248V17.525H11.7998V17.55H11.7748V17.6H11.7498V17.625H11.7248V17.675H11.6998V17.7H11.6748V17.725H11.6498V17.75H11.5998V17.775H11.5748V17.8H11.5248V17.825H11.4748V17.85H11.4248V17.875H11.3498V17.9H11.2248V17.925H10.9498V17.9H10.8498V17.875H10.7998V17.85H10.7498V17.825H10.6998V17.8H10.6498V17.775H10.6248V17.75H10.5998V17.725H10.5748V17.7H10.5498V17.675H10.5248V17.65H10.4998V17.625H10.4748V17.6H10.4498V17.55H10.4248V17.525H10.3998V17.475H10.3748V17.425H10.3498V17.35H10.3248V17.25H10.2998V17.025H10.3248V16.875H10.3498V16.75H10.3748V16.65H10.3998V16.525H10.4248V16.425H10.4498V16.3H10.4748V16.225H10.4998V16.125H10.5248V16.025H10.5498V15.925H10.5748V15.825H10.5998V15.725H10.6248V15.625H10.6498V15.525H10.6748V15.45H10.6998V15.35H10.7248V15.275H10.7498V15.175H10.7748V15.1H10.7998V15.025H10.8248V14.925H10.8498V14.85H10.8748V14.775H10.8998V14.7H10.9248V14.625H10.9498V14.55H10.9748V14.5H10.9998V14.425H11.0248V14.35H11.0498V14.275H11.0748V14.225H11.0998V14.15H11.1248V14.1H11.1498V14.025H11.1748V13.975H11.1998V13.9H11.2248V13.85H11.2498V13.8H11.2748V13.75H11.2998V13.7H11.3248V13.65H11.3498V13.6H11.3748V13.55H11.3998V13.5H11.4248V13.45H11.4498V13.425H11.4748V13.375H11.4998V13.325H11.5248V13.3H11.5498V13.25H11.5748V13.225H11.5998V13.175H11.6248V13.15H11.6498V13.1H11.6748V13.075H11.6998V13.05H11.7248V13.025H11.7498V13H11.7748V12.975H11.7998V12.925H11.8248V12.9H11.8498V12.875H11.8998V12.85H11.9248V12.825H11.9498V12.8H11.9748V12.775H12.0248V12.75H12.0748V12.725H12.1248V12.7H12.1998V12.675H12.2748V12.65H12.3998V12.625H12.5248V12.6H12.6498V12.575H12.7998V12.55H12.9748V12.525H13.1248V12.5H13.2748V12.475H13.4248V12.45H13.5998V12.425H13.7748V12.4H13.8998V12.375H13.9248V12.35H13.9498V12.225H13.9748V12.075H13.9998V11.9H14.0248V11.725H14.0498V11.55H14.0748V11.4H14.0998V11.225H14.1248V11.05H14.1498V10.85H14.1748V10.7H14.1998V10.525H14.2248V10.35H14.2498V10.175H14.2748V10.025H14.2998V9.825H14.3248V9.75H14.2998V9.725H14.2498V9.7H14.1498V9.675H14.0998V9.65H14.0498V9.625H13.9998V9.6H13.9498V9.575H13.8998V9.55H13.8498V9.525H13.7998V9.5H13.7498V9.475H13.6998V9.45H13.6498V9.425H13.6248V9.4H13.5748V9.375H13.5248V9.35H13.4998V9.325H13.4498V9.3H13.4248V9.275H13.3748V9.25H13.3248V9.225H13.2998V9.2H13.2498V9.175H13.2248V9.15H13.1748V9.125H13.1498V9.1H13.1248V9.075H13.0748V9.05H13.0498V9.025H13.0248V9H12.9748V8.975H12.9498V8.95H12.9248V8.925H12.8748V8.9H12.8498V8.875H12.8248V8.85H12.7998V8.825H12.7748V8.8H12.7498V8.775H12.6998V8.75H12.6748V8.725H12.6498V8.7H12.6248V8.675H12.5998V8.65H12.5748V8.625H12.5498V8.6H12.5248V8.575H12.4998V8.55H12.4748V8.525H12.4498V8.5H12.4248V8.475H12.3998V8.45H12.3748V8.4H12.3498V8.375H12.3248V8.35H12.2998V8.3H12.2748V8.275H12.2498V8.25H12.2248V8.2H12.1998V8.175H12.1748V8.125H12.1498V8.075H12.1248V8.025H12.0998V7.95H12.0748V7.825H12.0498V7.65H12.0248V7.1H11.9998V6.8H12.0248V5.925H12.0498V5.375H12.0748V5.275H12.0998V5.175H12.1248V5.125H12.1498V5.1H12.1748V5.05H12.1998V5.025H12.2248V5H12.2498V4.95H12.2748V4.925H12.3248V4.9H12.3498V4.875H12.3748V4.85H12.4248V4.825H12.4748V4.8H12.5248V4.775H12.5998V4.75Z" fill="#344054"/>
<path d="M15.725 4.875H16V4.9H16.15V4.925H16.275V4.95H16.375V4.975H16.425V5H16.5V5.025H16.55V5.05H16.6V5.075H16.65V5.1H16.675V5.125H16.725V5.15H16.75V5.175H16.8V5.2H16.825V5.225H16.85V5.25H16.9V5.275H16.925V5.3H16.95V5.325H16.975V5.35H17V5.375H17.025V5.4H17.05V5.425H17.075V5.475H17.1V5.5H17.125V5.525H17.15V5.575H17.175V5.6H17.2V5.65H17.225V5.675H17.25V5.725H17.275V5.775H17.3V5.825H17.325V5.9H17.35V5.95H17.375V6.025H17.4V6.125H17.425V6.25H17.45V6.675H17.425V6.8H17.4V6.9H17.375V7H17.35V7.05H17.325V7.125H17.3V7.175H17.275V7.225H17.25V7.275H17.225V7.3H17.2V7.35H17.175V7.375H17.15V7.425H17.125V7.45H17.1V7.475H17.075V7.525H17.05V7.55H17.025V7.575H17V7.6H16.975V7.625H16.95V7.65H16.925V7.675H16.9V7.7H16.875V7.725H16.825V7.75H16.8V7.775H16.75V7.8H16.725V7.825H16.675V7.85H16.65V7.875H16.6V7.9H16.55V7.925H16.475V7.95H16.425V7.975H16.35V8H16.275V8.025H16.175V8.05H15.95V8.075H15.775V8.05H15.525V8.025H15.425V8H15.35V7.975H15.3V7.95H15.225V7.925H15.175V7.9H15.125V7.875H15.075V7.85H15.025V7.825H15V7.8H14.95V7.775H14.925V7.75H14.875V7.725H14.85V7.7H14.825V7.675H14.8V7.65H14.775V7.625H14.75V7.6H14.725V7.575H14.7V7.55H14.675V7.525H14.65V7.5H14.625V7.475H14.6V7.425H14.575V7.4H14.55V7.375H14.525V7.325H14.5V7.275H14.475V7.25H14.45V7.2H14.425V7.15H14.4V7.075H14.375V7.025H14.35V6.95H14.325V6.875H14.3V6.75H14.275V6.55H14.25V6.4H14.275V6.2H14.3V6.075H14.325V6H14.35V5.925H14.375V5.875H14.4V5.8H14.425V5.75H14.45V5.7H14.475V5.675H14.5V5.625H14.525V5.575H14.55V5.55H14.575V5.525H14.6V5.475H14.625V5.45H14.65V5.425H14.675V5.4H14.7V5.375H14.725V5.35H14.75V5.325H14.775V5.3H14.8V5.275H14.825V5.25H14.85V5.225H14.875V5.2H14.925V5.175H14.95V5.15H15V5.125H15.025V5.1H15.075V5.075H15.125V5.05H15.175V5.025H15.225V5H15.275V4.975H15.35V4.95H15.425V4.925H15.55V4.9H15.725V4.875Z" fill="#344054"/>
<path d="M6.425 3.75H7V3.775H7.125V3.8H7.2V3.825H7.275V3.85H7.325V3.875H7.375V3.9H7.425V3.925H7.475V3.95H7.525V3.975H7.55V4H7.6V4.025H7.625V4.05H7.65V4.075H7.7V4.1H7.725V4.125H7.75V4.15H7.775V4.175H7.8V4.2H7.825V4.225H7.85V4.25H7.875V4.275H7.9V4.3H7.925V4.325H7.95V4.375H7.975V4.4H8V4.45H8.025V4.475H8.05V4.525H8.075V4.575H8.1V4.625H8.125V4.675H8.15V4.725H8.175V4.8H8.2V4.875H8.225V4.95H8.25V5.075H8.275V5.525H8.25V5.65H8.225V5.75H8.2V5.825H8.175V5.9H8.15V5.95H8.125V6H8.1V6.05H8.075V6.1H8.05V6.15H8.025V6.175H8V6.225H7.975V6.25H7.95V6.275H7.925V6.325H7.9V6.35H7.875V6.375H7.85V6.4H7.825V6.425H7.8V6.45H7.775V6.475H7.75V6.5H7.725V6.525H7.675V6.55H7.65V6.575H7.625V6.6H7.575V6.625H7.55V6.65H7.5V6.675H7.45V6.7H7.4V6.725H7.35V6.75H7.3V6.775H7.225V6.8H7.15V6.825H7.05V6.85H6.925V6.875H6.475V6.85H6.325V6.825H6.225V6.8H6.175V6.775H6.1V6.75H6.05V6.725H6V6.7H5.95V6.675H5.9V6.65H5.85V6.625H5.825V6.6H5.775V6.575H5.75V6.55H5.725V6.525H5.7V6.5H5.65V6.475H5.625V6.45H5.6V6.425H5.575V6.4H5.55V6.375H5.525V6.35H5.5V6.3H5.475V6.275H5.45V6.25H5.425V6.2H5.4V6.175H5.375V6.125H5.35V6.075H5.325V6.05H5.3V5.975H5.275V5.925H5.25V5.875H5.225V5.825H5.2V5.725H5.175V5.625H5.15V5.475H5.125V5.15H5.15V4.975H5.175V4.9H5.2V4.8H5.225V4.75H5.25V4.675H5.275V4.625H5.3V4.575H5.325V4.525H5.35V4.5H5.375V4.45H5.4V4.425H5.425V4.375H5.45V4.35H5.475V4.325H5.5V4.275H5.525V4.25H5.55V4.225H5.575V4.2H5.6V4.175H5.625V4.15H5.65V4.125H5.675V4.1H5.7V4.075H5.75V4.05H5.775V4.025H5.8V4H5.85V3.975H5.9V3.95H5.925V3.925H5.975V3.9H6.025V3.875H6.075V3.85H6.15V3.825H6.2V3.8H6.3V3.775H6.425V3.75Z" fill="#344054"/>
</svg>
