<svg width="28" height="25" viewBox="0 0 28 25" fill="none" xmlns="http://www.w3.org/2000/svg">
<path d="M23 15.5C22.0697 15.5013 21.1627 15.7903 20.4031 16.3274C19.6436 16.8645 19.0688 17.6234 18.7575 18.5H7C6.07174 18.5 5.1815 18.1313 4.52513 17.4749C3.86875 16.8185 3.5 15.9283 3.5 15C3.5 14.0717 3.86875 13.1815 4.52513 12.5251C5.1815 11.8687 6.07174 11.5 7 11.5H19C20.4587 11.5 21.8576 10.9205 22.8891 9.88909C23.9205 8.85764 24.5 7.45869 24.5 6C24.5 4.54131 23.9205 3.14236 22.8891 2.11091C21.8576 1.07946 20.4587 0.5 19 0.5H7C6.60217 0.5 6.22064 0.658035 5.93934 0.93934C5.65803 1.22064 5.5 1.60218 5.5 2C5.5 2.39782 5.65803 2.77936 5.93934 3.06066C6.22064 3.34196 6.60217 3.5 7 3.5H19C19.663 3.5 20.2989 3.76339 20.7678 4.23223C21.2366 4.70107 21.5 5.33696 21.5 6C21.5 6.66304 21.2366 7.29893 20.7678 7.76777C20.2989 8.23661 19.663 8.5 19 8.5H7C5.27609 8.5 3.62279 9.18482 2.40381 10.4038C1.18482 11.6228 0.5 13.2761 0.5 15C0.5 16.7239 1.18482 18.3772 2.40381 19.5962C3.62279 20.8152 5.27609 21.5 7 21.5H18.7575C19.0325 22.2778 19.516 22.9651 20.1552 23.4866C20.7945 24.0082 21.5648 24.344 22.3819 24.4573C23.1991 24.5707 24.0317 24.4572 24.7888 24.1293C25.5458 23.8014 26.1981 23.2716 26.6744 22.598C27.1507 21.9244 27.4327 21.1328 27.4895 20.3098C27.5463 19.4867 27.3757 18.6639 26.9964 17.9313C26.6172 17.1986 26.0438 16.5843 25.3389 16.1555C24.6341 15.7267 23.825 15.5 23 15.5ZM23 21.5C22.7033 21.5 22.4133 21.412 22.1666 21.2472C21.92 21.0824 21.7277 20.8481 21.6142 20.574C21.5006 20.2999 21.4709 19.9983 21.5288 19.7074C21.5867 19.4164 21.7296 19.1491 21.9393 18.9393C22.1491 18.7296 22.4164 18.5867 22.7074 18.5288C22.9983 18.4709 23.2999 18.5007 23.574 18.6142C23.8481 18.7277 24.0824 18.92 24.2472 19.1666C24.412 19.4133 24.5 19.7033 24.5 20C24.5 20.3978 24.342 20.7794 24.0607 21.0607C23.7794 21.342 23.3978 21.5 23 21.5Z" fill="white"/>
</svg>
