<svg width="28" height="28" viewBox="0 0 28 28" fill="none" xmlns="http://www.w3.org/2000/svg">
<g clip-path="url(#clip0_5745_10380)">
<path d="M26.8509 8.16667H1.14926C1.07485 8.16628 1.00109 8.18065 0.932268 8.20895C0.863443 8.23725 0.800913 8.27891 0.748293 8.33153C0.695673 8.38415 0.654009 8.44668 0.62571 8.51551C0.597411 8.58433 0.58304 8.65809 0.583426 8.7325V19.2675C0.58304 19.3419 0.597411 19.4157 0.62571 19.4845C0.654009 19.5533 0.695673 19.6158 0.748293 19.6685C0.800913 19.7211 0.863443 19.7628 0.932268 19.791C1.00109 19.8193 1.07485 19.8337 1.14926 19.8333H26.8509C26.9253 19.8337 26.9991 19.8193 27.0679 19.791C27.1367 19.7628 27.1993 19.7211 27.2519 19.6685C27.3045 19.6158 27.3462 19.5533 27.3745 19.4845C27.4028 19.4157 27.4171 19.3419 27.4168 19.2675V8.7325C27.4171 8.65809 27.4028 8.58433 27.3745 8.51551C27.3462 8.44668 27.3045 8.38415 27.2519 8.33153C27.1993 8.27891 27.1367 8.23725 27.0679 8.20895C26.9991 8.18065 26.9253 8.16628 26.8509 8.16667ZM4.66676 15.75C4.32064 15.75 3.9823 15.6474 3.69451 15.4551C3.40673 15.2628 3.18242 14.9895 3.04997 14.6697C2.91752 14.3499 2.88286 13.9981 2.95039 13.6586C3.01791 13.3191 3.18458 13.0073 3.42932 12.7626C3.67406 12.5178 3.98588 12.3511 4.32535 12.2836C4.66482 12.2161 5.01669 12.2508 5.33646 12.3832C5.65623 12.5157 5.92954 12.74 6.12183 13.0278C6.31412 13.3155 6.41676 13.6539 6.41676 14C6.41707 14.2299 6.37201 14.4576 6.28417 14.6701C6.19634 14.8825 6.06745 15.0756 5.90488 15.2381C5.74232 15.4007 5.54928 15.5296 5.33682 15.6174C5.12436 15.7053 4.89666 15.7503 4.66676 15.75ZM14.0001 18.0833C13.1925 18.0833 12.403 17.8439 11.7315 17.3952C11.06 16.9465 10.5366 16.3088 10.2276 15.5626C9.91853 14.8165 9.83766 13.9955 9.99522 13.2034C10.1528 12.4113 10.5417 11.6837 11.1127 11.1126C11.6838 10.5416 12.4114 10.1527 13.2035 9.99513C13.9956 9.83757 14.8166 9.91843 15.5627 10.2275C16.3088 10.5365 16.9466 11.0599 17.3953 11.7314C17.8439 12.4029 18.0834 13.1924 18.0834 14C18.0838 14.5363 17.9785 15.0675 17.7734 15.5631C17.5683 16.0587 17.2675 16.509 16.8883 16.8882C16.5091 17.2675 16.0588 17.5682 15.5632 17.7733C15.0676 17.9784 14.5364 18.0837 14.0001 18.0833ZM23.3334 15.75C22.9873 15.75 22.649 15.6474 22.3612 15.4551C22.0734 15.2628 21.8491 14.9895 21.7166 14.6697C21.5842 14.3499 21.5495 13.9981 21.6171 13.6586C21.6846 13.3191 21.8512 13.0073 22.096 12.7626C22.3407 12.5178 22.6525 12.3511 22.992 12.2836C23.3315 12.2161 23.6833 12.2508 24.0031 12.3832C24.3229 12.5157 24.5962 12.74 24.7885 13.0278C24.9808 13.3155 25.0834 13.6539 25.0834 14C25.0837 14.2299 25.0387 14.4576 24.9508 14.6701C24.863 14.8825 24.7341 15.0756 24.5715 15.2381C24.409 15.4007 24.2159 15.5296 24.0035 15.6174C23.791 15.7053 23.5633 15.7503 23.3334 15.75ZM25.9584 23.9429H2.98734L3.80109 23.1292C3.88604 23.0488 3.95401 22.9522 4.00099 22.8451C4.04796 22.738 4.07299 22.6225 4.07459 22.5056C4.07619 22.3886 4.05432 22.2726 4.01029 22.1642C3.96626 22.0559 3.90096 21.9574 3.81824 21.8748C3.73552 21.7921 3.63707 21.7268 3.5287 21.6828C3.42033 21.6389 3.30424 21.6171 3.1873 21.6187C3.07035 21.6204 2.95493 21.6454 2.84784 21.6925C2.74076 21.7395 2.64419 21.8075 2.56384 21.8925L0.256176 24.1984C0.174768 24.2803 0.110339 24.3774 0.0665929 24.4843L0.0619263 24.4983C-0.0209676 24.7029 -0.0209676 24.9318 0.0619263 25.1364L0.0665929 25.1498C0.110353 25.2567 0.17478 25.3538 0.256176 25.4357L2.56384 27.7433C2.72894 27.9026 2.95001 27.9907 3.17944 27.9886C3.40886 27.9865 3.62828 27.8944 3.79043 27.7321C3.95259 27.5698 4.04451 27.3503 4.04639 27.1209C4.04828 26.8914 3.95998 26.6705 3.80051 26.5055L2.98734 25.6923H25.9584C26.1905 25.6923 26.413 25.6001 26.5771 25.4361C26.7412 25.272 26.8334 25.0494 26.8334 24.8173C26.8334 24.5853 26.7412 24.3627 26.5771 24.1986C26.413 24.0345 26.1905 23.9423 25.9584 23.9423V23.9429ZM27.9383 2.863L27.9336 2.84958C27.8898 2.74275 27.8254 2.64561 27.744 2.56375L25.4363 0.256082C25.2712 0.0967702 25.0502 0.00867787 24.8207 0.0107789C24.5913 0.01288 24.3719 0.105006 24.2098 0.267316C24.0476 0.429625 23.9557 0.64913 23.9538 0.878554C23.9519 1.10798 24.0402 1.32896 24.1997 1.49392L25.0128 2.30708H2.04176C1.8097 2.30708 1.58714 2.39927 1.42304 2.56336C1.25895 2.72746 1.16676 2.95002 1.16676 3.18208C1.16676 3.41415 1.25895 3.63671 1.42304 3.8008C1.58714 3.9649 1.8097 4.05708 2.04176 4.05708H25.0128L24.1991 4.87083C24.0426 5.0364 23.9568 5.2565 23.96 5.48433C23.9632 5.71216 24.0552 5.92975 24.2163 6.09082C24.3775 6.2519 24.5951 6.34376 24.823 6.34688C25.0508 6.34999 25.2708 6.26411 25.4363 6.1075L27.744 3.801C27.8254 3.71915 27.8899 3.62201 27.9336 3.51517L27.9383 3.50117C28.0211 3.29651 28.0211 3.06766 27.9383 2.863Z" fill="#1D2939"/>
</g>
<defs>
<clipPath id="clip0_5745_10380">
<rect width="28" height="28" fill="white"/>
</clipPath>
</defs>
</svg>
