<svg width="21" height="24" viewBox="0 0 21 24" fill="none" xmlns="http://www.w3.org/2000/svg">
<g clip-path="url(#clip0_5896_10074)">
<path d="M8.75 5C8.75 4.0111 8.49341 3.0444 8.01268 2.22215C7.53195 1.39991 6.84867 0.759043 6.04924 0.380605C5.24982 0.00216642 4.37015 -0.0968503 3.52148 0.0960759C2.67282 0.289002 1.89326 0.765206 1.28141 1.46447C0.669555 2.16373 0.252877 3.05465 0.0840664 4.02455C-0.084744 4.99446 0.00189562 5.99979 0.333029 6.91342C0.664162 7.82705 1.22492 8.60794 1.94438 9.15735C2.66385 9.70676 3.50971 10 4.375 10C5.53518 9.99947 6.64771 9.47252 7.46808 8.53495C8.28845 7.59738 8.74954 6.32592 8.75 5ZM6.43563 6.645C6.51759 6.73941 6.56359 6.86701 6.56359 7C6.56359 7.133 6.51759 7.2606 6.43563 7.355C6.35269 7.44796 6.24116 7.50003 6.125 7.50003C6.00884 7.50003 5.89731 7.44796 5.81438 7.355L4.375 5.71L2.93563 7.355C2.85269 7.44796 2.74116 7.50003 2.625 7.50003C2.50884 7.50003 2.39731 7.44796 2.31438 7.355C2.23241 7.2606 2.18642 7.133 2.18642 7C2.18642 6.86701 2.23241 6.73941 2.31438 6.645L3.75375 5L2.31438 3.355C2.23199 3.26085 2.18571 3.13315 2.18571 3C2.18571 2.86685 2.23199 2.73915 2.31438 2.645C2.39676 2.55085 2.50849 2.49796 2.625 2.49796C2.74151 2.49796 2.85324 2.55085 2.93563 2.645L4.375 4.29L5.81438 2.645C5.85517 2.59838 5.9036 2.5614 5.95689 2.53617C6.01019 2.51094 6.06731 2.49796 6.125 2.49796C6.18269 2.49796 6.23981 2.51094 6.29311 2.53617C6.34641 2.5614 6.39484 2.59838 6.43563 2.645C6.47642 2.69162 6.50878 2.74697 6.53085 2.80788C6.55293 2.86879 6.56429 2.93407 6.56429 3C6.56429 3.06593 6.55293 3.13122 6.53085 3.19213C6.50878 3.25304 6.47642 3.30838 6.43563 3.355L4.99625 5L6.43563 6.645Z" fill="white" fill-opacity="0.8"/>
<path d="M20.125 3.00001H9.78688C9.97007 3.64601 10.0631 4.32094 10.0625 5.00001C10.0629 5.33477 10.0409 5.66907 9.99688 6.00001H10.9375C11.0534 6.00041 11.1645 6.05321 11.2465 6.1469C11.3284 6.24058 11.3747 6.36753 11.375 6.50001V10.5C11.3747 10.6325 11.3284 10.7594 11.2465 10.8531C11.1645 10.9468 11.0534 10.9996 10.9375 11H9.1875C9.07157 10.9996 8.9605 10.9468 8.87852 10.8531C8.79655 10.7594 8.75035 10.6325 8.75 10.5V9.15001C8.26718 9.81685 7.67208 10.366 7 10.765V15H21V4.00001C20.9993 3.73504 20.9069 3.48115 20.743 3.29378C20.579 3.10642 20.3569 3.00081 20.125 3.00001ZM15.3125 10.5C15.3122 10.6325 15.2659 10.7594 15.184 10.8531C15.102 10.9468 14.9909 10.9996 14.875 11H13.125C13.0091 10.9996 12.898 10.9468 12.816 10.8531C12.7341 10.7594 12.6878 10.6325 12.6875 10.5V6.50001C12.6878 6.36753 12.7341 6.24058 12.816 6.1469C12.898 6.05321 13.0091 6.00041 13.125 6.00001H14.875C14.9909 6.00041 15.102 6.05321 15.184 6.1469C15.2659 6.24058 15.3122 6.36753 15.3125 6.50001V10.5ZM19.25 10.5C19.2497 10.6325 19.2034 10.7594 19.1215 10.8531C19.0395 10.9468 18.9284 10.9996 18.8125 11H17.0625C16.9466 10.9996 16.8355 10.9468 16.7535 10.8531C16.6716 10.7594 16.6253 10.6325 16.625 10.5V6.50001C16.6253 6.36753 16.6716 6.24058 16.7535 6.1469C16.8355 6.05321 16.9466 6.00041 17.0625 6.00001H18.8125C18.9284 6.00041 19.0395 6.05321 19.1215 6.1469C19.2034 6.24058 19.2497 6.36753 19.25 6.50001V10.5ZM9.625 2.00001H18.375C18.4899 2.00074 18.6037 1.97499 18.7097 1.92431C18.8157 1.87362 18.9117 1.79904 18.9919 1.70501C19.0741 1.61336 19.1394 1.50369 19.1838 1.38255C19.2281 1.26142 19.2506 1.13132 19.25 1.00001C19.2493 0.735041 19.1569 0.481146 18.993 0.293781C18.829 0.106416 18.6069 0.0008052 18.375 1.3837e-05H9.625C9.51011 -0.000684767 9.39628 0.0250768 9.29029 0.075761C9.18431 0.126445 9.08834 0.201013 9.00813 0.295014C8.87151 0.445723 8.78361 0.644882 8.75875 0.860014C9.00632 1.20272 9.22323 1.5729 9.40625 1.96501C9.4772 1.98923 9.55096 2.00103 9.625 2.00001ZM7 24H12.25V19C12.2507 18.735 12.3431 18.4811 12.507 18.2938C12.671 18.1064 12.8931 18.0008 13.125 18H14.875C15.1069 18.0008 15.329 18.1064 15.493 18.2938C15.6569 18.4811 15.7493 18.735 15.75 19V24H21V16H7V24Z" fill="white" fill-opacity="0.8"/>
</g>
<defs>
<clipPath id="clip0_5896_10074">
<rect width="21" height="24" fill="white"/>
</clipPath>
</defs>
</svg>
