<svg width="248" height="367" viewBox="0 0 248 367" fill="none" xmlns="http://www.w3.org/2000/svg">
<mask id="path-1-inside-1_5896_12195" fill="white">
<path fill-rule="evenodd" clip-rule="evenodd" d="M206.452 216.735C231.945 194.011 248 160.915 248 124.067C248 55.5466 192.483 0 124 0C55.5167 0 0 55.5466 0 124.067C0 160.731 15.895 193.68 41.1663 216.392C49.6622 234.196 55.947 251.459 56.5117 270.845C56.7579 279.296 63.1904 286.765 71.6458 286.765H177.478C186.058 286.765 192.56 279.076 192.79 270.499C193.264 252.788 198.653 235.225 206.452 216.735Z"/>
</mask>
<path d="M206.452 216.735L205.786 215.988L205.618 216.138L205.53 216.346L206.452 216.735ZM41.1663 216.392L42.0688 215.962L41.983 215.782L41.8347 215.649L41.1663 216.392ZM56.5117 270.845L57.5113 270.815L56.5117 270.845ZM192.79 270.499L193.789 270.526L192.79 270.499ZM247 124.067C247 160.618 231.075 193.447 205.786 215.988L207.117 217.481C232.814 194.576 249 161.212 249 124.067H247ZM124 1C191.931 1 247 56.0984 247 124.067H249C249 54.9948 193.036 -1 124 -1V1ZM1 124.067C1 56.0984 56.0695 1 124 1V-1C54.9639 -1 -1 54.9948 -1 124.067H1ZM41.8347 215.649C16.7656 193.118 1 160.435 1 124.067H-1C-1 161.026 15.0243 194.242 40.4978 217.136L41.8347 215.649ZM57.5113 270.815C56.9406 251.225 50.5876 233.813 42.0688 215.962L40.2638 216.823C48.7368 234.579 54.9534 251.694 55.5122 270.874L57.5113 270.815ZM71.6458 285.765C63.8308 285.765 57.7448 278.832 57.5113 270.815L55.5122 270.874C55.7711 279.761 62.55 287.765 71.6458 287.765V285.765ZM177.478 285.765H71.6458V287.765H177.478V285.765ZM191.79 270.472C191.572 278.623 185.408 285.765 177.478 285.765V287.765C186.709 287.765 193.548 279.529 193.789 270.526L191.79 270.472ZM205.53 216.346C197.712 234.884 192.269 252.58 191.79 270.472L193.789 270.526C194.259 252.996 199.594 235.567 207.373 217.123L205.53 216.346Z" fill="#1D2939" mask="url(#path-1-inside-1_5896_12195)"/>
<path d="M44.7562 214.388C40.0744 205.254 46.7025 194.645 56.9664 194.645L193.883 194.645C204.177 194.645 210.832 205.331 206.082 214.464C196.649 232.604 188.613 247.839 186.785 264.162C185.83 272.687 179.381 280.424 170.803 280.424H78.3228C69.8695 280.424 63.4675 272.927 62.7467 264.504C61.2452 246.958 53.57 231.584 44.7562 214.388Z" fill="#1A3A6B"/>
<rect x="80.6914" y="299.152" width="95.5269" height="12.3725" rx="6.18623" stroke="#1D2939"/>
<rect x="85.1465" y="321.439" width="86.6168" height="12.3725" rx="6.18623" stroke="#1D2939"/>
<path d="M32.3114 72.7766C27.8932 72.755 24.2555 69.1232 25.1218 64.7907C27.9131 50.8312 37.8229 37.7971 53.4742 27.8099C72.0641 15.9475 97.231 9.3553 123.438 9.48359C149.646 9.61188 174.747 16.4501 193.22 28.4939C208.773 38.6339 218.555 51.7644 221.209 65.7505C222.033 70.0913 218.36 73.6873 213.942 73.6657L123.127 73.2211L32.3114 72.7766Z" fill="#77EDD8"/>
<path d="M113.672 28.4929C113.619 28.0223 113.4 27.6577 113.016 27.3991C112.631 27.1373 112.147 27.0064 111.564 27.0064C111.146 27.0064 110.785 27.0727 110.48 27.2053C110.175 27.3345 109.938 27.5135 109.769 27.7422C109.603 27.9676 109.521 28.2244 109.521 28.5128C109.521 28.7547 109.577 28.9635 109.69 29.1392C109.806 29.3149 109.956 29.4624 110.142 29.5817C110.331 29.6977 110.533 29.7955 110.749 29.875C110.964 29.9512 111.171 30.0142 111.37 30.0639L112.364 30.3224C112.689 30.402 113.022 30.5097 113.364 30.6456C113.705 30.7815 114.022 30.9605 114.313 31.1825C114.605 31.4046 114.84 31.6797 115.019 32.0078C115.201 32.3359 115.293 32.7287 115.293 33.1861C115.293 33.7628 115.143 34.2749 114.845 34.7223C114.55 35.1697 114.121 35.5227 113.558 35.7812C112.997 36.0398 112.32 36.169 111.524 36.169C110.762 36.169 110.102 36.0481 109.545 35.8061C108.989 35.5642 108.553 35.2211 108.238 34.777C107.923 34.3295 107.749 33.7992 107.716 33.1861H109.257C109.287 33.554 109.406 33.8606 109.615 34.1058C109.827 34.3478 110.097 34.5284 110.425 34.6477C110.757 34.7637 111.12 34.8217 111.514 34.8217C111.948 34.8217 112.335 34.7538 112.673 34.6179C113.014 34.4787 113.282 34.2865 113.478 34.0412C113.674 33.7926 113.771 33.5026 113.771 33.1712C113.771 32.8696 113.685 32.6226 113.513 32.4304C113.344 32.2382 113.113 32.0791 112.822 31.9531C112.533 31.8272 112.207 31.7161 111.842 31.62L110.639 31.2919C109.824 31.0698 109.178 30.7434 108.7 30.3125C108.226 29.8816 107.989 29.3116 107.989 28.6023C107.989 28.0156 108.148 27.5036 108.467 27.0661C108.785 26.6286 109.216 26.2888 109.759 26.0469C110.303 25.8016 110.916 25.679 111.599 25.679C112.288 25.679 112.896 25.8 113.423 26.0419C113.954 26.2839 114.371 26.617 114.676 27.0412C114.981 27.4621 115.14 27.946 115.153 28.4929H113.672ZM120.226 36.1541C119.51 36.1541 118.885 35.9901 118.351 35.6619C117.818 35.3338 117.403 34.8748 117.108 34.2848C116.814 33.6948 116.666 33.0054 116.666 32.2166C116.666 31.4245 116.814 30.7318 117.108 30.1385C117.403 29.5452 117.818 29.0845 118.351 28.7564C118.885 28.4283 119.51 28.2642 120.226 28.2642C120.942 28.2642 121.566 28.4283 122.1 28.7564C122.634 29.0845 123.048 29.5452 123.343 30.1385C123.638 30.7318 123.785 31.4245 123.785 32.2166C123.785 33.0054 123.638 33.6948 123.343 34.2848C123.048 34.8748 122.634 35.3338 122.1 35.6619C121.566 35.9901 120.942 36.1541 120.226 36.1541ZM120.231 34.9062C120.695 34.9062 121.079 34.7836 121.384 34.5384C121.689 34.2931 121.914 33.9666 122.06 33.5589C122.209 33.1513 122.284 32.7022 122.284 32.2116C122.284 31.7244 122.209 31.277 122.06 30.8693C121.914 30.4583 121.689 30.1286 121.384 29.88C121.079 29.6314 120.695 29.5071 120.231 29.5071C119.763 29.5071 119.376 29.6314 119.067 29.88C118.762 30.1286 118.535 30.4583 118.386 30.8693C118.24 31.277 118.167 31.7244 118.167 32.2116C118.167 32.7022 118.24 33.1513 118.386 33.5589C118.535 33.9666 118.762 34.2931 119.067 34.5384C119.376 34.7836 119.763 34.9062 120.231 34.9062ZM126.931 25.8182V36H125.445V25.8182H126.931ZM131.153 36.169C130.669 36.169 130.232 36.0795 129.841 35.9006C129.45 35.7183 129.14 35.4548 128.911 35.1101C128.686 34.7654 128.573 34.3428 128.573 33.8423C128.573 33.4115 128.656 33.0568 128.822 32.7784C128.987 32.5 129.211 32.2796 129.493 32.1172C129.774 31.9548 130.089 31.8321 130.437 31.7493C130.785 31.6664 131.14 31.6035 131.501 31.5604C131.959 31.5073 132.33 31.4643 132.615 31.4311C132.9 31.3946 133.107 31.3366 133.236 31.2571C133.366 31.1776 133.43 31.0483 133.43 30.8693V30.8345C133.43 30.4003 133.308 30.0639 133.062 29.8253C132.82 29.5866 132.459 29.4673 131.979 29.4673C131.478 29.4673 131.084 29.5784 130.795 29.8004C130.51 30.0192 130.313 30.2628 130.204 30.5312L128.807 30.2131C128.972 29.7491 129.214 29.3745 129.532 29.0895C129.854 28.8011 130.224 28.5923 130.641 28.4631C131.059 28.3305 131.498 28.2642 131.959 28.2642C132.264 28.2642 132.587 28.3007 132.928 28.3736C133.273 28.4432 133.594 28.5724 133.893 28.7614C134.194 28.9503 134.441 29.2204 134.633 29.5717C134.826 29.9197 134.922 30.3722 134.922 30.929V36H133.47V34.956H133.41C133.314 35.1482 133.17 35.3371 132.978 35.5227C132.786 35.7083 132.539 35.8625 132.237 35.9851C131.935 36.1077 131.574 36.169 131.153 36.169ZM131.476 34.9759C131.887 34.9759 132.239 34.8946 132.53 34.7322C132.825 34.5698 133.049 34.3577 133.202 34.0959C133.357 33.8307 133.435 33.5473 133.435 33.2457V32.2614C133.382 32.3144 133.279 32.3641 133.127 32.4105C132.978 32.4536 132.807 32.4917 132.615 32.5249C132.423 32.5547 132.235 32.5829 132.053 32.6094C131.871 32.6326 131.718 32.6525 131.596 32.669C131.307 32.7055 131.044 32.7668 130.805 32.853C130.57 32.9392 130.381 33.0634 130.238 33.2259C130.099 33.3849 130.03 33.5971 130.03 33.8622C130.03 34.2301 130.166 34.5085 130.437 34.6974C130.709 34.883 131.055 34.9759 131.476 34.9759ZM136.902 36V28.3636H138.338V29.5767H138.418C138.557 29.1657 138.802 28.8426 139.154 28.6072C139.508 28.3686 139.909 28.2493 140.357 28.2493C140.45 28.2493 140.559 28.2526 140.685 28.2592C140.814 28.2659 140.915 28.2741 140.988 28.2841V29.706C140.929 29.6894 140.823 29.6712 140.67 29.6513C140.518 29.6281 140.365 29.6165 140.213 29.6165C139.861 29.6165 139.548 29.6911 139.273 29.8402C139.001 29.986 138.786 30.1899 138.627 30.4517C138.468 30.7102 138.388 31.0052 138.388 31.3366V36H136.902Z" fill="#344054"/>
<path d="M112.903 56.2871V55.5201L115.784 52.3667C116.122 51.9973 116.401 51.6763 116.619 51.4036C116.838 51.128 117 50.8695 117.105 50.628C117.213 50.3837 117.267 50.128 117.267 49.861C117.267 49.5542 117.193 49.2885 117.045 49.0641C116.901 48.8397 116.702 48.6664 116.449 48.5442C116.196 48.4221 115.912 48.361 115.597 48.361C115.261 48.361 114.969 48.4306 114.719 48.5698C114.472 48.7061 114.28 48.8979 114.143 49.1451C114.01 49.3922 113.943 49.682 113.943 50.0144H112.938C112.938 49.503 113.055 49.0542 113.291 48.6678C113.527 48.2814 113.848 47.9803 114.254 47.7644C114.663 47.5485 115.122 47.4405 115.631 47.4405C116.142 47.4405 116.595 47.5485 116.99 47.7644C117.385 47.9803 117.695 48.2715 117.919 48.638C118.143 49.0044 118.256 49.4121 118.256 49.861C118.256 50.182 118.197 50.4959 118.081 50.8027C117.967 51.1067 117.768 51.4462 117.484 51.8212C117.203 52.1934 116.812 52.6479 116.312 53.1848L114.352 55.2814V55.3496H118.409V56.2871H112.903ZM122.896 56.4064C122.396 56.4064 121.946 56.307 121.545 56.1081C121.145 55.9093 120.824 55.6365 120.582 55.29C120.341 54.9434 120.209 54.5485 120.186 54.1053H121.209C121.249 54.5002 121.428 54.8269 121.746 55.0854C122.067 55.3411 122.45 55.4689 122.896 55.4689C123.254 55.4689 123.572 55.3851 123.851 55.2175C124.132 55.0499 124.352 54.8198 124.511 54.5272C124.673 54.2317 124.754 53.8979 124.754 53.5257C124.754 53.1451 124.67 52.8056 124.503 52.5073C124.338 52.2061 124.111 51.9689 123.821 51.7956C123.531 51.6223 123.2 51.5343 122.828 51.5314C122.561 51.5286 122.287 51.5698 122.006 51.655C121.724 51.7374 121.493 51.8439 121.311 51.9746L120.322 51.8553L120.851 47.5598H125.385V48.4973H121.737L121.43 51.0712H121.482C121.661 50.9292 121.885 50.8113 122.155 50.7175C122.425 50.6238 122.706 50.5769 122.999 50.5769C123.533 50.5769 124.009 50.7047 124.426 50.9604C124.847 51.2132 125.176 51.5598 125.415 52.0002C125.656 52.4405 125.777 52.9434 125.777 53.5087C125.777 54.0655 125.652 54.5627 125.402 55.0002C125.155 55.4348 124.814 55.7786 124.379 56.0314C123.945 56.2814 123.45 56.4064 122.896 56.4064ZM131.919 54.6507V54.1905C131.919 53.8723 131.984 53.5811 132.115 53.3169C132.248 53.0499 132.441 52.8368 132.694 52.6777C132.95 52.5158 133.26 52.4348 133.623 52.4348C133.993 52.4348 134.302 52.5158 134.552 52.6777C134.802 52.8368 134.991 53.0499 135.119 53.3169C135.247 53.5811 135.311 53.8723 135.311 54.1905V54.6507C135.311 54.9689 135.245 55.2615 135.115 55.5286C134.987 55.7928 134.797 56.0059 134.544 56.1678C134.294 56.3269 133.987 56.4064 133.623 56.4064C133.254 56.4064 132.943 56.3269 132.69 56.1678C132.437 56.0059 132.245 55.7928 132.115 55.5286C131.984 55.2615 131.919 54.9689 131.919 54.6507ZM132.788 54.1905V54.6507C132.788 54.915 132.85 55.1522 132.975 55.3624C133.1 55.5698 133.316 55.6735 133.623 55.6735C133.922 55.6735 134.132 55.5698 134.254 55.3624C134.379 55.1522 134.441 54.915 134.441 54.6507V54.1905C134.441 53.9263 134.382 53.6905 134.262 53.4831C134.143 53.2729 133.93 53.1678 133.623 53.1678C133.325 53.1678 133.11 53.2729 132.98 53.4831C132.852 53.6905 132.788 53.9263 132.788 54.1905ZM127.572 49.6564V49.1962C127.572 48.878 127.637 48.5868 127.768 48.3226C127.902 48.0556 128.095 47.8425 128.348 47.6834C128.603 47.5215 128.913 47.4405 129.277 47.4405C129.646 47.4405 129.956 47.5215 130.206 47.6834C130.456 47.8425 130.645 48.0556 130.772 48.3226C130.9 48.5868 130.964 48.878 130.964 49.1962V49.6564C130.964 49.9746 130.899 50.2672 130.768 50.5343C130.64 50.7985 130.45 51.0115 130.197 51.1735C129.947 51.3326 129.64 51.4121 129.277 51.4121C128.907 51.4121 128.596 51.3326 128.343 51.1735C128.091 51.0115 127.899 50.7985 127.768 50.5343C127.637 50.2672 127.572 49.9746 127.572 49.6564ZM128.441 49.1962V49.6564C128.441 49.9206 128.504 50.1578 128.629 50.3681C128.754 50.5755 128.97 50.6792 129.277 50.6792C129.575 50.6792 129.785 50.5755 129.907 50.3681C130.032 50.1578 130.095 49.9206 130.095 49.6564V49.1962C130.095 48.932 130.035 48.6962 129.916 48.4888C129.797 48.2786 129.583 48.1735 129.277 48.1735C128.978 48.1735 128.764 48.2786 128.633 48.4888C128.505 48.6962 128.441 48.932 128.441 49.1962ZM127.896 56.2871L133.896 47.5598H134.868L128.868 56.2871H127.896Z" fill="#344054"/>
<path d="M15.8443 161.555C11.7937 153.573 17.5938 144.125 26.5455 144.125H220.064C229.143 144.125 234.934 153.818 230.631 161.812L217.559 186.102C215.467 189.99 211.408 192.415 206.992 192.415H38.8704C34.3507 192.415 30.2144 189.875 28.1692 185.845L15.8443 161.555Z" fill="#389E8B"/>
<path d="M11 89C11 82.3726 16.3726 77 23 77H223.982C230.609 77 235.982 82.3726 235.982 89V126.662C235.982 133.289 230.609 138.662 223.982 138.662H23C16.3726 138.662 11 133.289 11 126.662V89Z" fill="#4662EA"/>
<path d="M100.119 103V92.8182H103.847C104.57 92.8182 105.168 92.9375 105.642 93.1761C106.116 93.4115 106.471 93.7313 106.706 94.1357C106.941 94.5367 107.059 94.9891 107.059 95.4929C107.059 95.9171 106.981 96.2751 106.825 96.5668C106.67 96.8551 106.461 97.0871 106.199 97.2628C105.94 97.4351 105.655 97.5611 105.344 97.6406V97.7401C105.682 97.7566 106.012 97.866 106.333 98.0682C106.658 98.267 106.926 98.5504 107.138 98.9183C107.351 99.2862 107.457 99.7337 107.457 100.261C107.457 100.781 107.334 101.248 107.089 101.663C106.847 102.074 106.472 102.4 105.965 102.642C105.458 102.881 104.81 103 104.021 103H100.119ZM101.655 101.683H103.872C104.608 101.683 105.135 101.54 105.453 101.255C105.771 100.97 105.93 100.614 105.93 100.186C105.93 99.8646 105.849 99.5696 105.687 99.3011C105.524 99.0327 105.292 98.8189 104.991 98.6598C104.692 98.5007 104.338 98.4212 103.927 98.4212H101.655V101.683ZM101.655 97.223H103.713C104.058 97.223 104.368 97.1567 104.643 97.0241C104.921 96.8916 105.142 96.706 105.304 96.4673C105.47 96.2254 105.553 95.9403 105.553 95.6122C105.553 95.1913 105.405 94.8383 105.11 94.5533C104.815 94.2682 104.363 94.1257 103.753 94.1257H101.655V97.223ZM111.382 103.169C110.898 103.169 110.46 103.08 110.069 102.901C109.678 102.718 109.368 102.455 109.14 102.11C108.914 101.765 108.801 101.343 108.801 100.842C108.801 100.411 108.884 100.057 109.05 99.7784C109.216 99.5 109.44 99.2796 109.721 99.1172C110.003 98.9548 110.318 98.8321 110.666 98.7493C111.014 98.6664 111.368 98.6035 111.73 98.5604C112.187 98.5073 112.558 98.4643 112.843 98.4311C113.128 98.3946 113.336 98.3366 113.465 98.2571C113.594 98.1776 113.659 98.0483 113.659 97.8693V97.8345C113.659 97.4003 113.536 97.0639 113.291 96.8253C113.049 96.5866 112.688 96.4673 112.207 96.4673C111.707 96.4673 111.312 96.5784 111.024 96.8004C110.739 97.0192 110.542 97.2628 110.432 97.5312L109.035 97.2131C109.201 96.7491 109.443 96.3745 109.761 96.0895C110.083 95.8011 110.452 95.5923 110.87 95.4631C111.287 95.3305 111.726 95.2642 112.187 95.2642C112.492 95.2642 112.815 95.3007 113.157 95.3736C113.501 95.4432 113.823 95.5724 114.121 95.7614C114.423 95.9503 114.67 96.2204 114.862 96.5717C115.054 96.9197 115.15 97.3722 115.15 97.929V103H113.699V101.956H113.639C113.543 102.148 113.399 102.337 113.206 102.523C113.014 102.708 112.767 102.862 112.466 102.985C112.164 103.108 111.803 103.169 111.382 103.169ZM111.705 101.976C112.116 101.976 112.467 101.895 112.759 101.732C113.054 101.57 113.278 101.358 113.43 101.096C113.586 100.831 113.664 100.547 113.664 100.246V99.2614C113.611 99.3144 113.508 99.3641 113.355 99.4105C113.206 99.4536 113.036 99.4917 112.843 99.5249C112.651 99.5547 112.464 99.5829 112.282 99.6094C112.099 99.6326 111.947 99.6525 111.824 99.669C111.536 99.7055 111.272 99.7668 111.034 99.853C110.798 99.9392 110.609 100.063 110.467 100.226C110.328 100.385 110.258 100.597 110.258 100.862C110.258 101.23 110.394 101.509 110.666 101.697C110.938 101.883 111.284 101.976 111.705 101.976ZM120.695 95.3636V96.5568H116.524V95.3636H120.695ZM117.642 93.5341H119.129V100.758C119.129 101.046 119.172 101.263 119.258 101.409C119.344 101.552 119.455 101.649 119.591 101.702C119.73 101.752 119.881 101.777 120.044 101.777C120.163 101.777 120.267 101.769 120.357 101.752C120.446 101.736 120.516 101.722 120.566 101.712L120.834 102.94C120.748 102.973 120.625 103.007 120.466 103.04C120.307 103.076 120.108 103.096 119.869 103.099C119.478 103.106 119.114 103.036 118.776 102.891C118.438 102.745 118.164 102.519 117.955 102.214C117.747 101.91 117.642 101.527 117.642 101.066V93.5341ZM125.904 95.3636V96.5568H121.733V95.3636H125.904ZM122.851 93.5341H124.338V100.758C124.338 101.046 124.381 101.263 124.467 101.409C124.553 101.552 124.664 101.649 124.8 101.702C124.939 101.752 125.09 101.777 125.252 101.777C125.372 101.777 125.476 101.769 125.566 101.752C125.655 101.736 125.725 101.722 125.775 101.712L126.043 102.94C125.957 102.973 125.834 103.007 125.675 103.04C125.516 103.076 125.317 103.096 125.078 103.099C124.687 103.106 124.323 103.036 123.985 102.891C123.647 102.745 123.373 102.519 123.164 102.214C122.956 101.91 122.851 101.527 122.851 101.066V93.5341ZM130.757 103.154C130.005 103.154 129.357 102.993 128.813 102.672C128.273 102.347 127.856 101.891 127.561 101.305C127.269 100.715 127.123 100.024 127.123 99.2315C127.123 98.4493 127.269 97.7599 127.561 97.1634C127.856 96.5668 128.267 96.1011 128.794 95.7663C129.324 95.4316 129.944 95.2642 130.653 95.2642C131.084 95.2642 131.501 95.3355 131.906 95.478C132.31 95.6205 132.673 95.8442 132.994 96.1491C133.316 96.4541 133.57 96.8501 133.755 97.3374C133.941 97.8213 134.034 98.4096 134.034 99.1023V99.6293H127.963V98.5156H132.577C132.577 98.1245 132.497 97.7782 132.338 97.4766C132.179 97.1716 131.955 96.9313 131.667 96.7557C131.382 96.58 131.047 96.4922 130.663 96.4922C130.245 96.4922 129.881 96.5949 129.569 96.8004C129.261 97.0026 129.022 97.2678 128.853 97.5959C128.687 97.9207 128.605 98.2737 128.605 98.6548V99.5249C128.605 100.035 128.694 100.469 128.873 100.827C129.055 101.185 129.309 101.459 129.634 101.648C129.959 101.833 130.338 101.926 130.772 101.926C131.054 101.926 131.311 101.886 131.543 101.807C131.775 101.724 131.975 101.601 132.144 101.439C132.313 101.277 132.443 101.076 132.532 100.837L133.939 101.091C133.826 101.505 133.624 101.868 133.333 102.18C133.044 102.488 132.681 102.728 132.244 102.901C131.81 103.07 131.314 103.154 130.757 103.154ZM135.683 103V95.3636H137.12V96.5767H137.199C137.338 96.1657 137.584 95.8426 137.935 95.6072C138.29 95.3686 138.691 95.2493 139.138 95.2493C139.231 95.2493 139.34 95.2526 139.466 95.2592C139.596 95.2659 139.697 95.2741 139.77 95.2841V96.706C139.71 96.6894 139.604 96.6712 139.451 96.6513C139.299 96.6281 139.146 96.6165 138.994 96.6165C138.643 96.6165 138.329 96.6911 138.054 96.8402C137.783 96.986 137.567 97.1899 137.408 97.4517C137.249 97.7102 137.169 98.0052 137.169 98.3366V103H135.683ZM142.228 105.864C142.006 105.864 141.804 105.845 141.621 105.809C141.439 105.776 141.303 105.739 141.214 105.7L141.572 104.482C141.844 104.554 142.085 104.586 142.298 104.576C142.51 104.566 142.697 104.487 142.859 104.337C143.025 104.188 143.171 103.945 143.297 103.607L143.481 103.099L140.687 95.3636H142.278L144.212 101.29H144.291L146.225 95.3636H147.821L144.674 104.019C144.528 104.417 144.343 104.753 144.117 105.028C143.892 105.307 143.623 105.516 143.312 105.655C143 105.794 142.639 105.864 142.228 105.864Z" fill="#FCFCFD"/>
<path d="M92.1186 164V153.818H98.5021V155.141H93.6548V158.243H98.169V159.56H93.6548V162.678H98.5618V164H92.1186ZM101.921 153.818V164H100.435V153.818H101.921ZM107.212 164.154C106.46 164.154 105.812 163.993 105.268 163.672C104.728 163.347 104.311 162.891 104.016 162.305C103.724 161.715 103.578 161.024 103.578 160.232C103.578 159.449 103.724 158.76 104.016 158.163C104.311 157.567 104.722 157.101 105.249 156.766C105.779 156.432 106.399 156.264 107.108 156.264C107.539 156.264 107.956 156.335 108.361 156.478C108.765 156.621 109.128 156.844 109.45 157.149C109.771 157.454 110.025 157.85 110.21 158.337C110.396 158.821 110.489 159.41 110.489 160.102V160.629H104.418V159.516H109.032C109.032 159.125 108.952 158.778 108.793 158.477C108.634 158.172 108.411 157.931 108.122 157.756C107.837 157.58 107.502 157.492 107.118 157.492C106.7 157.492 106.336 157.595 106.024 157.8C105.716 158.003 105.477 158.268 105.308 158.596C105.143 158.921 105.06 159.274 105.06 159.655V160.525C105.06 161.035 105.149 161.469 105.328 161.827C105.51 162.185 105.764 162.459 106.089 162.648C106.414 162.833 106.793 162.926 107.227 162.926C107.509 162.926 107.766 162.886 107.998 162.807C108.23 162.724 108.43 162.601 108.599 162.439C108.768 162.277 108.898 162.076 108.987 161.837L110.394 162.091C110.281 162.505 110.079 162.868 109.788 163.18C109.499 163.488 109.136 163.728 108.699 163.901C108.265 164.07 107.769 164.154 107.212 164.154ZM115.355 164.154C114.615 164.154 113.979 163.987 113.445 163.652C112.915 163.314 112.508 162.848 112.222 162.255C111.937 161.662 111.795 160.982 111.795 160.217C111.795 159.441 111.941 158.757 112.232 158.163C112.524 157.567 112.935 157.101 113.465 156.766C113.996 156.432 114.62 156.264 115.34 156.264C115.92 156.264 116.437 156.372 116.891 156.587C117.345 156.799 117.711 157.098 117.99 157.482C118.271 157.867 118.439 158.316 118.492 158.83H117.045C116.965 158.472 116.783 158.163 116.498 157.905C116.216 157.646 115.838 157.517 115.365 157.517C114.95 157.517 114.587 157.626 114.276 157.845C113.968 158.061 113.727 158.369 113.555 158.77C113.383 159.168 113.296 159.638 113.296 160.182C113.296 160.739 113.381 161.219 113.55 161.624C113.719 162.028 113.958 162.341 114.266 162.563C114.577 162.785 114.944 162.896 115.365 162.896C115.646 162.896 115.901 162.845 116.13 162.742C116.362 162.636 116.556 162.485 116.712 162.29C116.871 162.094 116.982 161.859 117.045 161.584H118.492C118.439 162.078 118.278 162.518 118.009 162.906C117.741 163.294 117.381 163.599 116.931 163.821C116.483 164.043 115.958 164.154 115.355 164.154ZM123.646 156.364V157.557H119.475V156.364H123.646ZM120.593 154.534H122.08V161.758C122.08 162.046 122.123 162.263 122.209 162.409C122.295 162.552 122.406 162.649 122.542 162.702C122.681 162.752 122.832 162.777 122.995 162.777C123.114 162.777 123.218 162.769 123.308 162.752C123.397 162.736 123.467 162.722 123.517 162.712L123.785 163.94C123.699 163.973 123.576 164.007 123.417 164.04C123.258 164.076 123.059 164.096 122.821 164.099C122.43 164.106 122.065 164.036 121.727 163.891C121.389 163.745 121.115 163.519 120.907 163.214C120.698 162.91 120.593 162.527 120.593 162.066V154.534ZM125.29 164V156.364H126.727V157.577H126.807C126.946 157.166 127.191 156.843 127.542 156.607C127.897 156.369 128.298 156.249 128.746 156.249C128.838 156.249 128.948 156.253 129.074 156.259C129.203 156.266 129.304 156.274 129.377 156.284V157.706C129.317 157.689 129.211 157.671 129.059 157.651C128.906 157.628 128.754 157.616 128.601 157.616C128.25 157.616 127.937 157.691 127.662 157.84C127.39 157.986 127.175 158.19 127.015 158.452C126.856 158.71 126.777 159.005 126.777 159.337V164H125.29ZM130.663 164V156.364H132.15V164H130.663ZM131.414 155.185C131.156 155.185 130.933 155.099 130.748 154.927C130.566 154.751 130.474 154.542 130.474 154.3C130.474 154.055 130.566 153.846 130.748 153.674C130.933 153.498 131.156 153.411 131.414 153.411C131.673 153.411 131.893 153.498 132.075 153.674C132.261 153.846 132.354 154.055 132.354 154.3C132.354 154.542 132.261 154.751 132.075 154.927C131.893 155.099 131.673 155.185 131.414 155.185ZM137.366 164.154C136.627 164.154 135.991 163.987 135.457 163.652C134.927 163.314 134.519 162.848 134.234 162.255C133.949 161.662 133.807 160.982 133.807 160.217C133.807 159.441 133.952 158.757 134.244 158.163C134.536 157.567 134.947 157.101 135.477 156.766C136.007 156.432 136.632 156.264 137.351 156.264C137.931 156.264 138.448 156.372 138.903 156.587C139.357 156.799 139.723 157.098 140.001 157.482C140.283 157.867 140.45 158.316 140.503 158.83H139.057C138.977 158.472 138.795 158.163 138.51 157.905C138.228 157.646 137.85 157.517 137.376 157.517C136.962 157.517 136.599 157.626 136.287 157.845C135.979 158.061 135.739 158.369 135.567 158.77C135.394 159.168 135.308 159.638 135.308 160.182C135.308 160.739 135.393 161.219 135.562 161.624C135.731 162.028 135.969 162.341 136.278 162.563C136.589 162.785 136.955 162.896 137.376 162.896C137.658 162.896 137.913 162.845 138.142 162.742C138.374 162.636 138.568 162.485 138.724 162.29C138.883 162.094 138.994 161.859 139.057 161.584H140.503C140.45 162.078 140.29 162.518 140.021 162.906C139.753 163.294 139.393 163.599 138.942 163.821C138.495 164.043 137.97 164.154 137.366 164.154ZM142.093 164V156.364H143.58V164H142.093ZM142.844 155.185C142.585 155.185 142.363 155.099 142.178 154.927C141.995 154.751 141.904 154.542 141.904 154.3C141.904 154.055 141.995 153.846 142.178 153.674C142.363 153.498 142.585 153.411 142.844 153.411C143.102 153.411 143.323 153.498 143.505 153.674C143.691 153.846 143.783 154.055 143.783 154.3C143.783 154.542 143.691 154.751 143.505 154.927C143.323 155.099 143.102 155.185 142.844 155.185ZM149.144 156.364V157.557H144.973V156.364H149.144ZM146.091 154.534H147.578V161.758C147.578 162.046 147.621 162.263 147.707 162.409C147.793 162.552 147.904 162.649 148.04 162.702C148.18 162.752 148.33 162.777 148.493 162.777C148.612 162.777 148.716 162.769 148.806 162.752C148.895 162.736 148.965 162.722 149.015 162.712L149.283 163.94C149.197 163.973 149.074 164.007 148.915 164.04C148.756 164.076 148.557 164.096 148.319 164.099C147.928 164.106 147.563 164.036 147.225 163.891C146.887 163.745 146.613 163.519 146.405 163.214C146.196 162.91 146.091 162.527 146.091 162.066V154.534ZM151.728 166.864C151.506 166.864 151.304 166.845 151.121 166.809C150.939 166.776 150.803 166.739 150.714 166.7L151.072 165.482C151.344 165.554 151.585 165.586 151.798 165.576C152.01 165.566 152.197 165.487 152.359 165.337C152.525 165.188 152.671 164.945 152.797 164.607L152.981 164.099L150.187 156.364H151.778L153.712 162.29H153.791L155.725 156.364H157.321L154.174 165.019C154.028 165.417 153.843 165.753 153.617 166.028C153.392 166.307 153.123 166.516 152.812 166.655C152.5 166.794 152.139 166.864 151.728 166.864Z" fill="#FCFCFD"/>
<path d="M110.963 222.909C110.963 223.996 110.764 224.931 110.366 225.713C109.969 226.492 109.424 227.092 108.731 227.513C108.041 227.93 107.258 228.139 106.379 228.139C105.498 228.139 104.71 227.93 104.018 227.513C103.328 227.092 102.785 226.49 102.387 225.708C101.989 224.926 101.79 223.993 101.79 222.909C101.79 221.822 101.989 220.889 102.387 220.11C102.785 219.328 103.328 218.728 104.018 218.31C104.71 217.889 105.498 217.679 106.379 217.679C107.258 217.679 108.041 217.889 108.731 218.31C109.424 218.728 109.969 219.328 110.366 220.11C110.764 220.889 110.963 221.822 110.963 222.909ZM109.442 222.909C109.442 222.08 109.308 221.383 109.039 220.816C108.774 220.246 108.409 219.815 107.945 219.523C107.485 219.228 106.963 219.081 106.379 219.081C105.793 219.081 105.269 219.228 104.808 219.523C104.348 219.815 103.983 220.246 103.714 220.816C103.449 221.383 103.317 222.08 103.317 222.909C103.317 223.738 103.449 224.437 103.714 225.007C103.983 225.574 104.348 226.005 104.808 226.3C105.269 226.591 105.793 226.737 106.379 226.737C106.963 226.737 107.485 226.591 107.945 226.3C108.409 226.005 108.774 225.574 109.039 225.007C109.308 224.437 109.442 223.738 109.442 222.909ZM116.324 220.364V221.557H112.153V220.364H116.324ZM113.271 218.534H114.758V225.758C114.758 226.046 114.801 226.263 114.887 226.409C114.973 226.552 115.084 226.649 115.22 226.702C115.359 226.752 115.51 226.777 115.672 226.777C115.792 226.777 115.896 226.769 115.986 226.752C116.075 226.736 116.145 226.722 116.194 226.712L116.463 227.94C116.377 227.973 116.254 228.007 116.095 228.04C115.936 228.076 115.737 228.096 115.498 228.099C115.107 228.106 114.743 228.036 114.405 227.891C114.067 227.745 113.793 227.519 113.584 227.214C113.376 226.91 113.271 226.527 113.271 226.066V218.534ZM119.619 223.466V228H118.132V217.818H119.599V221.607H119.693C119.872 221.196 120.146 220.869 120.513 220.627C120.881 220.385 121.362 220.264 121.955 220.264C122.479 220.264 122.936 220.372 123.327 220.587C123.722 220.803 124.027 221.124 124.242 221.552C124.461 221.976 124.57 222.506 124.57 223.143V228H123.084V223.322C123.084 222.762 122.94 222.327 122.651 222.019C122.363 221.708 121.962 221.552 121.448 221.552C121.097 221.552 120.782 221.626 120.504 221.776C120.228 221.925 120.011 222.143 119.852 222.432C119.696 222.717 119.619 223.062 119.619 223.466ZM129.845 228.154C129.093 228.154 128.445 227.993 127.901 227.672C127.361 227.347 126.943 226.891 126.648 226.305C126.357 225.715 126.211 225.024 126.211 224.232C126.211 223.449 126.357 222.76 126.648 222.163C126.943 221.567 127.354 221.101 127.881 220.766C128.412 220.432 129.031 220.264 129.741 220.264C130.172 220.264 130.589 220.335 130.994 220.478C131.398 220.621 131.761 220.844 132.082 221.149C132.404 221.454 132.657 221.85 132.843 222.337C133.029 222.821 133.121 223.41 133.121 224.102V224.629H127.051V223.516H131.665C131.665 223.125 131.585 222.778 131.426 222.477C131.267 222.172 131.043 221.931 130.755 221.756C130.47 221.58 130.135 221.492 129.751 221.492C129.333 221.492 128.969 221.595 128.657 221.8C128.349 222.003 128.11 222.268 127.941 222.596C127.775 222.921 127.692 223.274 127.692 223.655V224.525C127.692 225.035 127.782 225.469 127.961 225.827C128.143 226.185 128.397 226.459 128.722 226.648C129.046 226.833 129.426 226.926 129.86 226.926C130.142 226.926 130.399 226.886 130.631 226.807C130.863 226.724 131.063 226.601 131.232 226.439C131.401 226.277 131.531 226.076 131.62 225.837L133.027 226.091C132.914 226.505 132.712 226.868 132.42 227.18C132.132 227.488 131.769 227.728 131.332 227.901C130.897 228.07 130.402 228.154 129.845 228.154ZM134.771 228V220.364H136.208V221.577H136.287C136.426 221.166 136.672 220.843 137.023 220.607C137.378 220.369 137.779 220.249 138.226 220.249C138.319 220.249 138.428 220.253 138.554 220.259C138.683 220.266 138.785 220.274 138.857 220.284V221.706C138.798 221.689 138.692 221.671 138.539 221.651C138.387 221.628 138.234 221.616 138.082 221.616C137.731 221.616 137.417 221.691 137.142 221.84C136.87 221.986 136.655 222.19 136.496 222.452C136.337 222.71 136.257 223.005 136.257 223.337V228H134.771ZM145.866 222.228L144.519 222.467C144.462 222.294 144.373 222.13 144.25 221.974C144.131 221.819 143.969 221.691 143.763 221.592C143.558 221.492 143.301 221.442 142.993 221.442C142.572 221.442 142.22 221.537 141.939 221.726C141.657 221.911 141.516 222.152 141.516 222.447C141.516 222.702 141.61 222.907 141.799 223.063C141.988 223.219 142.293 223.347 142.714 223.446L143.927 223.724C144.63 223.887 145.154 224.137 145.498 224.475C145.843 224.813 146.015 225.252 146.015 225.793C146.015 226.25 145.883 226.658 145.618 227.016C145.356 227.37 144.989 227.649 144.519 227.851C144.051 228.053 143.51 228.154 142.893 228.154C142.038 228.154 141.34 227.972 140.8 227.607C140.26 227.239 139.928 226.717 139.806 226.041L141.243 225.822C141.332 226.197 141.516 226.48 141.794 226.673C142.073 226.862 142.436 226.956 142.883 226.956C143.37 226.956 143.76 226.855 144.051 226.653C144.343 226.447 144.489 226.197 144.489 225.902C144.489 225.663 144.4 225.463 144.221 225.3C144.045 225.138 143.775 225.015 143.41 224.933L142.118 224.649C141.405 224.487 140.878 224.228 140.537 223.874C140.199 223.519 140.029 223.07 140.029 222.526C140.029 222.076 140.155 221.681 140.407 221.343C140.659 221.005 141.007 220.741 141.451 220.553C141.895 220.36 142.404 220.264 142.978 220.264C143.803 220.264 144.453 220.443 144.926 220.801C145.4 221.156 145.714 221.631 145.866 222.228Z" fill="#FCFCFD"/>
<path d="M111.903 123.287V122.52L114.784 119.367C115.122 118.997 115.401 118.676 115.619 118.404C115.838 118.128 116 117.869 116.105 117.628C116.213 117.384 116.267 117.128 116.267 116.861C116.267 116.554 116.193 116.289 116.045 116.064C115.901 115.84 115.702 115.666 115.449 115.544C115.196 115.422 114.912 115.361 114.597 115.361C114.261 115.361 113.969 115.431 113.719 115.57C113.472 115.706 113.28 115.898 113.143 116.145C113.01 116.392 112.943 116.682 112.943 117.014H111.938C111.938 116.503 112.055 116.054 112.291 115.668C112.527 115.281 112.848 114.98 113.254 114.764C113.663 114.548 114.122 114.441 114.631 114.441C115.142 114.441 115.595 114.548 115.99 114.764C116.385 114.98 116.695 115.271 116.919 115.638C117.143 116.004 117.256 116.412 117.256 116.861C117.256 117.182 117.197 117.496 117.081 117.803C116.967 118.107 116.768 118.446 116.484 118.821C116.203 119.193 115.812 119.648 115.312 120.185L113.352 122.281V122.35H117.409V123.287H111.903ZM121.896 123.406C121.396 123.406 120.946 123.307 120.545 123.108C120.145 122.909 119.824 122.637 119.582 122.29C119.341 121.943 119.209 121.548 119.186 121.105H120.209C120.249 121.5 120.428 121.827 120.746 122.085C121.067 122.341 121.45 122.469 121.896 122.469C122.254 122.469 122.572 122.385 122.851 122.218C123.132 122.05 123.352 121.82 123.511 121.527C123.673 121.232 123.754 120.898 123.754 120.526C123.754 120.145 123.67 119.806 123.503 119.507C123.338 119.206 123.111 118.969 122.821 118.796C122.531 118.622 122.2 118.534 121.828 118.531C121.561 118.529 121.287 118.57 121.006 118.655C120.724 118.737 120.493 118.844 120.311 118.975L119.322 118.855L119.851 114.56H124.385V115.497H120.737L120.43 118.071H120.482C120.661 117.929 120.885 117.811 121.155 117.718C121.425 117.624 121.706 117.577 121.999 117.577C122.533 117.577 123.009 117.705 123.426 117.96C123.847 118.213 124.176 118.56 124.415 119C124.656 119.441 124.777 119.943 124.777 120.509C124.777 121.066 124.652 121.563 124.402 122C124.155 122.435 123.814 122.779 123.379 123.031C122.945 123.281 122.45 123.406 121.896 123.406ZM130.919 121.651V121.191C130.919 120.872 130.984 120.581 131.115 120.317C131.248 120.05 131.441 119.837 131.694 119.678C131.95 119.516 132.26 119.435 132.623 119.435C132.993 119.435 133.302 119.516 133.552 119.678C133.802 119.837 133.991 120.05 134.119 120.317C134.247 120.581 134.311 120.872 134.311 121.191V121.651C134.311 121.969 134.245 122.262 134.115 122.529C133.987 122.793 133.797 123.006 133.544 123.168C133.294 123.327 132.987 123.406 132.623 123.406C132.254 123.406 131.943 123.327 131.69 123.168C131.437 123.006 131.245 122.793 131.115 122.529C130.984 122.262 130.919 121.969 130.919 121.651ZM131.788 121.191V121.651C131.788 121.915 131.85 122.152 131.975 122.362C132.1 122.57 132.316 122.673 132.623 122.673C132.922 122.673 133.132 122.57 133.254 122.362C133.379 122.152 133.441 121.915 133.441 121.651V121.191C133.441 120.926 133.382 120.691 133.262 120.483C133.143 120.273 132.93 120.168 132.623 120.168C132.325 120.168 132.11 120.273 131.98 120.483C131.852 120.691 131.788 120.926 131.788 121.191ZM126.572 116.656V116.196C126.572 115.878 126.637 115.587 126.768 115.323C126.902 115.056 127.095 114.843 127.348 114.683C127.603 114.521 127.913 114.441 128.277 114.441C128.646 114.441 128.956 114.521 129.206 114.683C129.456 114.843 129.645 115.056 129.772 115.323C129.9 115.587 129.964 115.878 129.964 116.196V116.656C129.964 116.975 129.899 117.267 129.768 117.534C129.64 117.798 129.45 118.012 129.197 118.173C128.947 118.333 128.64 118.412 128.277 118.412C127.907 118.412 127.596 118.333 127.343 118.173C127.091 118.012 126.899 117.798 126.768 117.534C126.637 117.267 126.572 116.975 126.572 116.656ZM127.441 116.196V116.656C127.441 116.921 127.504 117.158 127.629 117.368C127.754 117.575 127.97 117.679 128.277 117.679C128.575 117.679 128.785 117.575 128.907 117.368C129.032 117.158 129.095 116.921 129.095 116.656V116.196C129.095 115.932 129.035 115.696 128.916 115.489C128.797 115.279 128.583 115.173 128.277 115.173C127.978 115.173 127.764 115.279 127.633 115.489C127.505 115.696 127.441 115.932 127.441 116.196ZM126.896 123.287L132.896 114.56H133.868L127.868 123.287H126.896Z" fill="#FCFCFD"/>
<path d="M112.903 182.801V182.034L115.784 178.88C116.122 178.511 116.401 178.19 116.619 177.917C116.838 177.642 117 177.383 117.105 177.142C117.213 176.897 117.267 176.642 117.267 176.375C117.267 176.068 117.193 175.802 117.045 175.578C116.901 175.353 116.702 175.18 116.449 175.058C116.196 174.936 115.912 174.875 115.597 174.875C115.261 174.875 114.969 174.944 114.719 175.083C114.472 175.22 114.28 175.412 114.143 175.659C114.01 175.906 113.943 176.196 113.943 176.528H112.938C112.938 176.017 113.055 175.568 113.291 175.181C113.527 174.795 113.848 174.494 114.254 174.278C114.663 174.062 115.122 173.954 115.631 173.954C116.142 173.954 116.595 174.062 116.99 174.278C117.385 174.494 117.695 174.785 117.919 175.152C118.143 175.518 118.256 175.926 118.256 176.375C118.256 176.696 118.197 177.01 118.081 177.316C117.967 177.62 117.768 177.96 117.484 178.335C117.203 178.707 116.812 179.162 116.312 179.699L114.352 181.795V181.863H118.409V182.801H112.903ZM122.896 182.92C122.396 182.92 121.946 182.821 121.545 182.622C121.145 182.423 120.824 182.15 120.582 181.804C120.341 181.457 120.209 181.062 120.186 180.619H121.209C121.249 181.014 121.428 181.341 121.746 181.599C122.067 181.855 122.45 181.983 122.896 181.983C123.254 181.983 123.572 181.899 123.851 181.731C124.132 181.564 124.352 181.333 124.511 181.041C124.673 180.745 124.754 180.412 124.754 180.039C124.754 179.659 124.67 179.319 124.503 179.021C124.338 178.72 124.111 178.483 123.821 178.309C123.531 178.136 123.2 178.048 122.828 178.045C122.561 178.042 122.287 178.083 122.006 178.169C121.724 178.251 121.493 178.358 121.311 178.488L120.322 178.369L120.851 174.074H125.385V175.011H121.737L121.43 177.585H121.482C121.661 177.443 121.885 177.325 122.155 177.231C122.425 177.137 122.706 177.091 122.999 177.091C123.533 177.091 124.009 177.218 124.426 177.474C124.847 177.727 125.176 178.074 125.415 178.514C125.656 178.954 125.777 179.457 125.777 180.022C125.777 180.579 125.652 181.076 125.402 181.514C125.155 181.949 124.814 182.292 124.379 182.545C123.945 182.795 123.45 182.92 122.896 182.92ZM131.919 181.164V180.704C131.919 180.386 131.984 180.095 132.115 179.831C132.248 179.564 132.441 179.35 132.694 179.191C132.95 179.029 133.26 178.949 133.623 178.949C133.993 178.949 134.302 179.029 134.552 179.191C134.802 179.35 134.991 179.564 135.119 179.831C135.247 180.095 135.311 180.386 135.311 180.704V181.164C135.311 181.483 135.245 181.775 135.115 182.042C134.987 182.306 134.797 182.52 134.544 182.681C134.294 182.841 133.987 182.92 133.623 182.92C133.254 182.92 132.943 182.841 132.69 182.681C132.437 182.52 132.245 182.306 132.115 182.042C131.984 181.775 131.919 181.483 131.919 181.164ZM132.788 180.704V181.164C132.788 181.429 132.85 181.666 132.975 181.876C133.1 182.083 133.316 182.187 133.623 182.187C133.922 182.187 134.132 182.083 134.254 181.876C134.379 181.666 134.441 181.429 134.441 181.164V180.704C134.441 180.44 134.382 180.204 134.262 179.997C134.143 179.787 133.93 179.681 133.623 179.681C133.325 179.681 133.11 179.787 132.98 179.997C132.852 180.204 132.788 180.44 132.788 180.704ZM127.572 176.17V175.71C127.572 175.392 127.637 175.1 127.768 174.836C127.902 174.569 128.095 174.356 128.348 174.197C128.603 174.035 128.913 173.954 129.277 173.954C129.646 173.954 129.956 174.035 130.206 174.197C130.456 174.356 130.645 174.569 130.772 174.836C130.9 175.1 130.964 175.392 130.964 175.71V176.17C130.964 176.488 130.899 176.781 130.768 177.048C130.64 177.312 130.45 177.525 130.197 177.687C129.947 177.846 129.64 177.926 129.277 177.926C128.907 177.926 128.596 177.846 128.343 177.687C128.091 177.525 127.899 177.312 127.768 177.048C127.637 176.781 127.572 176.488 127.572 176.17ZM128.441 175.71V176.17C128.441 176.434 128.504 176.672 128.629 176.882C128.754 177.089 128.97 177.193 129.277 177.193C129.575 177.193 129.785 177.089 129.907 176.882C130.032 176.672 130.095 176.434 130.095 176.17V175.71C130.095 175.446 130.035 175.21 129.916 175.002C129.797 174.792 129.583 174.687 129.277 174.687C128.978 174.687 128.764 174.792 128.633 175.002C128.505 175.21 128.441 175.446 128.441 175.71ZM127.896 182.801L133.896 174.074H134.868L128.868 182.801H127.896Z" fill="#FCFCFD"/>
<path d="M111.903 251.259V250.492L114.784 247.338C115.122 246.969 115.401 246.648 115.619 246.375C115.838 246.1 116 245.841 116.105 245.6C116.213 245.355 116.267 245.1 116.267 244.833C116.267 244.526 116.193 244.26 116.045 244.036C115.901 243.811 115.702 243.638 115.449 243.516C115.196 243.394 114.912 243.333 114.597 243.333C114.261 243.333 113.969 243.402 113.719 243.541C113.472 243.678 113.28 243.87 113.143 244.117C113.01 244.364 112.943 244.654 112.943 244.986H111.938C111.938 244.475 112.055 244.026 112.291 243.639C112.527 243.253 112.848 242.952 113.254 242.736C113.663 242.52 114.122 242.412 114.631 242.412C115.142 242.412 115.595 242.52 115.99 242.736C116.385 242.952 116.695 243.243 116.919 243.61C117.143 243.976 117.256 244.384 117.256 244.833C117.256 245.154 117.197 245.468 117.081 245.774C116.967 246.078 116.768 246.418 116.484 246.793C116.203 247.165 115.812 247.62 115.312 248.157L113.352 250.253V250.321H117.409V251.259H111.903ZM121.896 251.378C121.396 251.378 120.946 251.279 120.545 251.08C120.145 250.881 119.824 250.608 119.582 250.262C119.341 249.915 119.209 249.52 119.186 249.077H120.209C120.249 249.472 120.428 249.799 120.746 250.057C121.067 250.313 121.45 250.441 121.896 250.441C122.254 250.441 122.572 250.357 122.851 250.189C123.132 250.022 123.352 249.791 123.511 249.499C123.673 249.203 123.754 248.87 123.754 248.497C123.754 248.117 123.67 247.777 123.503 247.479C123.338 247.178 123.111 246.941 122.821 246.767C122.531 246.594 122.2 246.506 121.828 246.503C121.561 246.5 121.287 246.541 121.006 246.627C120.724 246.709 120.493 246.816 120.311 246.946L119.322 246.827L119.851 242.532H124.385V243.469H120.737L120.43 246.043H120.482C120.661 245.901 120.885 245.783 121.155 245.689C121.425 245.595 121.706 245.549 121.999 245.549C122.533 245.549 123.009 245.676 123.426 245.932C123.847 246.185 124.176 246.532 124.415 246.972C124.656 247.412 124.777 247.915 124.777 248.48C124.777 249.037 124.652 249.534 124.402 249.972C124.155 250.407 123.814 250.75 123.379 251.003C122.945 251.253 122.45 251.378 121.896 251.378ZM130.919 249.622V249.162C130.919 248.844 130.984 248.553 131.115 248.289C131.248 248.022 131.441 247.809 131.694 247.649C131.95 247.487 132.26 247.407 132.623 247.407C132.993 247.407 133.302 247.487 133.552 247.649C133.802 247.809 133.991 248.022 134.119 248.289C134.247 248.553 134.311 248.844 134.311 249.162V249.622C134.311 249.941 134.245 250.233 134.115 250.5C133.987 250.764 133.797 250.978 133.544 251.139C133.294 251.299 132.987 251.378 132.623 251.378C132.254 251.378 131.943 251.299 131.69 251.139C131.437 250.978 131.245 250.764 131.115 250.5C130.984 250.233 130.919 249.941 130.919 249.622ZM131.788 249.162V249.622C131.788 249.887 131.85 250.124 131.975 250.334C132.1 250.541 132.316 250.645 132.623 250.645C132.922 250.645 133.132 250.541 133.254 250.334C133.379 250.124 133.441 249.887 133.441 249.622V249.162C133.441 248.898 133.382 248.662 133.262 248.455C133.143 248.245 132.93 248.139 132.623 248.139C132.325 248.139 132.11 248.245 131.98 248.455C131.852 248.662 131.788 248.898 131.788 249.162ZM126.572 244.628V244.168C126.572 243.85 126.637 243.559 126.768 243.294C126.902 243.027 127.095 242.814 127.348 242.655C127.603 242.493 127.913 242.412 128.277 242.412C128.646 242.412 128.956 242.493 129.206 242.655C129.456 242.814 129.645 243.027 129.772 243.294C129.9 243.559 129.964 243.85 129.964 244.168V244.628C129.964 244.946 129.899 245.239 129.768 245.506C129.64 245.77 129.45 245.983 129.197 246.145C128.947 246.304 128.64 246.384 128.277 246.384C127.907 246.384 127.596 246.304 127.343 246.145C127.091 245.983 126.899 245.77 126.768 245.506C126.637 245.239 126.572 244.946 126.572 244.628ZM127.441 244.168V244.628C127.441 244.892 127.504 245.13 127.629 245.34C127.754 245.547 127.97 245.651 128.277 245.651C128.575 245.651 128.785 245.547 128.907 245.34C129.032 245.13 129.095 244.892 129.095 244.628V244.168C129.095 243.904 129.035 243.668 128.916 243.46C128.797 243.25 128.583 243.145 128.277 243.145C127.978 243.145 127.764 243.25 127.633 243.46C127.505 243.668 127.441 243.904 127.441 244.168ZM126.896 251.259L132.896 242.532H133.868L127.868 251.259H126.896Z" fill="#FCFCFD"/>
</svg>
