<svg width="98" height="98" viewBox="0 0 98 98" fill="none" xmlns="http://www.w3.org/2000/svg">
<path d="M51.0208 45.9688C51.0208 39.9977 49.8447 34.0851 47.5597 28.5686C45.2747 23.0521 41.9255 18.0397 37.7033 13.8175C33.4812 9.59532 28.4687 6.24612 22.9522 3.9611C17.4357 1.67608 11.5231 0.5 5.55208 0.5L0.5 0.5V21.7188C0.5 33.7778 5.29044 45.343 13.8175 53.87C22.3445 62.3971 33.9097 67.1875 45.9688 67.1875H51.0208V45.9688ZM88.869 0.5C80.4389 0.5 72.3541 3.84884 66.3931 9.80981C60.4322 15.7708 57.0833 23.8556 57.0833 32.2857V51.0208H65.7143C74.1444 51.0208 82.2292 47.672 88.1902 41.711C94.1512 35.75 97.5 27.6652 97.5 19.2351V0.5H88.869ZM61.125 57.0833C60.0531 57.0833 59.0251 57.5091 58.2671 58.2671C57.5091 59.0251 57.0833 60.0531 57.0833 61.125V83.3542C57.0817 84.9615 56.4425 86.5026 55.3059 87.6392C54.1693 88.7758 52.6282 89.4151 51.0208 89.4167C49.9489 89.4167 48.9209 89.8425 48.1629 90.6004C47.405 91.3584 46.9792 92.3864 46.9792 93.4583C46.9792 94.5302 47.405 95.5583 48.1629 96.3162C48.9209 97.0742 49.9489 97.5 51.0208 97.5C54.7712 97.4957 58.3668 96.004 61.0187 93.3521C63.6707 90.7001 65.1624 87.1046 65.1667 83.3542V61.125C65.1667 60.0531 64.7408 59.0251 63.9829 58.2671C63.2249 57.5091 62.1969 57.0833 61.125 57.0833Z" fill="white"/>
</svg>
