<svg width="82" height="58" viewBox="0 0 82 58" fill="none" xmlns="http://www.w3.org/2000/svg">
<path d="M28.8749 36.0728C19.4174 36.0728 0.583252 40.8016 0.583252 50.2187V57.2916H57.1666V50.2187C57.1666 40.8016 38.3324 36.0728 28.8749 36.0728ZM10.0408 49.2083C13.4358 46.8641 21.6403 44.1562 28.8749 44.1562C36.1095 44.1562 44.3141 46.8641 47.7091 49.2083H10.0408ZM28.8749 28.9999C36.6753 28.9999 43.0208 22.6545 43.0208 14.8541C43.0208 7.05367 36.6753 0.708252 28.8749 0.708252C21.0745 0.708252 14.7291 7.05367 14.7291 14.8541C14.7291 22.6545 21.0745 28.9999 28.8749 28.9999ZM28.8749 8.79158C32.2295 8.79158 34.9374 11.4995 34.9374 14.8541C34.9374 18.2087 32.2295 20.9166 28.8749 20.9166C25.5203 20.9166 22.8124 18.2087 22.8124 14.8541C22.8124 11.4995 25.5203 8.79158 28.8749 8.79158ZM57.3283 36.3153C62.0166 39.7103 65.2499 44.237 65.2499 50.2187V57.2916H81.4166V50.2187C81.4166 42.0545 67.2708 37.4066 57.3283 36.3153ZM53.1249 28.9999C60.9253 28.9999 67.2708 22.6545 67.2708 14.8541C67.2708 7.05367 60.9253 0.708252 53.1249 0.708252C50.9424 0.708252 48.9216 1.23367 47.0624 2.12283C49.6087 5.71992 51.1041 10.1253 51.1041 14.8541C51.1041 19.5828 49.6087 23.9882 47.0624 27.5853C48.9216 28.4745 50.9424 28.9999 53.1249 28.9999Z" fill="white"/>
</svg>
