<svg width="21" height="24" viewBox="0 0 21 24" fill="none" xmlns="http://www.w3.org/2000/svg">
<g clip-path="url(#clip0_5896_10002)">
<path d="M20.9802 3.3042C20.9743 3.27423 20.9631 3.24646 20.9546 3.21753C20.946 3.18375 20.9357 3.15044 20.9236 3.11773C20.9083 3.08418 20.8911 3.05152 20.8721 3.0199C20.8584 2.99512 20.8477 2.96936 20.8318 2.94568C20.7584 2.83587 20.6642 2.74158 20.5543 2.66822C20.5307 2.65235 20.5049 2.6416 20.4801 2.62793C20.4485 2.60894 20.4158 2.59175 20.3823 2.57643C20.3496 2.56436 20.3163 2.55401 20.2825 2.54543C20.2536 2.53688 20.2258 2.52571 20.1958 2.51979C20.1314 2.50675 20.0658 2.50012 20 2.5H16.5C16.2348 2.5 15.9804 2.60536 15.7929 2.79289C15.6054 2.98043 15.5 3.23478 15.5 3.5C15.5 3.76522 15.6054 4.01957 15.7929 4.20711C15.9804 4.39464 16.2348 4.5 16.5 4.5H17.5859L15.4711 6.61487C14.5747 5.97497 13.5193 5.59457 12.4208 5.51546C11.3223 5.43636 10.2232 5.66162 9.2444 6.16648C8.26559 6.67135 7.4449 7.43628 6.87253 8.37721C6.30016 9.31814 5.99826 10.3987 6.00001 11.5C6.00003 12.927 6.50034 14.3088 7.41389 15.4051C8.32743 16.5014 9.5964 17.2426 11 17.5V19.5H9.50001C9.23479 19.5 8.98044 19.6054 8.7929 19.7929C8.60536 19.9804 8.50001 20.2348 8.50001 20.5C8.50001 20.7652 8.60536 21.0196 8.7929 21.2071C8.98044 21.3946 9.23479 21.5 9.50001 21.5H11V23C11 23.2652 11.1054 23.5196 11.2929 23.7071C11.4804 23.8946 11.7348 24 12 24C12.2652 24 12.5196 23.8946 12.7071 23.7071C12.8947 23.5196 13 23.2652 13 23V21.5H14.5C14.7652 21.5 15.0196 21.3946 15.2071 21.2071C15.3947 21.0196 15.5 20.7652 15.5 20.5C15.5 20.2348 15.3947 19.9804 15.2071 19.7929C15.0196 19.6054 14.7652 19.5 14.5 19.5H13V17.5C14.4036 17.2426 15.6726 16.5014 16.5861 15.4051C17.4997 14.3088 18 12.927 18 11.5C18 10.2549 17.6101 9.04113 16.8851 8.02893L19 5.91406V7C19 7.26522 19.1054 7.51957 19.2929 7.70711C19.4804 7.89464 19.7348 8 20 8C20.2652 8 20.5196 7.89464 20.7071 7.70711C20.8947 7.51957 21 7.26522 21 7V3.5C20.9999 3.43424 20.9933 3.36865 20.9802 3.3042ZM12 15.5C11.2089 15.5 10.4355 15.2654 9.77773 14.8259C9.11993 14.3864 8.60724 13.7616 8.30449 13.0307C8.00174 12.2998 7.92253 11.4956 8.07687 10.7196C8.23121 9.94371 8.61217 9.23098 9.17158 8.67157C9.73099 8.11216 10.4437 7.7312 11.2196 7.57686C11.9956 7.42252 12.7998 7.50173 13.5307 7.80448C14.2616 8.10723 14.8864 8.61992 15.3259 9.27772C15.7654 9.93552 16 10.7089 16 11.5C15.9988 12.5605 15.577 13.5772 14.8271 14.3271C14.0772 15.077 13.0605 15.4988 12 15.5Z" fill="white" fill-opacity="0.8"/>
<path d="M3.20692 1.79286C3.01941 1.60535 2.76508 1.5 2.49989 1.5C2.2347 1.5 1.98038 1.60535 1.79286 1.79286C1.60535 1.98038 1.5 2.2347 1.5 2.49989C1.5 2.76508 1.60535 3.01941 1.79286 3.20692L3.79286 5.20692C3.98038 5.39444 4.2347 5.49978 4.49989 5.49978C4.76508 5.49978 5.01941 5.39444 5.20692 5.20692C5.39444 5.01941 5.49978 4.76508 5.49978 4.49989C5.49978 4.2347 5.39444 3.98038 5.20692 3.79286L3.20692 1.79286Z" fill="white" fill-opacity="0.8"/>
<path d="M3.5 6.50244H1C0.734784 6.50244 0.48043 6.6078 0.292893 6.79533C0.105357 6.98287 0 7.23722 0 7.50244C0 7.76766 0.105357 8.02201 0.292893 8.20955C0.48043 8.39708 0.734784 8.50244 1 8.50244H3.5C3.76522 8.50244 4.01957 8.39708 4.20711 8.20955C4.39464 8.02201 4.5 7.76766 4.5 7.50244C4.5 7.23722 4.39464 6.98287 4.20711 6.79533C4.01957 6.6078 3.76522 6.50244 3.5 6.50244Z" fill="white" fill-opacity="0.8"/>
<path d="M7.5 4.5C7.76521 4.49999 8.01956 4.39463 8.20709 4.20709C8.39463 4.01956 8.49999 3.76521 8.5 3.5V1C8.5 0.734784 8.39464 0.48043 8.20711 0.292893C8.01957 0.105357 7.76522 0 7.5 0C7.23478 0 6.98043 0.105357 6.79289 0.292893C6.60536 0.48043 6.5 0.734784 6.5 1V3.5C6.50001 3.76521 6.60537 4.01956 6.79291 4.20709C6.98044 4.39463 7.23479 4.49999 7.5 4.5Z" fill="white" fill-opacity="0.8"/>
</g>
<defs>
<clipPath id="clip0_5896_10002">
<rect width="21" height="24" fill="white"/>
</clipPath>
</defs>
</svg>
