<svg width="28" height="28" viewBox="0 0 28 28" fill="none" xmlns="http://www.w3.org/2000/svg">
<path d="M27.125 26.25H0.875C0.642936 26.25 0.420376 26.3422 0.256282 26.5063C0.0921872 26.6704 0 26.8929 0 27.125C0 27.3571 0.0921872 27.5796 0.256282 27.7437C0.420376 27.9078 0.642936 28 0.875 28H27.125C27.3571 28 27.5796 27.9078 27.7437 27.7437C27.9078 27.5796 28 27.3571 28 27.125C28 26.8929 27.9078 26.6704 27.7437 26.5063C27.5796 26.3422 27.3571 26.25 27.125 26.25ZM3.20833 25.0833H24.7917C25.0237 25.0833 25.2463 24.9911 25.4104 24.8271C25.5745 24.663 25.6667 24.4404 25.6667 24.2083C25.6667 23.9763 25.5745 23.7537 25.4104 23.5896C25.2463 23.4255 25.0237 23.3333 24.7917 23.3333H3.20833C2.97627 23.3333 2.75371 23.4255 2.58961 23.5896C2.42552 23.7537 2.33333 23.9763 2.33333 24.2083C2.33333 24.4404 2.42552 24.663 2.58961 24.8271C2.75371 24.9911 2.97627 25.0833 3.20833 25.0833ZM5.83333 9.91667H8.16667V22.1667H5.83333V9.91667ZM10.5 9.91667H12.8333V22.1667H10.5V9.91667ZM15.1667 9.91667H17.5V22.1667H15.1667V9.91667ZM19.8333 9.91667H22.1667V22.1667H19.8333V9.91667ZM4.66667 8.75H23.3333C23.6428 8.75 23.9395 8.62708 24.1583 8.40829C24.3771 8.1895 24.5 7.89275 24.5 7.58333C24.5 7.27391 24.3771 6.97717 24.1583 6.75838C23.9395 6.53958 23.6428 6.41667 23.3333 6.41667H14.5833V4.66667H19.8333V1.16667H14.5833V0.875C14.5833 0.642935 14.4911 0.420376 14.3271 0.256282C14.163 0.0921872 13.9404 0 13.7083 0C13.4763 0 13.2537 0.0921872 13.0896 0.256282C12.9255 0.420376 12.8333 0.642935 12.8333 0.875V6.41667H4.66667C4.35725 6.41667 4.0605 6.53958 3.84171 6.75838C3.62292 6.97717 3.5 7.27391 3.5 7.58333C3.5 7.89275 3.62292 8.1895 3.84171 8.40829C4.0605 8.62708 4.35725 8.75 4.66667 8.75Z" fill="#1D2939"/>
</svg>
