<svg width="98" height="98" viewBox="0 0 98 98" fill="none" xmlns="http://www.w3.org/2000/svg">
<g clip-path="url(#clip0_5595_8139)">
<path d="M4.54167 22.7291H9.04812C9.96013 26.7478 12.2109 30.3372 15.4311 32.9086C18.6514 35.4799 22.6499 36.8805 26.7708 36.8805C30.8917 36.8805 34.8903 35.4799 38.1105 32.9086C41.3308 30.3372 43.5815 26.7478 44.4935 22.7291H53.5065C54.4185 26.7478 56.6692 30.3372 59.8895 32.9086C63.1097 35.4799 67.1083 36.8805 71.2292 36.8805C75.3501 36.8805 79.3486 35.4799 82.5689 32.9086C85.7891 30.3372 88.0399 26.7478 88.9519 22.7291H93.4583C94.5302 22.7291 95.5583 22.3033 96.3162 21.5453C97.0742 20.7873 97.5 19.7593 97.5 18.6874C97.5 17.6155 97.0742 16.5875 96.3162 15.8295C95.5583 15.0716 94.5302 14.6457 93.4583 14.6457H88.9519C88.0399 10.627 85.7891 7.0376 82.5689 4.46626C79.3486 1.89493 75.3501 0.494385 71.2292 0.494385C67.1083 0.494385 63.1097 1.89493 59.8895 4.46626C56.6692 7.0376 54.4185 10.627 53.5065 14.6457H44.4935C43.5815 10.627 41.3308 7.0376 38.1105 4.46626C34.8903 1.89493 30.8917 0.494385 26.7708 0.494385C22.6499 0.494385 18.6514 1.89493 15.4311 4.46626C12.2109 7.0376 9.96013 10.627 9.04812 14.6457H4.54167C3.46975 14.6457 2.44174 15.0716 1.68378 15.8295C0.925817 16.5875 0.5 17.6155 0.5 18.6874C0.5 19.7593 0.925817 20.7873 1.68378 21.5453C2.44174 22.3033 3.46975 22.7291 4.54167 22.7291ZM61.9818 14.6457C62.981 12.3945 64.7786 10.5931 67.0276 9.58909C69.2767 8.58506 71.8179 8.44953 74.161 9.20867C76.5041 9.96781 78.483 11.5678 79.716 13.7C80.949 15.8322 81.3486 18.3454 80.8378 20.7549C80.327 23.1643 78.942 25.2992 76.9499 26.7477C74.9578 28.1962 72.4999 28.8556 70.0503 28.5987C67.6008 28.3417 65.3331 27.1867 63.6849 25.3565C62.0367 23.5262 61.1248 21.1504 61.125 18.6874C61.1294 17.2956 61.4211 15.9196 61.9818 14.6457ZM17.5235 14.6457C18.5227 12.3945 20.3202 10.5931 22.5693 9.58909C24.8184 8.58506 27.3596 8.44953 29.7027 9.20867C32.0458 9.96781 34.0247 11.5678 35.2577 13.7C36.4906 15.8322 36.8903 18.3454 36.3795 20.7549C35.8687 23.1643 34.4836 25.2992 32.4916 26.7477C30.4995 28.1962 28.0416 28.8556 25.592 28.5987C23.1424 28.3417 20.8748 27.1867 19.2266 25.3565C17.5784 23.5262 16.6665 21.1504 16.6667 18.6874C16.671 17.2956 16.9627 15.9196 17.5235 14.6457ZM95.4792 46.9791H34.8542C34.3187 46.9807 33.8056 47.1941 33.427 47.5727C33.0484 47.9514 32.8349 48.4645 32.8333 48.9999V57.063H63.1458C64.7586 57.0647 66.3048 57.706 67.4452 58.8464C68.5856 59.9868 69.2269 61.533 69.2285 63.1458V97.4999H97.5V48.9999C97.4984 48.4645 97.285 47.9514 96.9063 47.5727C96.5277 47.1941 96.0146 46.9807 95.4792 46.9791Z" fill="white"/>
<path d="M61.125 61.125H4.54167C3.47073 61.1282 2.44458 61.555 1.68731 62.3123C0.930043 63.0696 0.503198 64.0957 0.5 65.1667L0.5 97.3585L0.641458 97.5H65.1465L65.1667 97.4798V65.1667C65.1635 64.0957 64.7366 63.0696 63.9794 62.3123C63.2221 61.555 62.1959 61.1282 61.125 61.125ZM52.0312 91.4375H13.6354C12.8315 91.4375 12.0605 91.1181 11.492 90.5497C10.9235 89.9812 10.6042 89.2102 10.6042 88.4062C10.6042 87.6023 10.9235 86.8313 11.492 86.2628C12.0605 85.6944 12.8315 85.375 13.6354 85.375H52.0312C52.8352 85.375 53.6062 85.6944 54.1747 86.2628C54.7431 86.8313 55.0625 87.6023 55.0625 88.4062C55.0625 89.2102 54.7431 89.9812 54.1747 90.5497C53.6062 91.1181 52.8352 91.4375 52.0312 91.4375ZM52.0312 79.3125H13.6354C12.8315 79.3125 12.0605 78.9931 11.492 78.4247C10.9235 77.8562 10.6042 77.0852 10.6042 76.2812C10.6042 75.4773 10.9235 74.7063 11.492 74.1378C12.0605 73.5694 12.8315 73.25 13.6354 73.25H52.0312C52.8352 73.25 53.6062 73.5694 54.1747 74.1378C54.7431 74.7063 55.0625 75.4773 55.0625 76.2812C55.0625 77.0852 54.7431 77.8562 54.1747 78.4247C53.6062 78.9931 52.8352 79.3125 52.0312 79.3125Z" fill="white"/>
</g>
<defs>
<clipPath id="clip0_5595_8139">
<rect width="97" height="97" fill="white" transform="translate(0.5 0.5)"/>
</clipPath>
</defs>
</svg>
