<svg width="28" height="28" viewBox="0 0 28 28" fill="none" xmlns="http://www.w3.org/2000/svg">
<path d="M17.2941 1.75C17.2941 1.28587 17.0338 0.840752 16.5705 0.512563C16.1072 0.184374 15.4788 0 14.8235 0C14.1683 0 13.5399 0.184374 13.0766 0.512563C12.6132 0.840752 12.3529 1.28587 12.3529 1.75V3.5H17.2941V1.75ZM12.3529 15.1667H17.2941V14H21.4118C23.1591 14 24.8348 13.5083 26.0704 12.6332C27.3059 11.758 28 10.571 28 9.33333C28 8.09566 27.3059 6.90867 26.0704 6.0335C24.8348 5.15833 23.1591 4.66667 21.4118 4.66667H9.58588C8.98535 4.29152 8.21247 4.08415 7.41176 4.08333H3.29412C2.42046 4.08333 1.58259 4.32917 0.964825 4.76675C0.347058 5.20434 0 5.79783 0 6.41667C0 7.0355 0.347058 7.629 0.964825 8.06658C1.58259 8.50417 2.42046 8.75 3.29412 8.75H7.41176C8.21247 8.74918 8.98535 8.54181 9.58588 8.16667H21.4118C21.8486 8.16667 22.2675 8.28958 22.5764 8.50838C22.8853 8.72717 23.0588 9.02391 23.0588 9.33333C23.0588 9.64275 22.8853 9.9395 22.5764 10.1583C22.2675 10.3771 21.8486 10.5 21.4118 10.5H17.2941V9.33333H12.3529V10.5H9.88235C8.13504 10.5 6.4593 10.9917 5.22377 11.8668C3.98823 12.742 3.29412 13.929 3.29412 15.1667C3.29412 16.4043 3.98823 17.5913 5.22377 18.4665C6.4593 19.3417 8.13504 19.8333 9.88235 19.8333H18.1176C18.5545 19.8333 18.9734 19.9562 19.2823 20.175C19.5912 20.3938 19.7647 20.6906 19.7647 21C19.7647 21.3094 19.5912 21.6062 19.2823 21.825C18.9734 22.0438 18.5545 22.1667 18.1176 22.1667H17.2941V21H12.3529V22.1667H10.7059C10.0506 22.1667 9.42224 22.351 8.95891 22.6792C8.49559 23.0074 8.23529 23.4525 8.23529 23.9167C8.23529 24.3808 8.49559 24.8259 8.95891 25.1541C9.42224 25.4823 10.0506 25.6667 10.7059 25.6667H12.3529V26.25C12.3512 26.4493 12.4014 26.647 12.5012 26.8333C12.5406 26.9179 12.5901 26.9998 12.6494 27.0783C12.6743 27.1204 12.7076 27.1597 12.7482 27.195C12.7728 27.2255 12.8003 27.2547 12.8306 27.2825C13.1104 27.5578 13.5007 27.7671 13.9506 27.8833C13.9938 27.901 14.0413 27.9129 14.0906 27.9183C14.1458 27.9353 14.204 27.9471 14.2635 27.9533C14.3092 27.9625 14.3561 27.9684 14.4035 27.9708C14.6808 28.0097 14.9662 28.0097 15.2435 27.9708C15.2909 27.9684 15.3378 27.9625 15.3835 27.9533C15.9605 27.8607 16.47 27.6222 16.8165 27.2825C16.8467 27.2547 16.8743 27.2255 16.8988 27.195C16.9395 27.1597 16.9727 27.1204 16.9976 27.0783C17.0569 26.9998 17.1065 26.9179 17.1459 26.8333C17.2456 26.647 17.2959 26.4493 17.2941 26.25V25.6667H18.1176C19.865 25.6667 21.5407 25.175 22.7762 24.2998C24.0118 23.4247 24.7059 22.2377 24.7059 21C24.7059 19.7623 24.0118 18.5753 22.7762 17.7002C21.5407 16.825 19.865 16.3333 18.1176 16.3333H9.88235C9.44553 16.3333 9.02659 16.2104 8.71771 15.9916C8.40882 15.7728 8.23529 15.4761 8.23529 15.1667C8.23529 14.8572 8.40882 14.5605 8.71771 14.3417C9.02659 14.1229 9.44553 14 9.88235 14H12.3529V15.1667ZM3.29412 6.41667C3.13124 6.41667 2.97202 6.38245 2.83659 6.31836C2.70116 6.25426 2.59561 6.16316 2.53328 6.05657C2.47094 5.94998 2.45464 5.83269 2.48641 5.71953C2.51819 5.60637 2.59662 5.50243 2.71179 5.42085C2.82697 5.33927 2.97371 5.28372 3.13346 5.26121C3.2932 5.2387 3.45879 5.25025 3.60927 5.2944C3.75975 5.33855 3.88837 5.41332 3.97886 5.50925C4.06935 5.60518 4.11765 5.71796 4.11765 5.83333C4.117 5.9879 4.03002 6.13601 3.87572 6.2453C3.72142 6.3546 3.51233 6.4162 3.29412 6.41667Z" fill="#1D2939"/>
</svg>
