<svg width="28" height="28" viewBox="0 0 28 28" fill="none" xmlns="http://www.w3.org/2000/svg">
<path d="M23.3333 13.4167V15.75H20.9999L17.4999 4.08333V1.75H15.1666V4.08333H12.7983V1.75H10.4649V4.22333L6.99992 15.75H4.66659V13.4167H2.33325V26.25H12.8333V20.4167H15.1666V26.25H25.6666V13.4167H23.3333ZM17.8616 13.4167H10.1383L10.8383 11.0833H17.1616L17.8616 13.4167ZM16.4616 8.75H11.5383L12.2383 6.41667H15.7616L16.4616 8.75ZM23.3333 23.9167H17.4999V18.0833H10.4999V23.9167H4.66659V18.0833H8.73825L9.43825 15.75H18.5616L19.2616 18.0833H23.3333V23.9167Z" fill="#1D2939"/>
</svg>
