<svg width="18" height="27" viewBox="0 0 18 27" fill="none" xmlns="http://www.w3.org/2000/svg">
<path d="M0.364258 0.274902V26.2749H17.3643V0.274902H0.364258ZM9.92676 23.0249C9.92676 23.3122 9.81482 23.5878 9.61556 23.7909C9.4163 23.9941 9.14605 24.1082 8.86426 24.1082C8.58247 24.1082 8.31221 23.9941 8.11296 23.7909C7.9137 23.5878 7.80176 23.3122 7.80176 23.0249V19.7749C7.8026 19.4878 7.91481 19.2128 8.11389 19.0098C8.31296 18.8068 8.58272 18.6924 8.86426 18.6916C9.14545 18.6936 9.41457 18.8083 9.61341 19.0111C9.81224 19.2138 9.92481 19.4882 9.92676 19.7749V23.0249ZM9.92676 14.8999C9.92676 15.1872 9.81482 15.4628 9.61556 15.6659C9.4163 15.8691 9.14605 15.9832 8.86426 15.9832C8.58247 15.9832 8.31221 15.8691 8.11296 15.6659C7.9137 15.4628 7.80176 15.1872 7.80176 14.8999V11.6499C7.8026 11.3628 7.91481 11.0878 8.11389 10.8848C8.31296 10.6818 8.58272 10.5674 8.86426 10.5666C9.14545 10.5686 9.41457 10.6833 9.61341 10.8861C9.81224 11.0888 9.92481 11.3632 9.92676 11.6499V14.8999ZM9.92676 6.7749C9.92676 7.06222 9.81482 7.33777 9.61556 7.54093C9.4163 7.7441 9.14605 7.85824 8.86426 7.85824C8.58247 7.85824 8.31221 7.7441 8.11296 7.54093C7.9137 7.33777 7.80176 7.06222 7.80176 6.7749V3.5249C7.8026 3.23785 7.91481 2.9628 8.11389 2.75982C8.31296 2.55684 8.58272 2.44243 8.86426 2.44157C9.14545 2.44356 9.41457 2.55833 9.61341 2.76107C9.81224 2.9638 9.92481 3.2382 9.92676 3.5249V6.7749Z" fill="white"/>
</svg>
