<svg width="24" height="24" viewBox="0 0 24 24" fill="none" xmlns="http://www.w3.org/2000/svg">
<path fill-rule="evenodd" clip-rule="evenodd" d="M24.0002 7.33333C24.0002 8.34462 23.6172 9.31841 22.9283 10.0587C22.2393 10.799 21.2955 11.2509 20.2868 11.3233L18.2528 13.3567C18.8228 14.3213 19.0795 15.6013 19.2055 17.0247C19.3335 18.4707 19.3335 20.1613 19.3335 21.9773V22.6667H18.0002V22C18.0002 20.1573 18.0002 18.5233 17.8775 17.1427C17.7702 15.9333 17.5742 14.9913 17.2488 14.3073C16.4508 14.2007 15.7222 13.7993 15.0982 13.3047C14.3622 12.722 13.7075 11.9613 13.1688 11.228C12.6516 10.5176 12.1828 9.77328 11.7655 9C10.8695 9.62 9.66216 10 8.3335 10C5.57216 10 3.3335 8.35867 3.3335 6.33333C3.3335 4.47133 5.2255 2.93333 7.67683 2.698C8.5315 1.128 10.8902 0 13.6668 0C16.8055 0 19.4108 1.442 19.9128 3.334L20.0002 3.33333C21.061 3.33333 22.0784 3.75476 22.8286 4.50491C23.5787 5.25505 24.0002 6.27247 24.0002 7.33333ZM16.0182 7.71533C15.2491 7.90651 14.4593 8.00212 13.6668 8C13.3775 8 13.0922 7.988 12.8135 7.964L12.7628 8.036C12.8348 8.17467 12.9295 8.354 13.0455 8.56067C13.4266 9.24662 13.8515 9.90732 14.3175 10.5387V10.4413C15.0542 10.4413 15.8275 10.0433 16.4688 9.56933C16.5182 9.53333 16.5662 9.49733 16.6122 9.46067C16.2802 8.93346 16.0767 8.33562 16.0182 7.71533ZM17.5022 10.4573C17.8415 10.7291 18.223 10.9437 18.6315 11.0927L16.8848 12.8393C16.5748 12.714 16.2542 12.5193 15.9255 12.2593C15.6898 12.0707 15.4664 11.8672 15.2568 11.65C16.0455 11.446 16.7435 11.024 17.2608 10.6427C17.3448 10.5807 17.4255 10.5187 17.5022 10.4573Z" fill="#344054"/>
<path d="M6.336 14.6678C6.77803 14.6675 7.20181 14.4915 7.51412 14.1787C7.82643 13.8659 8.00169 13.4418 8.00133 12.9998C8.00098 12.5578 7.82505 12.134 7.51224 11.8217C7.19942 11.5094 6.77536 11.3341 6.33333 11.3345C5.89131 11.3348 5.46752 11.5108 5.15521 11.8236C5.00057 11.9785 4.87795 12.1623 4.79436 12.3646C4.71076 12.5668 4.66782 12.7836 4.668 13.0025C4.66818 13.2213 4.71146 13.438 4.79538 13.6402C4.8793 13.8423 5.00221 14.026 5.1571 14.1806C5.46991 14.4929 5.89397 14.6682 6.336 14.6678ZM1.66933 17.3345C2.11136 17.3341 2.53514 17.1582 2.84745 16.8454C3.15976 16.5326 3.33502 16.1085 3.33467 15.6665C3.33431 15.2244 3.15838 14.8007 2.84557 14.4884C2.53276 14.176 2.10869 14.0008 1.66667 14.0011C1.22464 14.0015 0.800856 14.1774 0.488546 14.4902C0.176235 14.803 0.000979615 15.2271 0.00133324 15.6691C0.00168686 16.1112 0.177621 16.5349 0.490431 16.8473C0.803242 17.1596 1.22731 17.3348 1.66933 17.3345ZM14.668 15.6665C14.6682 15.8853 14.6252 16.1021 14.5416 16.3044C14.458 16.5067 14.3354 16.6905 14.1808 16.8454C14.0261 17.0003 13.8425 17.1232 13.6404 17.2071C13.4382 17.291 13.2215 17.3343 13.0027 17.3345C12.5606 17.3348 12.1366 17.1596 11.8238 16.8473C11.511 16.5349 11.335 16.1112 11.3347 15.6691C11.3345 15.4503 11.3774 15.2335 11.461 15.0312C11.5446 14.829 11.6672 14.6451 11.8219 14.4902C12.1342 14.1774 12.558 14.0015 13 14.0011C13.442 14.0008 13.8661 14.176 14.1789 14.4884C14.4917 14.8007 14.6676 15.2244 14.668 15.6665ZM6 15.3331C6.35362 15.3331 6.69276 15.4736 6.94281 15.7237C7.19286 15.9737 7.33333 16.3129 7.33333 16.6665V17.9998H8.66667C9.02029 17.9998 9.35943 18.1403 9.60948 18.3903C9.85952 18.6404 10 18.9795 10 19.3331C10 19.6868 9.85952 20.0259 9.60948 20.2759C9.35943 20.526 9.02029 20.6665 8.66667 20.6665H6C5.64638 20.6665 5.30724 20.526 5.05719 20.2759C4.80714 20.0259 4.66667 19.6868 4.66667 19.3331V16.6665C4.66667 16.3129 4.80714 15.9737 5.05719 15.7237C5.30724 15.4736 5.64638 15.3331 6 15.3331ZM2.66667 19.3331C2.66667 18.9795 2.52619 18.6404 2.27614 18.3903C2.02609 18.1403 1.68696 17.9998 1.33333 17.9998C0.979711 17.9998 0.640573 18.1403 0.390524 18.3903C0.140476 18.6404 0 18.9795 0 19.3331V22.6665C0 23.0201 0.140476 23.3592 0.390524 23.6093C0.640573 23.8593 0.979711 23.9998 1.33333 23.9998H4C4.35362 23.9998 4.69276 23.8593 4.94281 23.6093C5.19286 23.3592 5.33333 23.0201 5.33333 22.6665C5.33333 22.3128 5.19286 21.9737 4.94281 21.7237C4.69276 21.4736 4.35362 21.3331 4 21.3331H2.66667V19.3331ZM13.3333 17.9998C12.9797 17.9998 12.6406 18.1403 12.3905 18.3903C12.1405 18.6404 12 18.9795 12 19.3331V21.3331H10.6667C10.313 21.3331 9.97391 21.4736 9.72386 21.7237C9.47381 21.9737 9.33333 22.3128 9.33333 22.6665C9.33333 23.0201 9.47381 23.3592 9.72386 23.6093C9.97391 23.8593 10.313 23.9998 10.6667 23.9998H13.3333C13.687 23.9998 14.0261 23.8593 14.2761 23.6093C14.5262 23.3592 14.6667 23.0201 14.6667 22.6665V19.3331C14.6667 18.9795 14.5262 18.6404 14.2761 18.3903C14.0261 18.1403 13.687 17.9998 13.3333 17.9998Z" fill="#344054"/>
</svg>
