<svg width="21" height="24" viewBox="0 0 21 24" fill="none" xmlns="http://www.w3.org/2000/svg">
<path d="M3.86328 10.915C4.58816 10.915 5.17578 10.2434 5.17578 9.41496C5.17578 8.58653 4.58816 7.91496 3.86328 7.91496C3.13841 7.91496 2.55078 8.58653 2.55078 9.41496C2.55078 10.2434 3.13841 10.915 3.86328 10.915Z" fill="white" fill-opacity="0.8"/>
<path d="M19.3245 9.08496C19.3245 5.21496 16.5858 2.08496 13.1995 2.08496C9.81328 2.08496 7.07453 5.21496 7.07453 9.08496C7.07453 12.555 9.27953 15.425 12.1758 15.975V19.915H5.17578V16.915H6.05078V12.915C6.05078 12.365 5.65703 11.915 5.17578 11.915H2.55078C2.06953 11.915 1.67578 12.365 1.67578 12.915V16.915H2.55078V21.915H16.5508V19.915H13.9258V16.035C16.962 15.625 19.3245 12.675 19.3245 9.08496ZM13.1995 14.085C10.7845 14.085 8.82453 11.845 8.82453 9.08496C8.82453 6.32496 10.7845 4.08496 13.1995 4.08496C15.6145 4.08496 17.5745 6.32496 17.5745 9.08496C17.5745 11.845 15.6145 14.085 13.1995 14.085Z" fill="white" fill-opacity="0.8"/>
</svg>
