<svg width="98" height="98" viewBox="0 0 98 98" fill="none" xmlns="http://www.w3.org/2000/svg">
<g clip-path="url(#clip0_5701_11068)">
<path d="M35.5276 81.8557L16.6665 92.6335V49.5224L35.5276 38.7446M35.5276 81.8557L57.0832 92.6335M35.5276 81.8557V38.7446M57.0832 92.6335L75.9443 81.8557V38.7446L57.0832 49.5224M57.0832 92.6335V49.5224M57.0832 49.5224L35.5276 38.7446" stroke="white" stroke-width="4" stroke-linecap="round" stroke-linejoin="round"/>
<g clip-path="url(#clip1_5701_11068)">
<path d="M71.5984 22.7508C71.5984 34.3109 56.7355 44.2195 56.7355 44.2195C56.7355 44.2195 41.8726 34.3109 41.8726 22.7508C41.8726 18.809 43.4385 15.0285 46.2258 12.2412C49.0131 9.45385 52.7936 7.88794 56.7355 7.88794C60.6773 7.88794 64.4578 9.45385 67.2451 12.2412C70.0325 15.0285 71.5984 18.809 71.5984 22.7508Z" stroke="white" stroke-width="4" stroke-linecap="round" stroke-linejoin="round"/>
<path d="M56.7355 27.7051C59.4716 27.7051 61.6898 25.487 61.6898 22.7508C61.6898 20.0147 59.4716 17.7965 56.7355 17.7965C53.9993 17.7965 51.7812 20.0147 51.7812 22.7508C51.7812 25.487 53.9993 27.7051 56.7355 27.7051Z" stroke="white" stroke-width="4" stroke-linecap="round" stroke-linejoin="round"/>
</g>
</g>
<defs>
<clipPath id="clip0_5701_11068">
<rect width="97" height="97" fill="white" transform="translate(0.5 0.5)"/>
</clipPath>
<clipPath id="clip1_5701_11068">
<rect width="39.6344" height="39.6344" fill="white" transform="translate(36.9182 6.23657)"/>
</clipPath>
</defs>
</svg>
