<svg width="98" height="98" viewBox="0 0 98 98" fill="none" xmlns="http://www.w3.org/2000/svg">
<g clip-path="url(#clip0_5701_11079)">
<path d="M40.9167 20.7083C40.9167 16.7115 39.7315 12.8044 37.511 9.48119C35.2904 6.15795 32.1343 3.5678 28.4417 2.03828C24.7491 0.508756 20.6859 0.108564 16.7659 0.888307C12.8459 1.66805 9.24508 3.59271 6.41889 6.41889C3.59271 9.24508 1.66805 12.8459 0.888307 16.7659C0.108564 20.6859 0.508756 24.7491 2.03828 28.4417C3.5678 32.1343 6.15795 35.2904 9.48119 37.511C12.8044 39.7315 16.7115 40.9167 20.7083 40.9167C26.0673 40.9145 31.2061 38.7848 34.9954 34.9954C38.7848 31.2061 40.9145 26.0673 40.9167 20.7083ZM32.126 16.1817L17.9802 28.3067C17.6135 28.6186 17.1481 28.7905 16.6667 28.7917C16.1306 28.7896 15.6162 28.5795 15.2319 28.2056L9.16938 22.1431C8.98096 21.9547 8.8315 21.731 8.72953 21.4848C8.62756 21.2387 8.57507 20.9748 8.57507 20.7083C8.57507 20.1702 8.78885 19.6541 9.16938 19.2736C9.54991 18.893 10.066 18.6792 10.6042 18.6792C11.1423 18.6792 11.6584 18.893 12.039 19.2736L16.7677 24.0225L29.499 13.11C29.9063 12.7616 30.4353 12.5893 30.9697 12.631C31.2343 12.6517 31.4922 12.7242 31.7288 12.8445C31.9653 12.9649 32.1758 13.1306 32.3483 13.3323C32.5208 13.534 32.6519 13.7677 32.7341 14.02C32.8163 14.2724 32.848 14.5384 32.8273 14.803C32.8067 15.0676 32.7341 15.3255 32.6138 15.5621C32.4935 15.7986 32.3277 16.0092 32.126 16.1817Z" fill="white"/>
<path d="M93.4583 12.6251H45.706C46.5521 15.2359 46.9818 17.9638 46.9791 20.7084C46.9808 22.0614 46.8795 23.4125 46.676 24.7501H51.0208C51.5562 24.7517 52.0693 24.9651 52.4479 25.3437C52.8266 25.7223 53.04 26.2354 53.0416 26.7709V42.9376C53.04 43.473 52.8266 43.9861 52.4479 44.3647C52.0693 44.7434 51.5562 44.9568 51.0208 44.9584H42.9374C42.402 44.9568 41.8889 44.7434 41.5102 44.3647C41.1316 43.9861 40.9182 43.473 40.9166 42.9376V37.4813C38.6864 40.1764 35.9376 42.3961 32.8333 44.0086V61.1251H97.4999V16.6667C97.4967 15.5958 97.0699 14.5696 96.3126 13.8124C95.5553 13.0551 94.5292 12.6283 93.4583 12.6251ZM71.2291 42.9376C71.2275 43.473 71.0141 43.9861 70.6354 44.3647C70.2568 44.7434 69.7437 44.9568 69.2083 44.9584H61.1249C60.5895 44.9568 60.0764 44.7434 59.6977 44.3647C59.3191 43.9861 59.1057 43.473 59.1041 42.9376V26.7709C59.1057 26.2354 59.3191 25.7223 59.6977 25.3437C60.0764 24.9651 60.5895 24.7517 61.1249 24.7501H69.2083C69.7437 24.7517 70.2568 24.9651 70.6354 25.3437C71.0141 25.7223 71.2275 26.2354 71.2291 26.7709V42.9376ZM89.4166 42.9376C89.415 43.473 89.2016 43.9861 88.8229 44.3647C88.4443 44.7434 87.9312 44.9568 87.3958 44.9584H79.3124C78.777 44.9568 78.2639 44.7434 77.8852 44.3647C77.5066 43.9861 77.2932 43.473 77.2916 42.9376V26.7709C77.2932 26.2354 77.5066 25.7223 77.8852 25.3437C78.2639 24.9651 78.777 24.7517 79.3124 24.7501H87.3958C87.9312 24.7517 88.4443 24.9651 88.8229 25.3437C89.2016 25.7223 89.415 26.2354 89.4166 26.7709V42.9376ZM44.9583 8.58339H85.3749C85.9056 8.58633 86.4315 8.48226 86.921 8.27741C87.4106 8.07255 87.8538 7.77111 88.2243 7.3911C88.6043 7.02065 88.9058 6.57739 89.1106 6.08783C89.3155 5.59826 89.4195 5.07242 89.4166 4.54172C89.4134 3.47079 88.9865 2.44463 88.2293 1.68737C87.472 0.930099 86.4459 0.503254 85.3749 0.500056H44.9583C44.4276 0.497232 43.9018 0.601352 43.4122 0.806201C42.9227 1.01105 42.4794 1.31243 42.1089 1.69235C41.4779 2.30147 41.0718 3.1064 40.957 3.97589C42.1005 5.361 43.1025 6.85714 43.9478 8.44193C44.2756 8.5398 44.6162 8.5875 44.9583 8.58339ZM32.8333 97.5001H57.0833V77.2917C57.0865 76.2208 57.5133 75.1946 58.2706 74.4374C59.0278 73.6801 60.054 73.2533 61.1249 73.2501H69.2083C70.2792 73.2533 71.3053 73.6801 72.0626 74.4374C72.8199 75.1946 73.2467 76.2208 73.2499 77.2917V97.5001H97.4999V65.1667H32.8333V97.5001Z" fill="white"/>
</g>
<defs>
<clipPath id="clip0_5701_11079">
<rect width="97" height="97" fill="white" transform="translate(0.5 0.5)"/>
</clipPath>
</defs>
</svg>
