<svg width="33" height="39" viewBox="0 0 33 39" fill="none" xmlns="http://www.w3.org/2000/svg">
<path d="M27.5838 11.6569L16.4997 0.592285L5.41551 11.6569C2.36051 14.7119 0.833008 18.7852 0.833008 22.7019C0.833008 26.6185 2.36051 30.7506 5.41551 33.8056C8.47051 36.8606 12.4851 38.4077 16.4997 38.4077C20.5143 38.4077 24.5288 36.8606 27.5838 33.8056C30.6388 30.7506 32.1663 26.6185 32.1663 22.7019C32.1663 18.7852 30.6388 14.7119 27.5838 11.6569ZM4.74967 23.4069C4.76926 19.4902 5.96384 17.0031 8.19634 14.7902L16.4997 6.31062L24.803 14.8881C27.0355 17.0815 28.2301 19.4902 28.2497 23.4069H4.74967Z" fill="#4662EA"/>
</svg>
