<svg width="21" height="24" viewBox="0 0 21 24" fill="none" xmlns="http://www.w3.org/2000/svg">
<g clip-path="url(#clip0_5896_10032)">
<path d="M8.75 5C8.75 4.0111 8.49341 3.0444 8.01268 2.22215C7.53195 1.39991 6.84867 0.759043 6.04924 0.380605C5.24982 0.00216642 4.37015 -0.0968503 3.52148 0.0960759C2.67282 0.289002 1.89326 0.765206 1.28141 1.46447C0.669555 2.16373 0.252877 3.05465 0.0840664 4.02455C-0.084744 4.99446 0.00189562 5.99979 0.333029 6.91342C0.664162 7.82705 1.22492 8.60794 1.94438 9.15735C2.66385 9.70676 3.50971 10 4.375 10C5.53518 9.99947 6.64771 9.47252 7.46808 8.53495C8.28845 7.59738 8.74954 6.32592 8.75 5ZM4.375 8.5C4.28847 8.5 4.20389 8.47068 4.13194 8.41574C4.05999 8.3608 4.00392 8.28271 3.9708 8.19134C3.93769 8.09998 3.92903 7.99945 3.94591 7.90246C3.96279 7.80547 4.00446 7.71638 4.06564 7.64645C4.12683 7.57652 4.20478 7.5289 4.28965 7.50961C4.37452 7.49032 4.46248 7.50022 4.54243 7.53806C4.62237 7.57591 4.6907 7.63999 4.73877 7.72222C4.78684 7.80444 4.8125 7.90111 4.8125 8C4.81216 8.13249 4.76595 8.25944 4.68398 8.35312C4.60201 8.4468 4.49093 8.49961 4.375 8.5ZM4.8125 6C4.8125 6.13261 4.76641 6.25979 4.68436 6.35356C4.60231 6.44732 4.49103 6.5 4.375 6.5C4.25897 6.5 4.14769 6.44732 4.06564 6.35356C3.9836 6.25979 3.9375 6.13261 3.9375 6V2C3.9375 1.86739 3.9836 1.74022 4.06564 1.64645C4.14769 1.55268 4.25897 1.5 4.375 1.5C4.49103 1.5 4.60231 1.55268 4.68436 1.64645C4.76641 1.74022 4.8125 1.86739 4.8125 2V6Z" fill="white" fill-opacity="0.8"/>
<path d="M8.00625 0C8.72822 0.684166 9.29085 1.56186 9.64399 2.55484C9.99712 3.54782 10.1298 4.62523 10.0302 5.69102C9.93054 6.75682 9.60172 7.77789 9.07301 8.6632C8.5443 9.54852 7.83214 10.2706 7 10.765V24H21V0H8.00625ZM14.875 21C14.875 21.2652 14.7828 21.5196 14.6187 21.7071C14.4546 21.8946 14.2321 22 14 22C13.7679 22 13.5454 21.8946 13.3813 21.7071C13.2172 21.5196 13.125 21.2652 13.125 21V18C13.1257 17.735 13.2181 17.4811 13.382 17.2938C13.546 17.1064 13.7681 17.0008 14 17C14.2315 17.002 14.4531 17.108 14.6168 17.2951C14.7805 17.4822 14.8733 17.7354 14.875 18V21ZM14.875 13.5C14.875 13.7652 14.7828 14.0196 14.6187 14.2071C14.4546 14.3946 14.2321 14.5 14 14.5C13.7679 14.5 13.5454 14.3946 13.3813 14.2071C13.2172 14.0196 13.125 13.7652 13.125 13.5V10.5C13.1257 10.235 13.2181 9.98113 13.382 9.79377C13.546 9.6064 13.7681 9.50079 14 9.5C14.2315 9.50196 14.4531 9.60795 14.6168 9.79506C14.7805 9.98217 14.8733 10.2354 14.875 10.5V13.5ZM14.875 6C14.875 6.26522 14.7828 6.51957 14.6187 6.70711C14.4546 6.89464 14.2321 7 14 7C13.7679 7 13.5454 6.89464 13.3813 6.70711C13.2172 6.51957 13.125 6.26522 13.125 6V3C13.1257 2.73503 13.2181 2.48113 13.382 2.29377C13.546 2.1064 13.7681 2.00079 14 2C14.2315 2.00196 14.4531 2.10795 14.6168 2.29506C14.7805 2.48217 14.8733 2.73539 14.875 3V6Z" fill="white" fill-opacity="0.8"/>
</g>
<defs>
<clipPath id="clip0_5896_10032">
<rect width="21" height="24" fill="white"/>
</clipPath>
</defs>
</svg>
