<svg width="28" height="28" viewBox="0 0 28 28" fill="none" xmlns="http://www.w3.org/2000/svg">
<g clip-path="url(#clip0_5745_10410)">
<path d="M10.5006 12.8329C11.1123 12.834 11.7182 12.7147 12.2837 12.4816C12.8493 12.2486 13.3634 11.9064 13.7967 11.4747C14.23 11.043 14.5741 10.5301 14.8092 9.96541C15.0443 9.4007 15.166 8.79521 15.1671 8.18349C15.1671 5.86173 11.3464 0.961526 10.6173 0.0573214C10.6034 0.0396168 10.5857 0.0252989 10.5655 0.0154522C10.5453 0.00560546 10.5231 0.000488281 10.5006 0.000488281C10.4782 0.000488281 10.456 0.00560546 10.4358 0.0154522C10.4155 0.0252989 10.3978 0.0396168 10.384 0.0573214C9.65484 0.961526 5.83416 5.86173 5.83416 8.18349C5.83531 8.79521 5.95692 9.4007 6.19206 9.96541C6.42719 10.5301 6.77124 11.043 7.20456 11.4747C7.63788 11.9064 8.15199 12.2486 8.71753 12.4816C9.28307 12.7147 9.88897 12.834 10.5006 12.8329ZM22.7501 16.9164H14.8755C14.3348 16.919 13.817 17.1349 13.4347 17.5173C13.0524 17.8996 12.8365 18.4174 12.8339 18.9581C12.8345 19.4994 13.0498 20.0184 13.4325 20.4012C13.8153 20.7839 14.3342 20.9992 14.8755 20.9999H18.0837C18.3924 21.0022 18.6878 21.1258 18.906 21.3441C19.1243 21.5624 19.248 21.8579 19.2503 22.1666C19.2493 22.4757 19.1261 22.7719 18.9076 22.9905C18.689 23.2092 18.3928 23.3324 18.0837 23.3333H12.8339C12.4912 23.3303 12.1607 23.2063 11.9006 22.9833L3.97341 15.2655C3.7419 15.0349 3.46473 14.8553 3.1597 14.7382C2.85468 14.6212 2.52853 14.5692 2.20223 14.5857C1.87593 14.6022 1.55668 14.6867 1.265 14.8339C0.973313 14.9811 0.715647 15.1877 0.50855 15.4405C0.14475 15.9083 -0.0332665 16.4942 0.00872719 17.0854C0.0507209 17.6766 0.30976 18.2314 0.736041 18.6431L9.61984 27.3176C10.0579 27.7549 10.6517 28.0004 11.2706 28.0002H22.7501C24.1425 28.0002 25.4778 27.447 26.4623 26.4624C27.4468 25.4778 27.9999 24.1424 27.9999 22.7499V22.1666C27.9999 20.7741 27.4468 19.4387 26.4623 18.4541C25.4778 17.4695 24.1425 16.9164 22.7501 16.9164Z" fill="#1D2939"/>
</g>
<defs>
<clipPath id="clip0_5745_10410">
<rect width="28" height="28" fill="white"/>
</clipPath>
</defs>
</svg>
