<svg width="21" height="41" viewBox="0 0 21 41" fill="none" xmlns="http://www.w3.org/2000/svg">
<path d="M16.3747 22.4582V6.7915C16.3747 3.54067 13.7505 0.916504 10.4997 0.916504C7.24884 0.916504 4.62468 3.54067 4.62468 6.7915V22.4582C2.25509 24.2403 0.708008 27.0994 0.708008 30.2915C0.708008 35.6965 5.09468 40.0832 10.4997 40.0832C15.9047 40.0832 20.2913 35.6965 20.2913 30.2915C20.2913 27.0994 18.7443 24.2403 16.3747 22.4582ZM8.54134 18.5415V6.7915C8.54134 5.71442 9.42259 4.83317 10.4997 4.83317C11.5768 4.83317 12.458 5.71442 12.458 6.7915V8.74984H10.4997V10.7082H12.458V14.6248H10.4997V16.5832H12.458V18.5415H8.54134Z" fill="#FF6D6D"/>
</svg>
