<svg width="21" height="24" viewBox="0 0 21 24" fill="none" xmlns="http://www.w3.org/2000/svg">
<path d="M17.5 10H14.875V8.86C16.38 8.41 17.5 6.86 17.5 5H14.875V4C14.875 3.45 14.4812 3 14 3H7C6.51875 3 6.125 3.45 6.125 4V5H3.5C3.5 6.86 4.62 8.41 6.125 8.86V10H3.5C3.5 11.86 4.62 13.41 6.125 13.86V15H3.5C3.5 16.86 4.62 18.41 6.125 18.86V20C6.125 20.55 6.51875 21 7 21H14C14.4812 21 14.875 20.55 14.875 20V18.86C16.38 18.41 17.5 16.86 17.5 15H14.875V13.86C16.38 13.41 17.5 11.86 17.5 10ZM13.125 19H7.875V5H13.125V19ZM10.5 18C11.2263 18 11.8125 17.33 11.8125 16.5C11.8125 15.67 11.2263 15 10.5 15C9.77375 15 9.1875 15.67 9.1875 16.5C9.1875 17.33 9.77375 18 10.5 18ZM10.5 13.5C11.2263 13.5 11.8125 12.83 11.8125 12C11.8125 11.17 11.2263 10.5 10.5 10.5C9.77375 10.5 9.1875 11.17 9.1875 12C9.1875 12.83 9.77375 13.5 10.5 13.5ZM10.5 9C11.2263 9 11.8125 8.33 11.8125 7.5C11.8125 6.67 11.2263 6 10.5 6C9.77375 6 9.1875 6.67 9.1875 7.5C9.1875 8.33 9.77375 9 10.5 9Z" fill="white" fill-opacity="0.8"/>
</svg>
