<svg width="98" height="98" viewBox="0 0 98 98" fill="none" xmlns="http://www.w3.org/2000/svg">
<path d="M49 32.8334C56.8004 32.8334 63.1458 39.1788 63.1458 46.9793C63.1458 54.7797 56.8004 61.1251 49 61.1251C41.1996 61.1251 34.8542 54.7797 34.8542 46.9793C34.8542 39.1788 41.1996 32.8334 49 32.8334ZM67.3088 34.3693L83.3542 18.3642V28.7917H91.4375V4.54175H67.1875V12.6251H77.615L61.5696 28.6705C58.0129 26.2051 53.6883 24.7501 49 24.7501C44.3117 24.7501 39.9871 26.2051 36.4304 28.6705L33.8033 26.0434L39.5021 20.3447L33.8033 14.6055L28.0642 20.3042L20.385 12.6251H30.8125V4.54175H6.5625V28.7917H14.6458V18.3642L22.3654 26.0434L16.6262 31.7826L22.325 37.4813L28.0237 31.7826L30.6508 34.4097C28.2258 37.9663 26.7708 42.2909 26.7708 46.9793C26.7708 57.8918 34.6117 66.9451 44.9583 68.8447V77.2918H36.875V85.3751H44.9583V93.4584H53.0417V85.3751H61.125V77.2918H53.0417V68.8447C63.3883 66.9451 71.2292 57.8918 71.2292 46.9793C71.2292 42.2909 69.7742 37.9663 67.3088 34.3693Z" fill="white"/>
</svg>
