<svg width="28" height="28" viewBox="0 0 28 28" fill="none" xmlns="http://www.w3.org/2000/svg">
<path d="M26.8333 23.9167C27.1428 23.9167 27.4395 23.8245 27.6583 23.6604C27.8771 23.4963 28 23.2737 28 23.0417C28 22.8096 27.8771 22.587 27.6583 22.4229C27.4395 22.2589 27.1428 22.1667 26.8333 22.1667H24.1111V21H26.8333C27.1428 21 27.4395 20.9078 27.6583 20.7437C27.8771 20.5796 28 20.3571 28 20.125C28 19.8929 27.8771 19.6704 27.6583 19.5063C27.4395 19.3422 27.1428 19.25 26.8333 19.25H24.1111V18.0833H25.6667C26.0788 18.0824 26.4738 17.9592 26.7653 17.7406C27.0567 17.522 27.221 17.2258 27.2222 16.9167V1.16667C27.221 0.857531 27.0567 0.561321 26.7653 0.342729C26.4738 0.124136 26.0788 0.000923257 25.6667 0L2.33333 0C1.92115 0.000923257 1.52621 0.124136 1.23475 0.342729C0.943293 0.561321 0.779009 0.857531 0.777778 1.16667V16.9167C0.779009 17.2258 0.943293 17.522 1.23475 17.7406C1.52621 17.9592 1.92115 18.0824 2.33333 18.0833H3.88889V19.25H1.16667C0.857247 19.25 0.560501 19.3422 0.341709 19.5063C0.122916 19.6704 0 19.8929 0 20.125C0 20.3571 0.122916 20.5796 0.341709 20.7437C0.560501 20.9078 0.857247 21 1.16667 21H3.88889V22.1667H1.16667C0.857247 22.1667 0.560501 22.2589 0.341709 22.4229C0.122916 22.587 0 22.8096 0 23.0417C0 23.2737 0.122916 23.4963 0.341709 23.6604C0.560501 23.8245 0.857247 23.9167 1.16667 23.9167H3.88889V25.0833H1.16667C0.857247 25.0833 0.560501 25.1755 0.341709 25.3396C0.122916 25.5037 0 25.7263 0 25.9583C0 26.1904 0.122916 26.413 0.341709 26.5771C0.560501 26.7411 0.857247 26.8333 1.16667 26.8333H3.88889V27.125C3.88889 27.3571 4.01181 27.5796 4.2306 27.7437C4.44939 27.9078 4.74614 28 5.05556 28C5.36497 28 5.66172 27.9078 5.88051 27.7437C6.09931 27.5796 6.22222 27.3571 6.22222 27.125V26.8333H21.7778V27.125C21.7778 27.3571 21.9007 27.5796 22.1195 27.7437C22.3383 27.9078 22.635 28 22.9444 28C23.2539 28 23.5506 27.9078 23.7694 27.7437C23.9882 27.5796 24.1111 27.3571 24.1111 27.125V26.8333H26.8333C27.1428 26.8333 27.4395 26.7411 27.6583 26.5771C27.8771 26.413 28 26.1904 28 25.9583C28 25.7263 27.8771 25.5037 27.6583 25.3396C27.4395 25.1755 27.1428 25.0833 26.8333 25.0833H24.1111V23.9167H26.8333ZM21.7778 18.0833V19.25H6.22222V18.0833H21.7778ZM21.7778 21V22.1667H6.22222V21H21.7778ZM21.7778 23.9167V25.0833H6.22222V23.9167H21.7778ZM23.3333 16.3333C23.0257 16.3333 22.7249 16.2649 22.4691 16.1367C22.2133 16.0085 22.0139 15.8263 21.8962 15.6131C21.7785 15.4 21.7476 15.1654 21.8077 14.9391C21.8677 14.7127 22.0158 14.5049 22.2334 14.3417C22.4509 14.1785 22.7281 14.0674 23.0299 14.0224C23.3316 13.9774 23.6444 14.0005 23.9286 14.0888C24.2129 14.1771 24.4558 14.3266 24.6267 14.5185C24.7977 14.7104 24.8889 14.9359 24.8889 15.1667C24.8877 15.4758 24.7234 15.772 24.4319 15.9906C24.1405 16.2092 23.7455 16.3324 23.3333 16.3333ZM3.11111 4.08333C3.11173 3.92877 3.19387 3.78066 3.3396 3.67136C3.48533 3.56207 3.6828 3.50046 3.88889 3.5H24.1111C24.3172 3.50046 24.5147 3.56207 24.6604 3.67136C24.8061 3.78066 24.8883 3.92877 24.8889 4.08333V11.0833C24.8883 11.2379 24.8061 11.386 24.6604 11.4953C24.5147 11.6046 24.3172 11.6662 24.1111 11.6667H3.88889C3.6828 11.6662 3.48533 11.6046 3.3396 11.4953C3.19387 11.386 3.11173 11.2379 3.11111 11.0833V4.08333ZM3.11111 15.1667C3.11111 14.9359 3.20234 14.7104 3.37327 14.5185C3.5442 14.3266 3.78714 14.1771 4.07138 14.0888C4.35562 14.0005 4.66839 13.9774 4.97014 14.0224C5.27189 14.0674 5.54906 14.1785 5.76661 14.3417C5.98416 14.5049 6.13231 14.7127 6.19233 14.9391C6.25235 15.1654 6.22155 15.4 6.10381 15.6131C5.98608 15.8263 5.7867 16.0085 5.53089 16.1367C5.27508 16.2649 4.97433 16.3333 4.66667 16.3333C4.25449 16.3324 3.85954 16.2092 3.56808 15.9906C3.27663 15.772 3.11234 15.4758 3.11111 15.1667Z" fill="black"/>
</svg>
