<svg width="21" height="24" viewBox="0 0 21 24" fill="none" xmlns="http://www.w3.org/2000/svg">
<path d="M5.25 15C6.2125 15 7 15.9 7 17C7 18.1 6.2125 19 5.25 19C4.2875 19 3.5 18.1 3.5 17C3.5 15.9 4.2875 15 5.25 15ZM5.25 13C3.325 13 1.75 14.8 1.75 17C1.75 19.2 3.325 21 5.25 21C7.175 21 8.75 19.2 8.75 17C8.75 14.8 7.175 13 5.25 13ZM10.5 5C11.4625 5 12.25 5.9 12.25 7C12.25 8.1 11.4625 9 10.5 9C9.5375 9 8.75 8.1 8.75 7C8.75 5.9 9.5375 5 10.5 5ZM10.5 3C8.575 3 7 4.8 7 7C7 9.2 8.575 11 10.5 11C12.425 11 14 9.2 14 7C14 4.8 12.425 3 10.5 3ZM15.75 15C16.7125 15 17.5 15.9 17.5 17C17.5 18.1 16.7125 19 15.75 19C14.7875 19 14 18.1 14 17C14 15.9 14.7875 15 15.75 15ZM15.75 13C13.825 13 12.25 14.8 12.25 17C12.25 19.2 13.825 21 15.75 21C17.675 21 19.25 19.2 19.25 17C19.25 14.8 17.675 13 15.75 13Z" fill="white" fill-opacity="0.8"/>
</svg>
